<svg xmlns="http://www.w3.org/2000/svg" viewBox="0 0 220 220"><defs><style>.cls-1{fill:#fbbe41;}.cls-2{fill:#fff;}.cls-3{fill:#f6f6f6;}</style></defs><title>Asset 7</title><g id="Layer_2" data-name="Layer 2"><g id="Layer_1-2" data-name="Layer 1"><path class="cls-1" d="M220,110A110,110,0,1,1,110,0,110,110,0,0,1,220,110"/><path class="cls-2" d="M110,216.18a106.2,106.2,0,0,1-41.33-204,106.2,106.2,0,0,1,82.66,195.66A105.48,105.48,0,0,1,110,216.18ZM110,5.7A104.33,104.33,0,0,0,69.4,206.1,104.32,104.32,0,0,0,150.6,13.9,103.64,103.64,0,0,0,110,5.7Z"/><path class="cls-2" d="M110,182.28A72.28,72.28,0,1,1,182,110,72.25,72.25,0,0,1,110,182.28Zm0-134.21A61.93,61.93,0,1,0,171.69,110,61.88,61.88,0,0,0,110,48.07Z"/><ellipse class="cls-2" cx="110" cy="110" rx="60.98" ry="61.2"/><path class="cls-1" d="M86.09,94.77,76.92,97l-2.41-9.47L89.62,83h7.9v53H86.09Z"/><path class="cls-1" d="M105.79,129.06l7-8.35c4,3.61,7.9,5.72,12.56,5.72,5.41,0,8.8-2.63,8.8-7.29V119c0-4.52-3.84-7.15-9.33-7.15a22.52,22.52,0,0,0-8.8,2l-6.69-4.44,1.51-25.94h32.33V93.57H120.75l-.6,9.1a25.67,25.67,0,0,1,6.92-.9c10.22,0,18.42,5,18.42,16.84v.15c0,11.13-7.9,18.2-20,18.2A27.06,27.06,0,0,1,105.79,129.06Z"/><path class="cls-3" d="M46.77,35.33l2.08-1.82L56,41.68,53.92,43.5l-2.75-3.14-2.3,2,2.75,3.14-2.09,1.83-7.15-8.18,2.09-1.83,2.64,3,2.3-2Z"/><path class="cls-3" d="M64.79,35.67,63.55,34.6l-3,2L61,38.13l-2.53,1.63L55.57,28.68l2.85-1.83L67.31,34Zm-5-1.51L61.66,33l-2.93-2.51Z"/><path class="cls-3" d="M72.75,22.39,69.22,24,70,25.65,73.43,24l1.13,2.43-3.45,1.62,1.58,3.37-2.52,1.18-4.61-9.84,6-2.83Z"/><path class="cls-3" d="M75.61,16.23a1.39,1.39,0,1,1,1.78.84A1.41,1.41,0,0,1,75.61,16.23Zm.68,1.93,2.62-.91L82.5,27.5l-2.62.92Z"/><path class="cls-3" d="M91.14,16.69l-3.78.91.41,1.72,3.72-.89.63,2.6-3.71.9.87,3.62-2.7.66L84,15.65l6.48-1.57Z"/><path class="cls-3" d="M112,22.91l-3.1.11-3.29-4.75.17,4.85-2.77.1-.38-10.86,2.77-.1.16,4.57,2.81-4.67,3.1-.11-3.26,5.4Z"/><path class="cls-3" d="M119.47,23.78a5.58,5.58,0,0,1-3.85-2.06,5.49,5.49,0,0,1-1.19-4.2,5.39,5.39,0,0,1,2.07-3.81,5.78,5.78,0,0,1,8,.88,5.39,5.39,0,0,1,1.21,4.18,5.62,5.62,0,0,1-6.28,5Zm.3-2.7a3,3,0,0,0,2.64-4.8,2.84,2.84,0,0,0-2-1.06,2.78,2.78,0,0,0-2.17.6,2.85,2.85,0,0,0-1.07,2,2.84,2.84,0,0,0,2.6,3.25Z"/><path class="cls-3" d="M134.12,26.43l-.92-3.87-1-.26-.91,3.39L128.65,25l2.81-10.5,4.2,1.13a3.86,3.86,0,0,1,2.41,1.75,3.6,3.6,0,0,1-2.19,5.39L137,27.21Zm-.64-8.77L132.85,20l1.49.4a1.13,1.13,0,0,0,1.44-.87,1.15,1.15,0,0,0-.81-1.49Z"/><path class="cls-3" d="M144.21,18.26l2.56,1.09L144,25.82c-.36.84-.06,1.46.87,1.85s1.57.18,1.93-.66l2.75-6.47,2.56,1.08-2.85,6.71a3.44,3.44,0,0,1-2.2,2.07,4.44,4.44,0,0,1-3.25-.25A4.59,4.59,0,0,1,141.38,28a3.5,3.5,0,0,1,0-3Z"/><path class="cls-3" d="M166.52,30l-5.75,9.22-2.35-1.46,3.1-5L157,35.07l-.23-.15.07-5.08-3.09,4.95-2.36-1.47,5.76-9.21,2.35,1.47-.11,5.4,4.81-2.47Z"/><path class="cls-3" d="M168.9,46l.68-1.49-2.73-2.37-1.38.88-2.27-2L173,35.18l2.55,2.22L171.16,48Zm.06-5.19,1.65,1.43,1.6-3.51Z"/><path class="cls-3" d="M36,169.83l2.36,2.9-2.08,1.7-4.11-5.06,8.43-6.86,1.75,2.16Z"/><path class="cls-3" d="M42.83,181.44a5.59,5.59,0,0,1-.28-8,5.43,5.43,0,0,1,4-1.81,5.79,5.79,0,0,1,5.89,5.54,5.42,5.42,0,0,1-1.54,4.07,5.63,5.63,0,0,1-8,.23Zm1.86-2a3,3,0,0,0,5-2.26,2.81,2.81,0,0,0-1-2,3,3,0,0,0-5,2.26A2.92,2.92,0,0,0,44.69,179.46Z"/><path class="cls-3" d="M52.79,189.48l3.36-10.77,2.52,1.63L56.34,187l5.36-4.68,1.83,1.19-2.1,6.8,5.15-4.82,2.5,1.62-8.46,7.47L58.16,193,60,186.88l-4.79,4.19Z"/><path class="cls-3" d="M81.72,192.23A3.79,3.79,0,0,1,84,194.16a3.58,3.58,0,0,1,.15,2.94,3.62,3.62,0,0,1-2,2.21,3.83,3.83,0,0,1-3,.1l-1.36-.48L76.76,202l-2.63-.92,3.6-10.25Zm-1.65,4.69a1.16,1.16,0,0,0,.77-2.19l-1.36-.47-.77,2.18Z"/><path class="cls-3" d="M92.1,206.2,91,202.38l-1-.2-.7,3.44-2.72-.56,2.18-10.64,4.26.87a3.83,3.83,0,0,1,2.5,1.61,3.45,3.45,0,0,1,.57,2.86,3.53,3.53,0,0,1-2.43,2.65L95,206.8Zm-1.16-8.71-.49,2.38,1.5.31a1.13,1.13,0,0,0,1.39-1,1.15,1.15,0,0,0-.9-1.44Z"/><path class="cls-3" d="M105,207.94a5.56,5.56,0,0,1-4-1.83,5.78,5.78,0,0,1,.41-8.05,5.53,5.53,0,0,1,4.13-1.43,5.66,5.66,0,1,1-.57,11.31Zm.14-2.71a2.84,2.84,0,0,0,3.08-2.79,3,3,0,0,0-4.92-2.37,2.79,2.79,0,0,0-.94,2.07,2.84,2.84,0,0,0,.72,2.16A2.9,2.9,0,0,0,105.14,205.23Z"/><path class="cls-3" d="M121.76,196.25l.24,2.68-2.67.24.73,8.15-2.76.25-.74-8.15-2.67.24-.25-2.67Z"/><path class="cls-3" d="M129.62,203.17l4.12-.9.55,2.55-6.83,1.48-2.3-10.62,6.75-1.46.55,2.53-4,.88.32,1.47,3.66-.79.54,2.5-3.65.79Z"/><path class="cls-3" d="M139.84,201.77a5.71,5.71,0,0,1,3.3-10.8,5.2,5.2,0,0,1,2.49,1.09l-1.78,2.12a2.57,2.57,0,0,0-2.59-.38,2.77,2.77,0,0,0-1.71,3.76,2.92,2.92,0,0,0,1.47,1.75,2.85,2.85,0,0,0,2.26,0,2.52,2.52,0,0,0,1.73-2l2.74.49a5.39,5.39,0,0,1-3.53,4A5.54,5.54,0,0,1,139.84,201.77Z"/><path class="cls-3" d="M154.48,184.85l1.26,2.37-2.37,1.26,3.84,7.22L154.76,197l-3.84-7.23L148.54,191l-1.26-2.37Z"/><path class="cls-3" d="M157.45,182.91l2.3-1.56,6.07,9-2.3,1.56Z"/><path class="cls-3" d="M174.46,183.91a5.52,5.52,0,0,1-4.12,1.43,5.7,5.7,0,1,1,4.68-9.45,5.62,5.62,0,0,1-.56,8Zm-1.79-2a2.83,2.83,0,0,0,.27-4.15,2.83,2.83,0,0,0-2-1,2.86,2.86,0,0,0-2.13.75,2.82,2.82,0,0,0-1,2,2.79,2.79,0,0,0,.75,2.14,2.84,2.84,0,0,0,4.15.29Z"/><path class="cls-3" d="M177.71,164.58l1.77-2.12,8.34,7-1.38,1.64-6.65-.56L184,174l-1.78,2.13-8.33-7,1.38-1.66,6.65.57Z"/><circle class="cls-3" cx="22.31" cy="110" r="7.16"/><circle class="cls-3" cx="199.02" cy="110" r="7.16"/><path class="cls-1" d="M85.42,150.16H82v1.57h3.38v2.37H82v3.29H79.52v-9.6h5.9Z"/><path class="cls-1" d="M94.82,157.39,94.4,156H91.21l-.41,1.38H88.13l3.17-9.6h3l3.17,9.6Zm-3-3.49h1.93l-1-3.27Z"/><path class="cls-1" d="M108.86,157.39h-2.74l-2.76-4.29v4.29h-2.45v-9.6h2.45v4l2.62-4h2.75l-3,4.67Z"/><path class="cls-1" d="M118.89,147.79v2.37h-2.37v7.23h-2.46v-7.23h-2.37v-2.37Z"/><path class="cls-1" d="M126.71,157.6a4.9,4.9,0,0,1-3.58-1.44,5,5,0,1,1,7.15,0A4.9,4.9,0,0,1,126.71,157.6Zm0-2.4a2.55,2.55,0,0,0,1.85-.73,2.52,2.52,0,0,0,.74-1.88,2.59,2.59,0,1,0-5.18,0,2.52,2.52,0,0,0,.74,1.88A2.55,2.55,0,0,0,126.71,155.2Zm-2.43-9.12a1.09,1.09,0,1,1,2.18,0,1.09,1.09,0,1,1-2.18,0Zm2.68,0a1.09,1.09,0,1,1,1.08,1.09A1.09,1.09,0,0,1,127,146.08Z"/><path class="cls-1" d="M140.63,157.39l-1.67-3.1h-.88v3.1h-2.45v-9.6h3.84a3.4,3.4,0,0,1,2.45,1,3,3,0,0,1,1,2.37,3.13,3.13,0,0,1-1.64,2.73l2,3.55Zm-2.55-7.34v2.16h1.36a1,1,0,0,0,1-1.07,1,1,0,0,0-1-1.09Z"/><path class="cls-1" d="M97,71.53l2.1-1.22a1.92,1.92,0,0,0,1.9,1.28c.75,0,1.12-.22,1.12-.65s-.22-.5-.64-.68c-.18-.07-.59-.19-1.21-.37-1.76-.51-2.86-1.36-2.86-3a2.71,2.71,0,0,1,1-2.15,3.56,3.56,0,0,1,2.39-.82,3.74,3.74,0,0,1,3.57,2.19l-2.06,1.21a1.53,1.53,0,0,0-1.5-1.07c-.59,0-.89.26-.89.63s.34.66,1.65,1a10,10,0,0,1,1.12.39,4.7,4.7,0,0,1,.93.52,2.32,2.32,0,0,1,1,2.1,2.62,2.62,0,0,1-1,2.2,4.08,4.08,0,0,1-2.64.8A3.84,3.84,0,0,1,97,71.53Z"/><path class="cls-1" d="M111.92,64.11a3.36,3.36,0,0,1,2.44,1,3.44,3.44,0,0,1,0,4.83,3.36,3.36,0,0,1-2.44.94h-1.27v2.88h-2.46v-9.6Zm0,4.39a1,1,0,0,0,1-1,1,1,0,0,0-1-1h-1.27v2Z"/><path class="cls-1" d="M125,66.48h-3.45v1.57h3.38v2.37h-3.38v3.29h-2.45v-9.6H125Z"/></g></g></svg>