<svg xmlns="http://www.w3.org/2000/svg" xmlns:xlink="http://www.w3.org/1999/xlink" viewBox="0 0 220 220"><defs><style>.cls-1{fill:none;}.cls-2{clip-path:url(#clip-path);}.cls-3{fill:#62b22f;}.cls-4{fill:#fff;}.cls-5{fill:#f6f6f6;}</style><clipPath id="clip-path"><rect class="cls-1" width="220" height="220"/></clipPath></defs><title>Asset 5</title><g id="Layer_2" data-name="Layer 2"><g id="Layer_1-2" data-name="Layer 1"><g class="cls-2"><g class="cls-2"><path class="cls-3" d="M220,110A110,110,0,1,1,110,0,110,110,0,0,1,220,110"/><path class="cls-4" d="M110,216.18a106.2,106.2,0,0,1-41.33-204,106.2,106.2,0,0,1,82.66,195.66A105.48,105.48,0,0,1,110,216.18M110,5.7A104.33,104.33,0,0,0,69.4,206.1,104.32,104.32,0,0,0,150.6,13.9,103.64,103.64,0,0,0,110,5.7"/><path class="cls-4" d="M110,182.28A72.28,72.28,0,1,1,182,110a72.25,72.25,0,0,1-72,72.28m0-134.21A61.93,61.93,0,1,0,171.69,110,61.88,61.88,0,0,0,110,48.07"/><path class="cls-4" d="M171,110a61,61,0,1,1-61-61.2A61.09,61.09,0,0,1,171,110"/><polygon class="cls-3" points="86.09 94.77 76.92 97.03 74.51 87.56 89.62 83.04 97.52 83.04 97.52 136.05 86.09 136.05 86.09 94.77"/><path class="cls-3" d="M105.79,129.06l7-8.35c4,3.61,7.9,5.72,12.56,5.72,5.41,0,8.8-2.63,8.8-7.29V119c0-4.52-3.84-7.15-9.33-7.15a22.52,22.52,0,0,0-8.8,2l-6.69-4.44,1.51-25.94h32.33V93.57H120.75l-.6,9.1a25.67,25.67,0,0,1,6.92-.9c10.22,0,18.42,5,18.42,16.84v.15c0,11.13-7.9,18.2-20,18.2a27.06,27.06,0,0,1-19.7-7.9"/><polygon class="cls-5" points="46.77 35.33 48.85 33.51 56 41.69 53.92 43.51 51.17 40.36 48.87 42.38 51.62 45.52 49.53 47.35 42.38 39.17 44.47 37.34 47.11 40.37 49.41 38.35 46.77 35.33"/><path class="cls-5" d="M64.79,35.67,63.55,34.6l-3,2L61,38.13l-2.53,1.63L55.57,28.68l2.85-1.83L67.31,34Zm-5-1.51L61.66,33l-2.93-2.51Z"/><polygon class="cls-5" points="72.75 22.39 69.22 24.04 69.97 25.64 73.43 24.03 74.56 26.46 71.11 28.08 72.69 31.45 70.17 32.63 65.56 22.79 71.61 19.96 72.75 22.39"/><path class="cls-5" d="M75.61,16.23a1.39,1.39,0,1,1,1.78.84,1.41,1.41,0,0,1-1.78-.84m.68,1.93,2.62-.91L82.5,27.5l-2.62.92Z"/><polygon class="cls-5" points="91.14 16.69 87.36 17.6 87.78 19.32 91.49 18.43 92.12 21.04 88.41 21.93 89.28 25.55 86.58 26.21 84.03 15.65 90.51 14.08 91.14 16.69"/><polygon class="cls-5" points="111.97 22.91 108.87 23.02 105.58 18.27 105.75 23.13 102.98 23.22 102.6 12.36 105.37 12.26 105.53 16.82 108.34 12.16 111.44 12.05 108.18 17.45 111.97 22.91"/><path class="cls-5" d="M119.47,23.78a5.58,5.58,0,0,1-3.85-2.06,5.49,5.49,0,0,1-1.19-4.2,5.39,5.39,0,0,1,2.07-3.81,5.8,5.8,0,0,1,8,.88,5.4,5.4,0,0,1,1.21,4.18,5.62,5.62,0,0,1-6.28,5m.3-2.7a3,3,0,0,0,2.64-4.8,2.94,2.94,0,0,0-5.24,1.55,2.84,2.84,0,0,0,2.6,3.25"/><path class="cls-5" d="M134.12,26.43l-.92-3.87-1-.26-.91,3.39L128.65,25l2.81-10.5,4.2,1.13a3.86,3.86,0,0,1,2.41,1.75,3.6,3.6,0,0,1-2.19,5.39L137,27.21Zm-.64-8.77L132.85,20l1.49.4a1.13,1.13,0,0,0,1.44-.87,1.15,1.15,0,0,0-.81-1.49Z"/><path class="cls-5" d="M144.21,18.26l2.56,1.09L144,25.82c-.36.84-.06,1.46.87,1.85s1.57.18,1.93-.66l2.75-6.47,2.55,1.08-2.84,6.71a3.44,3.44,0,0,1-2.2,2.07,4.48,4.48,0,0,1-3.25-.24A4.67,4.67,0,0,1,141.38,28a3.52,3.52,0,0,1,0-3Z"/><polygon class="cls-5" points="166.52 29.97 160.77 39.19 158.42 37.73 161.52 32.76 156.97 35.07 156.74 34.92 156.81 29.84 153.72 34.79 151.37 33.32 157.12 24.11 159.47 25.58 159.36 30.98 164.18 28.51 166.52 29.97"/><path class="cls-5" d="M168.9,46l.68-1.49-2.73-2.37-1.38.88-2.27-2L173,35.18l2.55,2.22L171.16,48Zm.06-5.19,1.65,1.43,1.6-3.51Z"/><polygon class="cls-5" points="36.01 169.83 38.37 172.73 36.29 174.43 32.18 169.37 40.61 162.51 42.36 164.67 36.01 169.83"/><path class="cls-5" d="M42.83,181.44a5.59,5.59,0,0,1-.28-8,5.42,5.42,0,0,1,4-1.81,5.79,5.79,0,0,1,5.9,5.54A5.7,5.7,0,0,1,46.89,183a5.53,5.53,0,0,1-4.06-1.57m1.86-2a3,3,0,0,0,5-2.26,2.81,2.81,0,0,0-1-2,2.86,2.86,0,0,0-4.16.14,2.83,2.83,0,0,0,.12,4.16"/><polygon class="cls-5" points="52.79 189.48 56.16 178.71 58.67 180.34 56.34 186.99 61.7 182.31 63.53 183.5 61.43 190.3 66.58 185.48 69.08 187.1 60.62 194.57 58.16 192.97 60.04 186.88 55.25 191.07 52.79 189.48"/><path class="cls-5" d="M81.72,192.23A3.83,3.83,0,0,1,84,194.16a3.89,3.89,0,0,1-1.81,5.15,3.83,3.83,0,0,1-3,.1l-1.36-.48L76.76,202l-2.63-.92,3.6-10.25Zm-1.65,4.69a1.11,1.11,0,0,0,1.43-.74,1.1,1.1,0,0,0-.66-1.45l-1.36-.47-.77,2.18Z"/><path class="cls-5" d="M92.1,206.2,91,202.38l-1-.2-.7,3.44-2.72-.56,2.18-10.64,4.26.87a3.83,3.83,0,0,1,2.5,1.61,3.45,3.45,0,0,1,.57,2.86,3.53,3.53,0,0,1-2.43,2.65L95,206.8Zm-1.16-8.71-.49,2.38,1.5.31a1.13,1.13,0,0,0,1.39-1,1.15,1.15,0,0,0-.9-1.44Z"/><path class="cls-5" d="M105,207.94a5.56,5.56,0,0,1-4-1.83,5.78,5.78,0,0,1,.41-8.05,5.53,5.53,0,0,1,4.13-1.43,5.66,5.66,0,1,1-.57,11.31m.14-2.71a2.84,2.84,0,0,0,3.08-2.79,2.93,2.93,0,1,0-5.86-.3,2.84,2.84,0,0,0,.72,2.16,2.9,2.9,0,0,0,2.06.93"/><polygon class="cls-5" points="121.76 196.25 122 198.93 119.33 199.17 120.06 207.32 117.3 207.57 116.56 199.42 113.89 199.66 113.64 196.99 121.76 196.25"/><polygon class="cls-5" points="129.62 203.16 133.74 202.27 134.29 204.82 127.46 206.3 125.16 195.69 131.91 194.22 132.46 196.75 128.42 197.63 128.74 199.1 132.4 198.31 132.94 200.81 129.28 201.6 129.62 203.16"/><path class="cls-5" d="M139.84,201.77a5.71,5.71,0,0,1,3.3-10.8,5.2,5.2,0,0,1,2.49,1.09l-1.78,2.12a2.57,2.57,0,0,0-2.59-.38,2.77,2.77,0,0,0-1.71,3.77,2.93,2.93,0,0,0,1.47,1.74,2.85,2.85,0,0,0,2.26,0,2.52,2.52,0,0,0,1.73-2l2.74.49a5.39,5.39,0,0,1-3.53,4,5.54,5.54,0,0,1-4.38-.12"/><polygon class="cls-5" points="154.48 184.85 155.74 187.22 153.37 188.48 157.21 195.7 154.75 197.01 150.92 189.78 148.54 191.04 147.28 188.67 154.48 184.85"/><rect class="cls-5" x="160.25" y="181.2" width="2.78" height="10.86" transform="translate(-76.71 122.22) rotate(-33.98)"/><path class="cls-5" d="M174.46,183.91a5.53,5.53,0,0,1-4.12,1.43,5.7,5.7,0,1,1,4.68-9.45,5.62,5.62,0,0,1-.56,8m-1.79-2a2.83,2.83,0,0,0,.27-4.15,2.83,2.83,0,0,0-2-1,3,3,0,0,0-.37,6,2.9,2.9,0,0,0,2.12-.76"/><polygon class="cls-5" points="177.71 164.58 179.48 162.46 187.82 169.43 186.44 171.07 179.79 170.51 183.99 174.02 182.2 176.15 173.87 169.18 175.25 167.52 181.9 168.09 177.71 164.58"/><path class="cls-5" d="M29.48,110a7.17,7.17,0,1,1-7.17-7.16A7.16,7.16,0,0,1,29.48,110"/><path class="cls-5" d="M206.18,110a7.17,7.17,0,1,1-7.16-7.16,7.16,7.16,0,0,1,7.16,7.16"/><polygon class="cls-3" points="85.42 150.16 81.98 150.16 81.98 151.73 85.35 151.73 85.35 154.1 81.98 154.1 81.98 157.39 79.52 157.39 79.52 147.79 85.42 147.79 85.42 150.16"/><path class="cls-3" d="M94.82,157.39,94.4,156H91.21l-.41,1.38H88.13l3.17-9.6h3l3.17,9.6Zm-3-3.49h1.93l-1-3.27Z"/><polygon class="cls-3" points="108.86 157.4 106.12 157.4 103.36 153.1 103.36 157.4 100.91 157.4 100.91 147.79 103.36 147.79 103.36 151.82 105.98 147.79 108.73 147.79 105.68 152.46 108.86 157.4"/><polygon class="cls-3" points="118.89 147.79 118.89 150.16 116.52 150.16 116.52 157.4 114.06 157.4 114.06 150.16 111.69 150.16 111.69 147.79 118.89 147.79"/><path class="cls-3" d="M126.71,157.6a4.9,4.9,0,0,1-3.58-1.44,5,5,0,1,1,7.15,0,4.9,4.9,0,0,1-3.57,1.44m0-2.4a2.55,2.55,0,0,0,1.85-.73,2.52,2.52,0,0,0,.74-1.88,2.59,2.59,0,1,0-5.18,0,2.52,2.52,0,0,0,.74,1.88,2.55,2.55,0,0,0,1.85.73m-2.43-9.12a1.09,1.09,0,1,1,2.18,0,1.09,1.09,0,1,1-2.18,0m2.68,0a1.09,1.09,0,1,1,1.08,1.09,1.09,1.09,0,0,1-1.08-1.09"/><path class="cls-3" d="M140.63,157.39l-1.67-3.1h-.88v3.1h-2.45v-9.6h3.84a3.4,3.4,0,0,1,2.45,1,3,3,0,0,1,1,2.37,3.13,3.13,0,0,1-1.64,2.73l2,3.55Zm-2.55-7.34v2.16h1.36a1,1,0,0,0,1-1.07,1,1,0,0,0-1-1.09Z"/><path class="cls-3" d="M97,71.53l2.1-1.22A1.91,1.91,0,0,0,101,71.59c.76,0,1.13-.22,1.13-.65,0-.28-.22-.5-.64-.68-.18-.07-.6-.19-1.21-.37-1.76-.51-2.86-1.36-2.86-3a2.71,2.71,0,0,1,1-2.15,3.56,3.56,0,0,1,2.39-.82,3.72,3.72,0,0,1,3.56,2.19l-2.05,1.21a1.53,1.53,0,0,0-1.5-1.07c-.59,0-.89.26-.89.63s.34.66,1.65,1a10,10,0,0,1,1.12.39,4.7,4.7,0,0,1,.93.52,2.32,2.32,0,0,1,1,2.1,2.62,2.62,0,0,1-1,2.2,4.08,4.08,0,0,1-2.64.8A3.84,3.84,0,0,1,97,71.53"/><path class="cls-3" d="M111.92,64.11a3.36,3.36,0,0,1,2.44,1,3.44,3.44,0,0,1,0,4.83,3.36,3.36,0,0,1-2.44.94h-1.27v2.88h-2.46v-9.6Zm0,4.39a1,1,0,0,0,1-1,1,1,0,0,0-1-1h-1.27v2Z"/><polygon class="cls-3" points="124.95 66.48 121.51 66.48 121.51 68.05 124.89 68.05 124.89 70.42 121.51 70.42 121.51 73.71 119.06 73.71 119.06 64.11 124.95 64.11 124.95 66.48"/></g></g></g></g></svg>