<svg xmlns="http://www.w3.org/2000/svg" viewBox="0 0 220 220"><defs><style>.cls-1{fill:#ec6324;}.cls-2{fill:#fff;}.cls-3{fill:#f6f6f6;}</style></defs><title>Asset 8</title><g id="Layer_2" data-name="Layer 2"><g id="Layer_1-2" data-name="Layer 1"><path class="cls-1" d="M220,110A110,110,0,1,1,110,0,110,110,0,0,1,220,110"/><path class="cls-2" d="M110,216.18a106.2,106.2,0,0,1-41.33-204,106.2,106.2,0,0,1,82.66,195.66A105.48,105.48,0,0,1,110,216.18ZM110,5.7A104.33,104.33,0,0,0,69.4,206.1,104.32,104.32,0,0,0,150.6,13.9,103.64,103.64,0,0,0,110,5.7Z"/><path class="cls-2" d="M110,182.28A72.28,72.28,0,1,1,182,110,72.25,72.25,0,0,1,110,182.28Zm0-134.21A61.93,61.93,0,1,0,171.69,110,61.88,61.88,0,0,0,110,48.07Z"/><ellipse class="cls-2" cx="110" cy="110" rx="60.98" ry="61.2"/><path class="cls-1" d="M66.38,128.12l8-7.59c3.61,4.06,7.37,6.31,12.71,6.31,4.36,0,7.44-2.48,7.44-6.39v-.15c0-4.28-3.83-6.69-10.3-6.69H79.39l-1.8-7.37L90.14,93.61H69.47V83.68H105v8.73l-13.31,12.7c7.14,1.21,14.14,5,14.14,14.74V120c0,9.93-7.22,17.22-19,17.22C77.44,137.22,70.89,133.46,66.38,128.12Z"/><path class="cls-1" d="M108.64,110.15V110c0-15.26,9.47-27.22,23.46-27.22s23.31,11.81,23.31,27.07V110c0,15.26-9.4,27.22-23.46,27.22S108.64,125.41,108.64,110.15Zm34.89,0V110c0-9.55-4.67-16.77-11.58-16.77s-11.43,7-11.43,16.62V110c0,9.62,4.58,16.77,11.58,16.77S143.53,119.7,143.53,110.15Z"/><path class="cls-3" d="M36.52,158.21l-9.41,5.42-1.38-2.39,5.07-2.92-5.1-.11-.14-.24L28,153.52,23,156.44,21.58,154,31,148.61,32.38,151l-2.64,4.7,5.41.1Z"/><path class="cls-3" d="M34.19,168.76l2.62,3.3-2.05,1.62-4.34-5.47,8.51-6.76,4.29,5.41-2,1.61-2.56-3.23-1.18.94,2.32,2.93-2,1.59-2.33-2.93Z"/><path class="cls-3" d="M48.91,172.73a5,5,0,0,1,1.64,3.73,5.7,5.7,0,0,1-5.34,5.61,5,5,0,0,1-3.8-1.47l-3.2-3,7.5-7.87Zm-5.64,5.93a2.45,2.45,0,0,0,1.85.73,2.8,2.8,0,0,0,1.9-1,2.74,2.74,0,0,0,.85-1.93,2.37,2.37,0,0,0-.81-1.82l-1.14-1.08-3.79,4Z"/><path class="cls-3" d="M55.74,178.65,58,180.31,51.44,189l-2.22-1.67Z"/><path class="cls-3" d="M61.29,182.72l2.39,1.41-3.56,6.06c-.47.79-.26,1.44.61,1.95s1.54.39,2-.4l3.57-6.06,2.39,1.41L65,193.37a3.47,3.47,0,0,1-2.45,1.77,4.51,4.51,0,0,1-3.19-.67A4.64,4.64,0,0,1,57.21,192a3.51,3.51,0,0,1,.38-3Z"/><path class="cls-3" d="M82.44,192.94l-4,10.1-2.57-1L78,196.59,74,199.67l-.26-.1-.84-5L70.73,200l-2.59-1,4-10.11,2.58,1,.87,5.33,4.29-3.3Z"/><path class="cls-3" d="M96.56,196a3.85,3.85,0,0,1,2.57,1.48,3.65,3.65,0,0,1,.7,2.87,3.61,3.61,0,0,1-1.52,2.53,3.82,3.82,0,0,1-2.89.64L94,203.35l-.49,3.22-2.74-.42,1.63-10.74ZM95.82,201a1.15,1.15,0,0,0,.34-2.28l-1.42-.22-.35,2.29Z"/><path class="cls-3" d="M109.36,207.83l-1.85-3.53-1,0,0,3.51-2.78,0,.16-10.86,4.34.06a3.93,3.93,0,0,1,2.77,1.11,3.47,3.47,0,0,1,1.09,2.7,3.54,3.54,0,0,1-1.89,3.06l2.18,4.06Zm-2.77-8.34,0,2.43,1.54,0a1.22,1.22,0,0,0,0-2.44Z"/><path class="cls-3" d="M122.35,207.14a5.58,5.58,0,0,1-4.24-1.06,5.48,5.48,0,0,1-2.18-3.78,5.4,5.4,0,0,1,1.09-4.2,5.79,5.79,0,0,1,8-1.1,5.71,5.71,0,0,1,1.09,8A5.53,5.53,0,0,1,122.35,207.14Zm-.37-2.69a2.92,2.92,0,0,0,2-1.1,2.87,2.87,0,0,0,.54-2.22,3,3,0,0,0-5.27-1.41,2.86,2.86,0,0,0-.54,2.21,2.84,2.84,0,0,0,3.31,2.52Z"/><path class="cls-3" d="M136.67,192.55l.73,2.58-2.59.73,2.23,7.88-2.68.75-2.22-7.87-2.59.73-.72-2.59Z"/><path class="cls-3" d="M145.67,197.9l3.88-1.63,1,2.4-6.44,2.71-4.21-10,6.36-2.68,1,2.39-3.81,1.6.59,1.39,3.45-1.45,1,2.36-3.45,1.45Z"/><path class="cls-3" d="M155.46,194.64a5.7,5.7,0,0,1,1.22-11.22,5.26,5.26,0,0,1,2.66.6L158,186.44a2.56,2.56,0,0,0-2.61.11,2.82,2.82,0,0,0-1.39,1.79,2.86,2.86,0,0,0,.41,2.23,2.9,2.9,0,0,0,1.77,1.43,2.86,2.86,0,0,0,2.23-.38,2.52,2.52,0,0,0,1.33-2.26l2.78,0a5.38,5.38,0,0,1-2.72,4.62A5.51,5.51,0,0,1,155.46,194.64Z"/><path class="cls-3" d="M166.69,175.29l1.68,2.1-2.1,1.68,5.12,6.38-2.16,1.74-5.12-6.38-2.1,1.68-1.68-2.1Z"/><path class="cls-3" d="M169.24,172.83l2-2,7.64,7.72-2,2Z"/><path class="cls-3" d="M186.14,170.65a5.53,5.53,0,0,1-3.79,2.18,5.83,5.83,0,1,1,3.79-2.18ZM184,169a3,3,0,0,0-2.68-4.77,2.94,2.94,0,0,0-1.45,5.26,2.9,2.9,0,0,0,2.19.65A2.86,2.86,0,0,0,184,169Z"/><path class="cls-3" d="M185.76,151.06l1.35-2.41,9.48,5.31-1,1.87-6.64.67,4.76,2.67-1.36,2.43-9.47-5.31,1-1.88,6.64-.68Z"/><path class="cls-3" d="M56.19,42.67A5.67,5.67,0,1,1,49,33.88a5.46,5.46,0,0,1,4.17-1.27A5.4,5.4,0,0,1,57,34.68a5.62,5.62,0,0,1-.84,8Zm-1.71-2.11a2.87,2.87,0,0,0,1.1-2,2.91,2.91,0,0,0-.69-2.18A2.86,2.86,0,0,0,50.75,36a2.8,2.8,0,0,0-1.09,2,2.85,2.85,0,0,0,.68,2.17,2.84,2.84,0,0,0,4.14.43Z"/><path class="cls-3" d="M68.36,34.11,65,32l-.85.5,1.77,3L63.47,37,58,27.59l3.75-2.19a3.86,3.86,0,0,1,2.94-.48A3.48,3.48,0,0,1,67,26.66a3.54,3.54,0,0,1,0,3.6l4,2.34ZM61.67,28.4l1.24,2.1,1.32-.77a1.13,1.13,0,0,0,.39-1.64A1.14,1.14,0,0,0,63,27.62Z"/><path class="cls-3" d="M76.42,18.35l1,2.48-2.47,1,3.19,7.53-2.56,1.09L72.44,23,70,24l-1-2.47Z"/><path class="cls-3" d="M89.55,25.67l-.87-1.39-3.48,1,0,1.64-2.9.81.51-11.43L86,15.37l6.4,9.48Zm-4.31-2.9,2.11-.59-2.07-3.26Z"/><path class="cls-3" d="M110.68,22.87l-3.1.19-3.4-4.66.29,4.85-2.78.16L101,12.57l2.78-.17.27,4.56,2.69-4.74,3.09-.18-3.12,5.47Z"/><path class="cls-3" d="M118.2,23.56a5.53,5.53,0,0,1-3.9-2,5.43,5.43,0,0,1-1.3-4.16,5.42,5.42,0,0,1,2-3.87,5.54,5.54,0,0,1,4.18-1.3,5.47,5.47,0,0,1,3.88,2,5.37,5.37,0,0,1,1.31,4.14,5.44,5.44,0,0,1-2,3.88A5.54,5.54,0,0,1,118.2,23.56Zm.23-2.71a2.93,2.93,0,0,0,2.16-.64,2.9,2.9,0,0,0,1-2.05,2.94,2.94,0,1,0-5.85-.5,2.85,2.85,0,0,0,2.68,3.19Z"/><path class="cls-3" d="M132.91,25.84l-1-3.85-1-.23-.82,3.41-2.7-.66L130,14l4.23,1a3.84,3.84,0,0,1,2.44,1.7,3.44,3.44,0,0,1,.47,2.87,3.51,3.51,0,0,1-2.52,2.57l1.23,4.44Zm-.85-8.75-.57,2.37,1.49.36a1.12,1.12,0,0,0,1.42-.9,1.14,1.14,0,0,0-.85-1.46Z"/><path class="cls-3" d="M142.8,17.42l2.58,1L142.79,25c-.33.85,0,1.46.92,1.83s1.58.14,1.91-.71l2.59-6.54,2.58,1-2.68,6.78A3.48,3.48,0,0,1,146,29.49a5.13,5.13,0,0,1-5.76-2.28,3.51,3.51,0,0,1-.1-3Z"/><path class="cls-3" d="M165.38,28.57l-5.52,9.35-2.38-1.4,3-5L156,33.9l-.24-.15-.05-5.07-3,5-2.4-1.41,5.52-9.35,2.4,1.41,0,5.4L163,27.16Z"/><path class="cls-3" d="M168.18,44.52l.64-1.5L166,40.71l-1.36.91-2.32-1.92,9.7-6.08,2.6,2.16-4.17,10.65Zm-.07-5.19,1.68,1.39,1.51-3.55Z"/><circle class="cls-3" cx="21.75" cy="110" r="7.16"/><circle class="cls-3" cx="199.6" cy="110" r="7.16"/><path class="cls-1" d="M85.42,148.47H82V150h3.38v2.37H82v3.29H79.52v-9.6h5.9Z"/><path class="cls-1" d="M94.82,155.7l-.42-1.38H91.21l-.41,1.38H88.13l3.17-9.6h3l3.17,9.6Zm-3-3.5h1.93l-1-3.26Z"/><path class="cls-1" d="M108.86,155.7h-2.74l-2.76-4.29v4.29h-2.45v-9.6h2.45v4l2.62-4h2.75l-3,4.66Z"/><path class="cls-1" d="M118.89,146.1v2.37h-2.37v7.23h-2.46v-7.23h-2.37V146.1Z"/><path class="cls-1" d="M126.71,155.91a4.94,4.94,0,0,1-5-5,4.79,4.79,0,0,1,1.45-3.55,5,5,0,0,1,7.15,7.12A4.9,4.9,0,0,1,126.71,155.91Zm0-2.4a2.55,2.55,0,0,0,1.85-.73,2.52,2.52,0,0,0,.74-1.88,2.59,2.59,0,1,0-5.18,0,2.52,2.52,0,0,0,.74,1.88A2.55,2.55,0,0,0,126.71,153.51Zm-2.43-9.13a1.09,1.09,0,1,1,1.1,1.1A1.1,1.1,0,0,1,124.28,144.38Zm2.68,0a1.09,1.09,0,1,1,1.08,1.1A1.09,1.09,0,0,1,127,144.38Z"/><path class="cls-1" d="M140.63,155.7,139,152.6h-.88v3.1h-2.45v-9.6h3.84a3.36,3.36,0,0,1,2.45,1,3,3,0,0,1,1,2.37,3.13,3.13,0,0,1-1.64,2.73l2,3.55Zm-2.55-7.34v2.16h1.36a1,1,0,0,0,1-1.07,1,1,0,0,0-1-1.09Z"/><path class="cls-1" d="M97,69.84l2.1-1.22A1.92,1.92,0,0,0,101,69.9c.75,0,1.12-.22,1.12-.65s-.22-.51-.64-.68c-.18-.07-.59-.2-1.21-.37-1.76-.51-2.86-1.36-2.86-3a2.71,2.71,0,0,1,1-2.15,3.57,3.57,0,0,1,2.39-.83,3.75,3.75,0,0,1,3.57,2.2l-2.06,1.21a1.53,1.53,0,0,0-1.5-1.07c-.59,0-.89.26-.89.63s.34.66,1.65,1c.46.14.83.26,1.12.38a6,6,0,0,1,.93.52,2.33,2.33,0,0,1,1,2.1,2.63,2.63,0,0,1-1,2.21,4.08,4.08,0,0,1-2.64.8A3.84,3.84,0,0,1,97,69.84Z"/><path class="cls-1" d="M111.92,62.42a3.32,3.32,0,0,1,2.44.95,3.2,3.2,0,0,1,1,2.41,3.23,3.23,0,0,1-1,2.42,3.36,3.36,0,0,1-2.44.94h-1.27V72h-2.46v-9.6Zm0,4.39a1,1,0,0,0,1-1,1,1,0,0,0-1-1h-1.27v2Z"/><path class="cls-1" d="M125,64.79h-3.45v1.57h3.38v2.37h-3.38V72h-2.45v-9.6H125Z"/></g></g></svg>