<?xml version="1.0" encoding="utf-8"?>
<!-- Generator: Adobe Illustrator 24.0.0, SVG Export Plug-In . SVG Version: 6.00 Build 0)  -->
<svg version="1.1" id="Layer_1" xmlns="http://www.w3.org/2000/svg" xmlns:xlink="http://www.w3.org/1999/xlink" x="0px" y="0px"
	 viewBox="0 0 220 220" style="enable-background:new 0 0 220 220;" xml:space="preserve">
<style type="text/css">
	.st0{clip-path:url(#SVGID_2_);}
	.st1{clip-path:url(#SVGID_4_);}
	.st2{fill:#62B22F;}
	.st3{fill:#FFFFFF;}
	.st4{fill:#F6F6F6;}
	.st5{clip-path:url(#SVGID_4_);fill:#62B22F;}
</style>
<title>Asset 6</title>
<g id="Layer_2_1_">
	<g id="Layer_1-2">
		<g>
			<defs>
				<rect id="SVGID_1_" width="220" height="220"/>
			</defs>
			<clipPath id="SVGID_2_">
				<use xlink:href="#SVGID_1_"  style="overflow:visible;"/>
			</clipPath>
			<g class="st0">
				<g>
					<defs>
						<rect id="SVGID_3_" width="220" height="220"/>
					</defs>
					<clipPath id="SVGID_4_">
						<use xlink:href="#SVGID_3_"  style="overflow:visible;"/>
					</clipPath>
					<g class="st1">
						<path class="st2" d="M220,110c0,60.8-49.2,110-110,110S0,170.8,0,110S49.2,0,110,0S220,49.2,220,110"/>
						<path class="st3" d="M110,216.2c-58.7,0-106.2-47.6-106.1-106.3c0-42.6,25.5-81.1,64.8-97.7c54-22.8,116.3,2.5,139.2,56.5
							s-2.5,116.3-56.5,139.2C138.3,213.4,124.2,216.2,110,216.2 M110,5.7C52.4,5.7,5.7,52.5,5.8,110.1c0,41.9,25.1,79.7,63.6,96
							c53.1,22.4,114.3-2.4,136.7-55.5s-2.4-114.3-55.5-136.7C137.8,8.5,123.9,5.7,110,5.7"/>
						<path class="st3" d="M110,182.3c-39.9,0.2-72.4-32.1-72.6-72s32.1-72.4,72-72.6s72.4,32.1,72.6,72c0,0.1,0,0.2,0,0.3
							C182,149.8,149.8,182.1,110,182.3 M110,48.1c-34.2-0.1-62,27.5-62.2,61.7c-0.1,34.2,27.5,62,61.7,62.2s62-27.5,62.2-61.7
							c0-0.1,0-0.2,0-0.2C171.7,75.9,144.1,48.2,110,48.1"/>
						<path class="st3" d="M171,110c-0.1,33.7-27.5,60.9-61.2,60.8S48.9,143.3,49,109.6c0.1-33.6,27.4-60.8,61-60.8
							C143.7,48.8,171,76.2,171,110C171,110,171,110,171,110"/>
						<path class="st2" d="M66.4,128.1l8-7.6c3.6,4.1,7.4,6.3,12.7,6.3c4.4,0,7.4-2.5,7.4-6.4v-0.2c0-4.3-3.8-6.7-10.3-6.7h-4.8
							l-1.8-7.4l12.6-12.6H69.5v-9.9H105v8.7l-13.3,12.7c7.1,1.2,14.1,5,14.1,14.7v0.2c0,9.9-7.2,17.2-19,17.2
							C77.4,137.2,70.8,133.5,66.4,128.1"/>
						<path class="st2" d="M108.6,110.2V110c0-15.3,9.5-27.2,23.5-27.2s23.3,11.8,23.3,27.1v0.2c0,15.3-9.4,27.2-23.5,27.2
							S108.6,125.4,108.6,110.2 M143.5,110.2V110c0-9.6-4.7-16.8-11.6-16.8s-11.4,7-11.4,16.6v0.2c0,9.6,4.6,16.8,11.6,16.8
							C139.1,126.8,143.5,119.7,143.5,110.2"/>
						<polygon class="st4" points="36.5,158.2 27.1,163.6 25.7,161.2 30.8,158.3 25.7,158.2 25.6,158 28,153.5 23,156.4 21.6,154 
							31,148.6 32.4,151 29.7,155.7 35.2,155.8 						"/>
						<polygon class="st4" points="34.2,168.8 36.8,172.1 34.8,173.7 30.4,168.2 38.9,161.4 43.2,166.9 41.2,168.5 38.6,165.2 
							37.5,166.2 39.8,169.1 37.8,170.7 35.4,167.8 						"/>
						<path class="st4" d="M48.9,172.7c1.1,1,1.6,2.3,1.6,3.7c0,3-2.4,5.4-5.3,5.6c-1.4,0.1-2.8-0.5-3.8-1.5l-3.2-3l7.5-7.9
							L48.9,172.7z M43.3,178.7c0.5,0.5,1.2,0.8,1.8,0.7c0.7-0.1,1.4-0.4,1.9-1c0.5-0.5,0.8-1.2,0.8-1.9c0-0.7-0.3-1.4-0.8-1.8
							l-1.1-1.1l-3.8,4L43.3,178.7z"/>
						
							<rect x="48.2" y="182.4" transform="matrix(0.6006 -0.7996 0.7996 0.6006 -125.588 116.275)" class="st4" width="10.9" height="2.8"/>
						<path class="st4" d="M61.3,182.7l2.4,1.4l-3.6,6.1c-0.5,0.8-0.3,1.4,0.6,1.9s1.5,0.4,2-0.4l3.6-6.1l2.4,1.4l-3.7,6.3
							c-0.5,0.9-1.4,1.6-2.5,1.8c-1.1,0.2-2.2-0.1-3.2-0.7c-1-0.5-1.8-1.4-2.2-2.5c-0.3-1-0.2-2.1,0.4-3L61.3,182.7z"/>
						<polygon class="st4" points="82.4,192.9 78.4,203 75.9,202 78,196.6 74,199.7 73.7,199.6 72.9,194.6 70.7,200 68.1,199 
							72.1,188.9 74.7,189.9 75.6,195.2 79.9,191.9 						"/>
						<path class="st4" d="M96.6,196c1,0.1,1.9,0.7,2.6,1.5c0.6,0.8,0.9,1.9,0.7,2.9c-0.1,1-0.7,1.9-1.5,2.5
							c-0.8,0.6-1.9,0.8-2.9,0.6l-1.4-0.2l-0.5,3.2l-2.7-0.4l1.6-10.7L96.6,196z M95.8,201c0.6,0.1,1.2-0.3,1.3-0.9c0,0,0,0,0-0.1
							c0.1-0.6-0.2-1.2-0.8-1.3c0,0-0.1,0-0.1,0l-1.4-0.2l-0.3,2.3L95.8,201z"/>
						<path class="st4" d="M109.4,207.8l-1.8-3.5h-1v3.5h-2.8l0.2-10.9l4.3,0.1c1,0,2,0.4,2.8,1.1c0.7,0.7,1.1,1.7,1.1,2.7
							c0,1.3-0.7,2.5-1.9,3.1l2.2,4.1L109.4,207.8z M106.6,199.5v2.4h1.5c0.7,0,1.2-0.5,1.2-1.2s-0.5-1.2-1.2-1.2l0,0L106.6,199.5z"
							/>
						<path class="st4" d="M122.3,207.1c-1.5,0.2-3-0.1-4.2-1.1c-1.2-0.9-2-2.3-2.2-3.8c-0.2-1.5,0.2-3,1.1-4.2c1.9-2.5,5.5-3,8-1.1
							c1.2,0.9,2,2.2,2.2,3.8c0.2,1.5-0.2,3-1.1,4.2C125.2,206.2,123.8,207,122.3,207.1 M122,204.4c1.6-0.2,2.7-1.6,2.5-3.1
							c0-0.1,0-0.1,0-0.2c-0.3-1.6-1.8-2.7-3.5-2.5c-0.7,0.1-1.4,0.5-1.8,1c-0.5,0.6-0.7,1.4-0.5,2.2c0.2,1.6,1.5,2.7,3.1,2.5
							C121.8,204.5,121.9,204.5,122,204.4"/>
						<polygon class="st4" points="136.7,192.6 137.4,195.1 134.8,195.9 137,203.7 134.4,204.5 132.1,196.6 129.6,197.4 
							128.8,194.8 						"/>
						<polygon class="st4" points="145.7,197.9 149.6,196.3 150.6,198.7 144.1,201.4 139.9,191.4 146.3,188.7 147.3,191.1 
							143.5,192.7 144.1,194.1 147.5,192.6 148.5,195 145.1,196.4 						"/>
						<path class="st4" d="M155.5,194.6c-3.1-0.8-4.9-3.9-4.1-6.9c0.6-2.5,2.8-4.2,5.3-4.3c0.9,0,1.8,0.2,2.7,0.6l-1.3,2.4
							c-0.8-0.4-1.8-0.4-2.6,0.1c-0.7,0.4-1.2,1-1.4,1.8c-0.4,1.6,0.5,3.2,2.1,3.6c0.8,0.2,1.7,0.1,2.4-0.3c0.8-0.4,1.3-1.3,1.3-2.3
							h2.8c0,1.9-1.1,3.7-2.7,4.6C158.5,194.8,157,195.1,155.5,194.6"/>
						<polygon class="st4" points="166.7,175.3 168.4,177.4 166.3,179.1 171.4,185.4 169.2,187.2 164.1,180.8 162,182.5 
							160.3,180.4 						"/>
						
							<rect x="172.7" y="170.3" transform="matrix(0.7107 -0.7035 0.7035 0.7107 -73.2573 173.2856)" class="st4" width="2.8" height="10.9"/>
						<path class="st4" d="M186.1,170.6c-0.9,1.2-2.3,2-3.8,2.2c-3.2,0.4-6.1-1.8-6.6-5c-0.4-3.2,1.8-6.1,5-6.6
							c3.2-0.4,6.1,1.8,6.6,5C187.5,167.8,187.1,169.4,186.1,170.6 M184,169c1-1.3,0.7-3.2-0.6-4.2c-0.6-0.4-1.3-0.6-2-0.6
							c-0.8,0.1-1.5,0.5-1.9,1.1c-1,1.2-0.8,3,0.4,4c0,0,0.1,0.1,0.1,0.1c1.2,1,3,0.9,4-0.3C183.9,169.1,184,169.1,184,169"/>
						<polygon class="st4" points="185.8,151.1 187.1,148.6 196.6,154 195.5,155.8 188.9,156.5 193.7,159.2 192.3,161.6 
							182.8,156.3 183.9,154.4 190.5,153.7 						"/>
						<path class="st4" d="M56.2,42.7c-2.4,2-6,1.6-8-0.8s-1.6-6,0.8-8c2.3-2.1,5.9-1.8,8,0.5c2.1,2.3,1.8,5.9-0.5,8
							C56.4,42.5,56.3,42.6,56.2,42.7 M54.4,40.6c0.6-0.5,1-1.2,1.1-2c0.1-0.8-0.2-1.6-0.7-2.2c-1-1.2-2.8-1.4-4-0.4
							c0,0-0.1,0-0.1,0.1c-0.6,0.5-1,1.2-1.1,2c-0.1,0.8,0.2,1.6,0.7,2.2c0.9,1.3,2.7,1.5,4,0.6C54.4,40.7,54.4,40.6,54.4,40.6"/>
						<path class="st4" d="M68.4,34.1L65,32l-0.8,0.5l1.8,3L63.5,37L58,27.6l3.8-2.2c0.9-0.5,1.9-0.7,2.9-0.5c1,0.2,1.8,0.9,2.3,1.7
							c0.7,1.1,0.7,2.5,0,3.6l4,2.3L68.4,34.1z M61.7,28.4l1.2,2.1l1.3-0.8c0.5-0.3,0.8-1,0.5-1.5c0,0,0-0.1-0.1-0.1
							c-0.3-0.6-1-0.8-1.5-0.5c0,0-0.1,0-0.1,0.1L61.7,28.4z"/>
						<polygon class="st4" points="76.4,18.4 77.5,20.8 75,21.9 78.2,29.4 75.6,30.5 72.4,23 70,24 68.9,21.5 						"/>
						<path class="st4" d="M89.6,25.7l-0.9-1.4l-3.5,1v1.6l-2.9,0.8l0.5-11.4l3.2-0.9l6.4,9.5L89.6,25.7z M85.2,22.8l2.1-0.6
							l-2.1-3.3L85.2,22.8z"/>
						<polygon class="st4" points="110.7,22.9 107.6,23.1 104.2,18.4 104.5,23.3 101.7,23.4 101,12.6 103.8,12.4 104.1,17 
							106.8,12.2 109.9,12 106.8,17.5 						"/>
						<path class="st4" d="M118.2,23.6c-1.5-0.1-2.9-0.8-3.9-2c-1-1.1-1.5-2.7-1.3-4.2c0.1-1.5,0.8-2.9,2-3.9c1.2-1,2.7-1.5,4.2-1.3
							c1.5,0.1,2.9,0.8,3.9,2c1,1.1,1.5,2.6,1.3,4.1c-0.1,1.5-0.8,2.9-2,3.9C121.2,23.2,119.7,23.7,118.2,23.6 M118.4,20.8
							c0.8,0.1,1.6-0.1,2.2-0.6c0.6-0.5,1-1.3,1-2c0.1-1.7-1.2-3.1-2.8-3.2c-0.7,0-1.4,0.2-2,0.6c-0.6,0.5-1,1.2-1,2
							c-0.2,1.6,0.9,3,2.5,3.2C118.3,20.8,118.4,20.8,118.4,20.8"/>
						<path class="st4" d="M132.9,25.8l-1-3.9l-1-0.2l-0.8,3.4l-2.7-0.6L130,14l4.2,1c1,0.2,1.9,0.8,2.4,1.7
							c0.6,0.8,0.7,1.9,0.5,2.9c-0.3,1.3-1.3,2.2-2.5,2.6l1.2,4.4L132.9,25.8z M132.1,17.1l-0.6,2.4l1.5,0.4
							c0.6,0.2,1.2-0.2,1.4-0.8c0,0,0-0.1,0-0.1c0.2-0.6-0.1-1.2-0.7-1.4c0,0-0.1,0-0.1,0L132.1,17.1z"/>
						<path class="st4" d="M142.8,17.4l2.6,1l-2.6,6.6c-0.3,0.9,0,1.5,0.9,1.8s1.6,0.1,1.9-0.7l2.6-6.5l2.6,1l-2.7,6.8
							c-0.3,1-1.1,1.8-2.1,2.1c-2.2,0.6-4.6-0.3-5.8-2.3c-0.5-0.9-0.5-2-0.1-3L142.8,17.4z"/>
						<polygon class="st4" points="165.4,28.6 159.9,37.9 157.5,36.5 160.4,31.5 156,33.9 155.7,33.8 155.7,28.7 152.7,33.7 
							150.3,32.3 155.8,22.9 158.2,24.4 158.3,29.8 163,27.2 						"/>
						<path class="st4" d="M168.2,44.5l0.6-1.5l-2.8-2.3l-1.4,0.9l-2.3-1.9l9.7-6.1l2.6,2.2l-4.2,10.6L168.2,44.5z M168.1,39.3
							l1.7,1.4l1.5-3.5L168.1,39.3z"/>
						<path class="st4" d="M28.9,110c0,4-3.2,7.2-7.2,7.2c-4,0-7.2-3.2-7.2-7.2c0-4,3.2-7.2,7.2-7.2c0,0,0,0,0,0
							C25.7,102.8,28.9,106,28.9,110C28.9,110,28.9,110,28.9,110"/>
						<path class="st4" d="M206.8,110c0,4-3.2,7.2-7.2,7.2c-4,0-7.2-3.2-7.2-7.2c0-4,3.2-7.2,7.2-7.2c0,0,0,0,0,0
							C203.6,102.8,206.8,106,206.8,110C206.8,110,206.8,110,206.8,110"/>
						<polygon class="st2" points="85.4,148.5 82,148.5 82,150 85.3,150 85.3,152.4 82,152.4 82,155.7 79.5,155.7 79.5,146.1 
							85.4,146.1 						"/>
						<path class="st2" d="M94.8,155.7l-0.4-1.4h-3.2l-0.4,1.4h-2.7l3.2-9.6h3l3.2,9.6H94.8z M91.8,152.2h1.9l-1-3.3L91.8,152.2z"/>
						<polygon class="st2" points="108.9,155.7 106.1,155.7 103.4,151.4 103.4,155.7 100.9,155.7 100.9,146.1 103.4,146.1 
							103.4,150.1 106,146.1 108.7,146.1 105.7,150.8 						"/>
						<polygon class="st2" points="118.9,146.1 118.9,148.5 116.5,148.5 116.5,155.7 114.1,155.7 114.1,148.5 111.7,148.5 
							111.7,146.1 						"/>
						<path class="st2" d="M126.7,155.9c-2.7,0-5-2.2-5-4.9c0,0,0-0.1,0-0.1c0-1.3,0.5-2.6,1.4-3.6c2-2,5.2-2,7.1,0c2,2,2,5.2,0,7.1
							C129.4,155.4,128.1,155.9,126.7,155.9 M126.7,153.5c1.4,0,2.5-1,2.6-2.4c0-0.1,0-0.1,0-0.2c0-1.4-1.2-2.6-2.7-2.5
							c-1.4,0-2.6,1.2-2.5,2.7c0,0.7,0.3,1.3,0.7,1.7C125.4,153.3,126,153.5,126.7,153.5 M124.3,144.4c0-0.6,0.5-1.1,1.1-1.1
							c0.6,0,1.1,0.5,1.1,1.1c0,0.6-0.5,1.1-1.1,1.1C124.8,145.5,124.3,145,124.3,144.4L124.3,144.4 M127,144.4
							c0-0.6,0.5-1.1,1.1-1.1c0.6,0,1.1,0.5,1.1,1.1s-0.5,1.1-1.1,1.1C127.5,145.5,127,145,127,144.4"/>
						<path class="st2" d="M140.6,155.7l-1.6-3.1h-0.9v3.1h-2.4v-9.6h3.8c0.9,0,1.8,0.3,2.4,1c0.7,0.6,1,1.5,1,2.4
							c0,1.1-0.6,2.2-1.6,2.7l2,3.6L140.6,155.7z M138.1,148.4v2.2h1.4c0.6,0,1-0.4,1-1c0,0,0,0,0-0.1c0-0.6-0.4-1-0.9-1.1
							c0,0-0.1,0-0.1,0H138.1z"/>
					</g>
					<path class="st5" d="M96.4,69.8l2.1-1.2c0.3,0.8,1.1,1.3,1.9,1.3c0.8,0,1.1-0.2,1.1-0.7c0-0.3-0.2-0.5-0.6-0.7
						c-0.2-0.1-0.6-0.2-1.2-0.4c-1.8-0.5-2.9-1.4-2.9-3c0-0.8,0.4-1.6,1-2.2c0.7-0.6,1.5-0.8,2.4-0.8c1.5-0.1,2.9,0.8,3.6,2.2
						l-2.1,1.2c-0.2-0.7-0.8-1.1-1.5-1.1c-0.6,0-0.9,0.3-0.9,0.6s0.3,0.7,1.7,1c0.4,0.1,0.8,0.2,1.1,0.4c0.3,0.1,0.6,0.3,0.9,0.5
						c0.7,0.5,1.1,1.3,1,2.1c0,0.9-0.3,1.7-1,2.2c-0.8,0.6-1.7,0.8-2.6,0.8C98.7,72.4,97,71.4,96.4,69.8"/>
					<path class="st5" d="M111.3,62.4c0.9,0,1.8,0.3,2.4,1c1.3,1.3,1.3,3.5,0,4.8c-0.7,0.6-1.5,1-2.4,0.9H110v2.9h-2.5v-9.6
						L111.3,62.4z M111.3,66.8c0.6,0,1-0.4,1-1s-0.4-1-1-1H110v2H111.3z"/>
					<polygon class="st5" points="124.3,64.8 120.9,64.8 120.9,66.4 124.3,66.4 124.3,68.7 120.9,68.7 120.9,72 118.5,72 
						118.5,62.4 124.3,62.4 					"/>
				</g>
			</g>
		</g>
	</g>
</g>
</svg>
