<svg xmlns="http://www.w3.org/2000/svg" xmlns:xlink="http://www.w3.org/1999/xlink" viewBox="0 0 220 220"><defs><style>.cls-1{fill:none;}.cls-2{clip-path:url(#clip-path);}.cls-3{fill:#62b22f;}.cls-4{fill:#fff;}.cls-5{fill:#f6f6f6;}</style><clipPath id="clip-path" transform="translate(0 0)"><rect class="cls-1" width="220" height="220"/></clipPath></defs><title>Asset 12</title><g id="Layer_2" data-name="Layer 2"><g id="Layer_1-2" data-name="Layer 1"><g class="cls-2"><g class="cls-2"><path class="cls-3" d="M220,110A110,110,0,1,1,110,0,110,110,0,0,1,220,110" transform="translate(0 0)"/><path class="cls-4" d="M110,216.18a106.2,106.2,0,0,1-41.33-204,106.2,106.2,0,0,1,82.66,195.66A105.48,105.48,0,0,1,110,216.18M110,5.7A104.33,104.33,0,0,0,69.4,206.1,104.32,104.32,0,0,0,150.6,13.9,103.64,103.64,0,0,0,110,5.7" transform="translate(0 0)"/><path class="cls-4" d="M110,182.28A72.28,72.28,0,1,1,182,110a72.25,72.25,0,0,1-72,72.28m0-134.21A61.93,61.93,0,1,0,171.69,110,61.88,61.88,0,0,0,110,48.07" transform="translate(0 0)"/><path class="cls-4" d="M171,110a61,61,0,1,1-61-61.2A61.09,61.09,0,0,1,171,110" transform="translate(0 0)"/><path class="cls-3" d="M66.41,126.77l7-8.35c4,3.61,7.9,5.71,12.56,5.71,5.41,0,8.8-2.63,8.8-7.29v-.15c0-4.51-3.84-7.14-9.33-7.14a22.6,22.6,0,0,0-8.79,2l-6.7-4.43,1.51-25.95h32.33V91.28H81.37l-.6,9.09a26.07,26.07,0,0,1,6.92-.9c10.22,0,18.42,5,18.42,16.84v.15c0,11.13-7.9,18.2-20,18.2a27.09,27.09,0,0,1-19.7-7.89" transform="translate(0 0)"/><path class="cls-3" d="M109,107.59v-.15c0-15.26,9.47-27.22,23.45-27.22S155.73,92,155.73,107.29v.15c0,15.27-9.4,27.22-23.46,27.22S109,122.86,109,107.59m34.88,0v-.15c0-9.55-4.66-16.77-11.58-16.77s-11.42,7-11.42,16.62v.15c0,9.63,4.58,16.77,11.57,16.77s11.43-7.07,11.43-16.62" transform="translate(0 0)"/><polygon class="cls-5" points="42.06 39.41 44.44 46.65 47.49 49.5 45.59 51.53 42.57 48.7 35.16 46.79 37.29 44.51 41.54 45.85 39.93 41.69 42.06 39.41"/><path class="cls-5" d="M45.47,34a1.23,1.23,0,1,1,1.74.19A1.25,1.25,0,0,1,45.47,34m-.09,2.36,2.16-1.74L52,40.14c.57.72,1.25.75,2,.11s.9-1.3.33-2l-4.41-5.48L52.08,31l4.57,5.68a3.47,3.47,0,0,1,.79,2.91,5.13,5.13,0,0,1-4.83,3.88A3.51,3.51,0,0,1,50,42.09Zm2.45-4.26a1.23,1.23,0,1,1,1.73.2,1.23,1.23,0,0,1-1.73-.2" transform="translate(0 0)"/><polygon class="cls-5" points="69.89 32.67 67.21 34.25 62.05 31.66 64.53 35.84 62.14 37.25 56.6 27.9 58.99 26.49 61.32 30.41 61.55 24.98 64.22 23.4 63.94 29.69 69.89 32.67"/><path class="cls-5" d="M70.79,29.49l1.64-2.2a2.16,2.16,0,0,0,2.54.49c.78-.34,1.07-.73.88-1.18s-.45-.43-1-.42c-.22,0-.7.06-1.42.15-2.06.25-3.58-.14-4.31-1.86a3.1,3.1,0,0,1,0-2.66,4.07,4.07,0,0,1,2.11-1.92,4.24,4.24,0,0,1,4.69.7l-1.6,2.17a1.74,1.74,0,0,0-2-.45c-.62.27-.81.67-.65,1.06s.65.53,2.18.35a10.57,10.57,0,0,1,1.34-.1,7,7,0,0,1,1.2.12,2.68,2.68,0,0,1,2,1.74,3,3,0,0,1-.06,2.75,4.68,4.68,0,0,1-2.4,2c-2.12.9-3.94.55-5.15-.74" transform="translate(0 0)"/><polygon class="cls-5" points="84.85 24.03 88.89 22.88 89.61 25.39 82.89 27.3 79.92 16.85 86.56 14.96 87.27 17.45 83.3 18.58 83.71 20.03 87.31 19.01 88.01 21.47 84.41 22.49 84.85 24.03"/><polygon class="cls-5" points="102.16 23.23 99.08 23.69 95.28 19.35 96 24.15 93.25 24.56 91.65 13.82 94.39 13.41 95.07 17.92 97.33 12.97 100.4 12.51 97.77 18.24 102.16 23.23"/><polygon class="cls-5" points="120.52 23.51 117.42 23.31 114.62 18.26 114.31 23.11 111.53 22.93 112.23 12.09 115 12.27 114.71 16.82 117.96 12.46 121.06 12.66 117.28 17.7 120.52 23.51"/><path class="cls-5" d="M127.89,25.12a5.56,5.56,0,0,1-3.63-2.43,5.48,5.48,0,0,1-.77-4.29,5.38,5.38,0,0,1,2.44-3.59,5.79,5.79,0,0,1,7.91,1.67,5.41,5.41,0,0,1,.8,4.28,5.64,5.64,0,0,1-6.75,4.36m.56-2.66a3,3,0,0,0,3.1-4.51,2.89,2.89,0,0,0-1.88-1.26,3,3,0,0,0-3.1,4.53,2.89,2.89,0,0,0,1.88,1.24" transform="translate(0 0)"/><path class="cls-5" d="M142.21,29.21l-.54-4-.93-.35-1.23,3.29-2.6-1L140.74,17l4.07,1.53a3.87,3.87,0,0,1,2.22,2,3.61,3.61,0,0,1-2.71,5.15l.68,4.55Zm.23-8.79-.86,2.28,1.43.54a1.13,1.13,0,0,0,1.52-.72,1.14,1.14,0,0,0-.66-1.56Z" transform="translate(0 0)"/><path class="cls-5" d="M153.06,22.06l2.44,1.33-3.37,6.17c-.44.81-.2,1.45.68,1.93s1.55.33,2-.47l3.37-6.17,2.44,1.33-3.49,6.4a3.49,3.49,0,0,1-2.39,1.85,4.54,4.54,0,0,1-3.21-.57,4.61,4.61,0,0,1-2.23-2.4,3.51,3.51,0,0,1,.28-3Z" transform="translate(0 0)"/><polygon class="cls-5" points="174.11 35.89 167.48 44.51 165.29 42.82 168.86 38.18 164.11 40.03 163.89 39.86 164.46 34.81 160.9 39.44 158.7 37.74 165.33 29.13 167.53 30.83 166.89 36.19 171.92 34.21 174.11 35.89"/><path class="cls-5" d="M174.91,52.07l.83-1.41L173.26,48l-1.46.74-2.07-2.19,10.37-4.84,2.32,2.46L177,54.25Zm.58-5.16L177,48.5l1.93-3.34Z" transform="translate(0 0)"/><polygon class="cls-5" points="42.43 164.75 44.13 166.93 35.57 173.62 33.87 171.44 37.16 168.87 35.28 166.46 31.99 169.03 30.27 166.85 38.83 160.15 40.55 162.34 37.38 164.82 39.26 167.23 42.43 164.75"/><rect class="cls-5" x="38.71" y="173.4" width="10.86" height="2.78" transform="translate(-109.98 81.27) rotate(-44.58)"/><path class="cls-5" d="M57.51,185.24l-.69.86a5.16,5.16,0,0,1-3.58,2.11,5.3,5.3,0,0,1-4-1.25A5.71,5.71,0,0,1,47,183.08a5.4,5.4,0,0,1,1.22-4.16,5.58,5.58,0,0,1,8-.94,5.72,5.72,0,0,1,1.75,2.26,5,5,0,0,1,.43,2.65l-2.69-.4a2.74,2.74,0,0,0-1.15-2.36,2.85,2.85,0,0,0-2.18-.66,3,3,0,0,0-1.4,5.45,2.45,2.45,0,0,0,2.85.43l-2.07-1.64,1.48-1.87Z" transform="translate(0 0)"/><polygon class="cls-5" points="68.48 186.39 70.88 187.75 65.52 197.2 63.12 195.84 65.18 192.21 62.52 190.7 60.46 194.33 58.04 192.96 63.4 183.51 65.82 184.88 63.83 188.38 66.49 189.88 68.48 186.39"/><path class="cls-5" d="M84.4,193.09a3.82,3.82,0,0,1,2.31,1.85,3.89,3.89,0,0,1-1.64,5.21,3.83,3.83,0,0,1-3,.19l-1.37-.43-1,3.11-2.65-.84,3.26-10.36Zm-1.49,4.74a1.11,1.11,0,0,0,1.4-.78,1.09,1.09,0,0,0-.71-1.43l-1.37-.43-.7,2.2Z" transform="translate(0 0)"/><path class="cls-5" d="M95.22,206.71l-1.28-3.78-1-.17-.59,3.46-2.74-.47L91.47,195l4.28.74a3.85,3.85,0,0,1,2.56,1.52,3.61,3.61,0,0,1-1.68,5.57l1.52,4.34ZM93.77,198l-.41,2.4,1.52.26a1.12,1.12,0,0,0,1.35-1,1.14,1.14,0,0,0-.94-1.4Z" transform="translate(0 0)"/><path class="cls-5" d="M108.17,208a5.54,5.54,0,0,1-4-1.71,5.7,5.7,0,0,1,8.23-7.9,5.38,5.38,0,0,1,1.59,4,5.62,5.62,0,0,1-5.8,5.56m0-2.72a2.88,2.88,0,0,0,2.11-.78,2.91,2.91,0,0,0,.88-2.11,3,3,0,0,0-5-2.21,2.87,2.87,0,0,0-.88,2.1,2.84,2.84,0,0,0,2.88,3" transform="translate(0 0)"/><polygon class="cls-5" points="124.56 195.8 124.89 198.47 122.22 198.8 123.22 206.92 120.46 207.26 119.46 199.14 116.8 199.47 116.47 196.8 124.56 195.8"/><polygon class="cls-5" points="132.62 202.46 136.71 201.46 137.33 203.99 130.55 205.66 127.95 195.11 134.66 193.46 135.28 195.97 131.27 196.96 131.63 198.42 135.26 197.53 135.87 200.01 132.24 200.91 132.62 202.46"/><path class="cls-5" d="M142.8,200.74a5.51,5.51,0,0,1-3-3.16,5.52,5.52,0,0,1,3.14-7.37,5.6,5.6,0,0,1,2.8-.37,5.21,5.21,0,0,1,2.53,1L146.56,193a2.57,2.57,0,0,0-2.6-.3,2.87,2.87,0,0,0-1.65,1.55,3.28,3.28,0,0,0,1.59,4,2.83,2.83,0,0,0,2.26,0,2.52,2.52,0,0,0,1.67-2l2.75.4a5.38,5.38,0,0,1-3.4,4.14,5.51,5.51,0,0,1-4.38,0" transform="translate(0 0)"/><polygon class="cls-5" points="156.88 183.36 158.22 185.69 155.89 187.02 159.96 194.12 157.55 195.5 153.48 188.41 151.15 189.74 149.81 187.41 156.88 183.36"/><rect class="cls-5" x="162.7" y="179.48" width="2.78" height="10.87" transform="translate(-77.19 131.07) rotate(-35.83)"/><path class="cls-5" d="M176.82,181.76a5.51,5.51,0,0,1-4.07,1.57,5.45,5.45,0,0,1-4-1.83,5.36,5.36,0,0,1-1.53-4.06,5.7,5.7,0,1,1,9.56,4.32m-1.85-2a2.85,2.85,0,0,0,.14-4.16,2.88,2.88,0,0,0-4.16-.16,2.89,2.89,0,0,0-1,2,2.79,2.79,0,0,0,.83,2.11,2.85,2.85,0,0,0,4.15.16" transform="translate(0 0)"/><polygon class="cls-5" points="179.44 162.35 181.15 160.17 189.7 166.87 188.38 168.55 181.72 168.21 186.02 171.57 184.31 173.76 175.75 167.07 177.08 165.37 183.75 165.71 179.44 162.35"/><path class="cls-5" d="M205.52,110a7.17,7.17,0,1,1-7.17-7.16,7.16,7.16,0,0,1,7.17,7.16" transform="translate(0 0)"/><path class="cls-5" d="M28.81,110a7.16,7.16,0,1,1-7.16-7.16A7.16,7.16,0,0,1,28.81,110" transform="translate(0 0)"/><polygon class="cls-3" points="85.42 149.21 81.98 149.21 81.98 150.78 85.35 150.78 85.35 153.15 81.98 153.15 81.98 156.44 79.52 156.44 79.52 146.84 85.42 146.84 85.42 149.21"/><path class="cls-3" d="M94.82,156.45l-.42-1.39H91.21l-.41,1.39H88.13l3.17-9.61h3l3.17,9.61Zm-3-3.5h1.93l-1-3.27Z" transform="translate(0 0)"/><polygon class="cls-3" points="108.86 156.44 106.12 156.44 103.36 152.15 103.36 156.44 100.91 156.44 100.91 146.84 103.36 146.84 103.36 150.88 105.98 146.84 108.73 146.84 105.68 151.51 108.86 156.44"/><polygon class="cls-3" points="118.89 146.84 118.89 149.21 116.52 149.21 116.52 156.44 114.06 156.44 114.06 149.21 111.69 149.21 111.69 146.84 118.89 146.84"/><path class="cls-3" d="M126.71,156.65a4.9,4.9,0,0,1-3.58-1.44,5,5,0,1,1,7.15,0,4.9,4.9,0,0,1-3.57,1.44m0-2.4a2.55,2.55,0,0,0,1.85-.73,2.52,2.52,0,0,0,.74-1.88,2.59,2.59,0,1,0-5.18,0,2.52,2.52,0,0,0,.74,1.88,2.55,2.55,0,0,0,1.85.73m-2.43-9.12a1.09,1.09,0,1,1,1.1,1.1,1.1,1.1,0,0,1-1.1-1.1m2.68,0a1.09,1.09,0,1,1,2.18,0,1.09,1.09,0,1,1-2.18,0" transform="translate(0 0)"/><path class="cls-3" d="M140.63,156.45,139,153.34h-.88v3.11h-2.45v-9.61h3.84a3.4,3.4,0,0,1,2.45.95,3.06,3.06,0,0,1,1,2.37,3.13,3.13,0,0,1-1.64,2.73l2,3.56Zm-2.55-7.34v2.15h1.36a1.08,1.08,0,0,0,0-2.15Z" transform="translate(0 0)"/><path class="cls-3" d="M97,70.58l2.1-1.22A1.91,1.91,0,0,0,101,70.64c.76,0,1.13-.22,1.13-.65,0-.28-.22-.5-.64-.68-.18-.07-.6-.19-1.21-.37-1.76-.51-2.86-1.36-2.86-3a2.71,2.71,0,0,1,1-2.15,3.56,3.56,0,0,1,2.39-.82,3.73,3.73,0,0,1,3.56,2.19l-2.05,1.21a1.55,1.55,0,0,0-1.5-1.07c-.59,0-.89.26-.89.63s.34.66,1.65,1a10,10,0,0,1,1.12.39,5.27,5.27,0,0,1,.93.52,2.32,2.32,0,0,1,1,2.1,2.65,2.65,0,0,1-1,2.21,4.13,4.13,0,0,1-2.64.79A3.84,3.84,0,0,1,97,70.58" transform="translate(0 0)"/><path class="cls-3" d="M111.92,63.16a3.36,3.36,0,0,1,2.44,1,3.44,3.44,0,0,1,0,4.83,3.36,3.36,0,0,1-2.44.94h-1.27v2.89h-2.46V63.16Zm0,4.39a1,1,0,0,0,1-1,1,1,0,0,0-1-1h-1.27v2Z" transform="translate(0 0)"/><polygon class="cls-3" points="124.95 65.53 121.51 65.53 121.51 67.1 124.89 67.1 124.89 69.47 121.51 69.47 121.51 72.77 119.06 72.77 119.06 63.16 124.95 63.16 124.95 65.53"/></g></g></g></g></svg>