<svg xmlns="http://www.w3.org/2000/svg" viewBox="0 0 220 220"><defs><style>.cls-1{fill:#c21718;}.cls-2{fill:#fff;}.cls-3{fill:#f6f6f6;}</style></defs><title>Asset 9</title><g id="Layer_2" data-name="Layer 2"><g id="Layer_1-2" data-name="Layer 1"><path class="cls-1" d="M220,110A110,110,0,1,1,110,0,110,110,0,0,1,220,110"/><path class="cls-2" d="M110,216.18a106.2,106.2,0,0,1-41.33-204,106.2,106.2,0,0,1,82.66,195.66A105.48,105.48,0,0,1,110,216.18ZM110,5.7A104.33,104.33,0,0,0,69.4,206.1,104.32,104.32,0,0,0,150.6,13.9,103.64,103.64,0,0,0,110,5.7Z"/><path class="cls-2" d="M110,182.28A72.28,72.28,0,1,1,182,110,72.25,72.25,0,0,1,110,182.28Zm0-134.21A61.93,61.93,0,1,0,171.69,110,61.88,61.88,0,0,0,110,48.07Z"/><ellipse class="cls-2" cx="110" cy="110" rx="60.98" ry="61.2"/><path class="cls-1" d="M66.41,126.77l7-8.35c4,3.61,7.9,5.71,12.56,5.71,5.41,0,8.8-2.63,8.8-7.29v-.15c0-4.51-3.84-7.14-9.33-7.14a22.6,22.6,0,0,0-8.79,2l-6.7-4.43,1.51-25.94h32.33V91.28H81.37l-.6,9.09a26.07,26.07,0,0,1,6.92-.9c10.22,0,18.42,5,18.42,16.84v.15c0,11.13-7.9,18.2-20,18.2A27.09,27.09,0,0,1,66.41,126.77Z"/><path class="cls-1" d="M109,107.59v-.15c0-15.26,9.47-27.22,23.45-27.22S155.73,92,155.73,107.29v.15c0,15.27-9.4,27.22-23.46,27.22S109,122.86,109,107.59Zm34.88,0v-.15c0-9.55-4.66-16.77-11.58-16.77s-11.42,7-11.42,16.62v.15c0,9.63,4.58,16.77,11.57,16.77S143.85,117.14,143.85,107.59Z"/><path class="cls-3" d="M42.06,39.41l2.38,7.24,3.05,2.85-1.9,2-3-2.83-7.41-1.91,2.13-2.28,4.25,1.34-1.61-4.16Z"/><path class="cls-3" d="M45.47,34a1.23,1.23,0,1,1,1.74.19A1.25,1.25,0,0,1,45.47,34Zm-.09,2.36,2.16-1.74L52,40.14c.57.72,1.25.75,2,.11s.9-1.3.33-2l-4.41-5.48L52.08,31l4.57,5.68a3.43,3.43,0,0,1,.78,2.91,4.47,4.47,0,0,1-1.75,2.75,4.56,4.56,0,0,1-3.07,1.13A3.51,3.51,0,0,1,50,42.09Zm2.45-4.26A1.23,1.23,0,0,1,48,30.41a1.24,1.24,0,1,1,1.56,1.93A1.23,1.23,0,0,1,47.83,32.14Z"/><path class="cls-3" d="M69.88,32.67l-2.67,1.58-5.16-2.59,2.48,4.18-2.39,1.41L56.6,27.9,59,26.49l2.33,3.92L61.55,25l2.67-1.58-.28,6.29Z"/><path class="cls-3" d="M70.79,29.49l1.64-2.2a2.16,2.16,0,0,0,2.54.49c.79-.34,1.07-.73.88-1.18s-.45-.43-1-.42c-.22,0-.7.06-1.42.15-2.06.25-3.58-.14-4.31-1.86a3.1,3.1,0,0,1,0-2.66,4,4,0,0,1,2.12-1.92,4.23,4.23,0,0,1,4.68.7l-1.6,2.17a1.74,1.74,0,0,0-2-.45c-.62.27-.81.67-.65,1.06s.65.53,2.18.35a10.57,10.57,0,0,1,1.34-.1,6.24,6.24,0,0,1,1.2.13,2.65,2.65,0,0,1,2,1.73,3,3,0,0,1-.06,2.75,4.68,4.68,0,0,1-2.4,2C73.82,31.14,72,30.78,70.79,29.49Z"/><path class="cls-3" d="M84.85,24l4.05-1.15.71,2.51L82.89,27.3l-3-10.45L86.56,15l.71,2.49-4,1.13L83.71,20l3.6-1,.7,2.46-3.6,1Z"/><path class="cls-3" d="M102.16,23.23l-3.08.46-3.8-4.34.72,4.8-2.75.41-1.6-10.74,2.74-.41.68,4.51,2.26-5,3.07-.46-2.63,5.73Z"/><path class="cls-3" d="M120.52,23.51l-3.1-.2-2.8-5-.31,4.85-2.78-.18.7-10.84,2.78.18-.3,4.55L118,12.46l3.1.2-3.78,5Z"/><path class="cls-3" d="M127.89,25.12a5.58,5.58,0,0,1-4.4-6.72,5.38,5.38,0,0,1,2.44-3.59,5.79,5.79,0,0,1,7.91,1.67,5.37,5.37,0,0,1,.79,4.28,5.62,5.62,0,0,1-6.74,4.36Zm.56-2.66a2.85,2.85,0,0,0,2.22-.37,2.9,2.9,0,0,0,1.26-1.9,2.83,2.83,0,0,0-.38-2.24,2.89,2.89,0,0,0-1.88-1.26A2.88,2.88,0,0,0,126.19,19a2.91,2.91,0,0,0,.38,2.25A2.86,2.86,0,0,0,128.45,22.46Z"/><path class="cls-3" d="M142.21,29.2l-.54-3.95-.93-.35-1.23,3.29-2.6-1L140.74,17l4.07,1.53a3.87,3.87,0,0,1,2.22,2,3.61,3.61,0,0,1-2.71,5.15l.68,4.55Zm.23-8.78-.86,2.28,1.43.54a1.13,1.13,0,0,0,1.52-.72,1.14,1.14,0,0,0-.66-1.56Z"/><path class="cls-3" d="M153.06,22.06l2.44,1.33-3.37,6.17c-.44.81-.2,1.45.68,1.93s1.55.33,2-.47l3.37-6.17,2.44,1.33-3.49,6.4a3.49,3.49,0,0,1-2.39,1.85,4.54,4.54,0,0,1-3.21-.57,4.61,4.61,0,0,1-2.23-2.4,3.51,3.51,0,0,1,.28-3Z"/><path class="cls-3" d="M174.11,35.89l-6.63,8.62-2.19-1.69,3.57-4.64L164.11,40l-.22-.17.57-5-3.56,4.63-2.2-1.7,6.63-8.61,2.2,1.7-.64,5.36,5-2Z"/><path class="cls-3" d="M174.91,52.07l.83-1.41L173.26,48l-1.46.74-2.07-2.19,10.37-4.84,2.32,2.46L177,54.25Zm.58-5.16L177,48.5l1.93-3.34Z"/><path class="cls-3" d="M42.43,164.75l1.7,2.18-8.56,6.69-1.7-2.18,3.29-2.57-1.88-2.41L32,169l-1.72-2.19,8.56-6.7,1.71,2.19-3.16,2.48,1.88,2.41Z"/><path class="cls-3" d="M47,170l2,2-7.74,7.63-2-2Z"/><path class="cls-3" d="M57.51,185.24l-.69.86a5.16,5.16,0,0,1-3.58,2.11,5.3,5.3,0,0,1-4-1.25A5.71,5.71,0,0,1,47,183.08a5.4,5.4,0,0,1,1.22-4.16,5.58,5.58,0,0,1,8-.94,5.72,5.72,0,0,1,1.75,2.26,5,5,0,0,1,.43,2.65l-2.69-.4a2.74,2.74,0,0,0-1.15-2.36,2.85,2.85,0,0,0-2.18-.66,3,3,0,0,0-2,1.17,3,3,0,0,0-.68,2.17A3,3,0,0,0,51,184.92a2.45,2.45,0,0,0,2.85.43l-2.07-1.64,1.48-1.87Z"/><path class="cls-3" d="M68.48,186.39l2.4,1.36-5.36,9.45-2.4-1.36,2.06-3.63-2.66-1.51-2.06,3.63L58,193l5.36-9.45,2.42,1.37-2,3.5,2.66,1.5Z"/><path class="cls-3" d="M84.4,193.09a3.79,3.79,0,0,1,2.31,1.85,3.89,3.89,0,0,1-1.64,5.21,3.83,3.83,0,0,1-3,.19l-1.37-.43-1,3.11-2.65-.84,3.26-10.36Zm-1.49,4.74a1.11,1.11,0,0,0,1.4-.78,1.09,1.09,0,0,0-.71-1.43l-1.37-.43-.7,2.2Z"/><path class="cls-3" d="M95.22,206.71l-1.28-3.78-1-.17-.59,3.46-2.74-.47L91.47,195l4.28.74a3.85,3.85,0,0,1,2.56,1.52,3.61,3.61,0,0,1-1.68,5.57l1.52,4.34ZM93.77,198l-.41,2.4,1.52.26a1.12,1.12,0,0,0,1.35-1,1.14,1.14,0,0,0-.94-1.4Z"/><path class="cls-3" d="M108.17,208a5.54,5.54,0,0,1-4-1.71,5.7,5.7,0,0,1,8.23-7.9,5.38,5.38,0,0,1,1.59,4,5.62,5.62,0,0,1-5.8,5.56Zm0-2.72a2.88,2.88,0,0,0,2.11-.78,2.91,2.91,0,0,0,.88-2.11,2.94,2.94,0,1,0-5.87-.11,2.84,2.84,0,0,0,2.88,3Z"/><path class="cls-3" d="M124.56,195.8l.32,2.67-2.66.33,1,8.12-2.76.34-1-8.12-2.67.33-.32-2.67Z"/><path class="cls-3" d="M132.62,202.46l4.09-1,.62,2.53-6.78,1.67L128,195.11l6.71-1.65.62,2.51-4,1,.36,1.46,3.63-.89.61,2.49-3.63.89Z"/><path class="cls-3" d="M142.8,200.74a5.68,5.68,0,0,1,.15-10.53,5.6,5.6,0,0,1,2.8-.37,5.21,5.21,0,0,1,2.53,1L146.56,193a2.57,2.57,0,0,0-2.6-.3,2.84,2.84,0,0,0-1.65,1.55,3.28,3.28,0,0,0,1.59,4,2.83,2.83,0,0,0,2.26,0,2.52,2.52,0,0,0,1.67-2l2.75.4a5.38,5.38,0,0,1-3.4,4.14A5.51,5.51,0,0,1,142.8,200.74Z"/><path class="cls-3" d="M156.88,183.36l1.34,2.33L155.89,187l4.07,7.1-2.41,1.38-4.07-7.09-2.33,1.33-1.34-2.33Z"/><path class="cls-3" d="M159.78,181.32l2.26-1.63,6.36,8.81-2.25,1.63Z"/><path class="cls-3" d="M176.82,181.76a5.51,5.51,0,0,1-4.07,1.57,5.45,5.45,0,0,1-4-1.83,5.37,5.37,0,0,1-1.53-4.06,5.79,5.79,0,0,1,5.91-5.51,5.71,5.71,0,0,1,5.49,5.89A5.48,5.48,0,0,1,176.82,181.76Zm-1.85-2a2.85,2.85,0,0,0,.14-4.16,2.88,2.88,0,0,0-4.16-.16,2.89,2.89,0,0,0-1,2,2.79,2.79,0,0,0,.83,2.11,2.85,2.85,0,0,0,4.15.16Z"/><path class="cls-3" d="M179.44,162.35l1.71-2.18,8.55,6.7-1.32,1.68-6.66-.34,4.3,3.36-1.71,2.19-8.56-6.69,1.33-1.7,6.67.34Z"/><circle class="cls-3" cx="198.35" cy="110" r="7.16"/><circle class="cls-3" cx="21.65" cy="110" r="7.16"/><path class="cls-1" d="M85.42,149.22H82v1.56h3.38v2.37H82v3.3H79.52v-9.61h5.9Z"/><path class="cls-1" d="M94.82,156.45l-.42-1.39H91.21l-.41,1.39H88.13l3.17-9.61h3l3.17,9.61Zm-3-3.5h1.93l-1-3.27Z"/><path class="cls-1" d="M108.86,156.45h-2.74l-2.76-4.3v4.3h-2.45v-9.61h2.45v4l2.62-4h2.75l-3,4.67Z"/><path class="cls-1" d="M118.89,146.84v2.38h-2.37v7.23h-2.46v-7.23h-2.37v-2.38Z"/><path class="cls-1" d="M126.71,156.65a4.9,4.9,0,0,1-3.58-1.44,5,5,0,1,1,7.15,0A4.9,4.9,0,0,1,126.71,156.65Zm0-2.4a2.55,2.55,0,0,0,1.85-.73,2.52,2.52,0,0,0,.74-1.88,2.59,2.59,0,1,0-5.18,0,2.52,2.52,0,0,0,.74,1.88A2.55,2.55,0,0,0,126.71,154.25Zm-2.43-9.12a1.09,1.09,0,1,1,2.18,0,1.09,1.09,0,1,1-2.18,0Zm2.68,0a1.09,1.09,0,1,1,1.08,1.09A1.09,1.09,0,0,1,127,145.13Z"/><path class="cls-1" d="M140.63,156.45,139,153.34h-.88v3.11h-2.45v-9.61h3.84a3.4,3.4,0,0,1,2.45.95,3.06,3.06,0,0,1,1,2.37,3.13,3.13,0,0,1-1.64,2.73l2,3.56Zm-2.55-7.34v2.15h1.36a1.08,1.08,0,0,0,0-2.15Z"/><path class="cls-1" d="M97,70.58l2.1-1.22a1.92,1.92,0,0,0,1.9,1.28c.75,0,1.12-.22,1.12-.65,0-.28-.22-.5-.64-.68-.18-.07-.59-.19-1.21-.37-1.76-.51-2.86-1.36-2.86-3a2.71,2.71,0,0,1,1-2.15,3.56,3.56,0,0,1,2.39-.82,3.74,3.74,0,0,1,3.57,2.19l-2.06,1.21a1.55,1.55,0,0,0-1.5-1.07c-.59,0-.89.26-.89.63s.34.66,1.65,1a10,10,0,0,1,1.12.39,4.7,4.7,0,0,1,.93.52,2.32,2.32,0,0,1,1,2.1,2.65,2.65,0,0,1-1,2.21,4.13,4.13,0,0,1-2.64.79A3.84,3.84,0,0,1,97,70.58Z"/><path class="cls-1" d="M111.92,63.16a3.36,3.36,0,0,1,2.44,1,3.44,3.44,0,0,1,0,4.83,3.36,3.36,0,0,1-2.44.94h-1.27v2.89h-2.46V63.16Zm0,4.39a1,1,0,0,0,1-1,1,1,0,0,0-1-1h-1.27v2Z"/><path class="cls-1" d="M125,65.54h-3.45V67.1h3.38v2.37h-3.38v3.3h-2.45V63.16H125Z"/></g></g></svg>