<svg xmlns="http://www.w3.org/2000/svg" xmlns:xlink="http://www.w3.org/1999/xlink" viewBox="0 0 220 220"><defs><style>.cls-1{fill:none;}.cls-2{clip-path:url(#clip-path);}.cls-3,.cls-6{fill:#62b22f;}.cls-4{fill:#fff;}.cls-5{fill:#f6f6f6;}.cls-6{fill-rule:evenodd;}</style><clipPath id="clip-path" transform="translate(0 0)"><rect class="cls-1" width="220" height="220"/></clipPath></defs><title>Asset 9</title><g id="Layer_2" data-name="Layer 2"><g id="Layer_1-2" data-name="Layer 1"><g class="cls-2"><g class="cls-2"><path class="cls-3" d="M220,110A110,110,0,1,1,110,0,110,110,0,0,1,220,110" transform="translate(0 0)"/><path class="cls-4" d="M110,216.18a106.2,106.2,0,0,1-41.33-204,106.2,106.2,0,0,1,82.66,195.66A105.48,105.48,0,0,1,110,216.18M110,5.7A104.33,104.33,0,0,0,69.4,206.1,104.32,104.32,0,0,0,150.6,13.9,103.64,103.64,0,0,0,110,5.7" transform="translate(0 0)"/><path class="cls-4" d="M110,182.28A72.28,72.28,0,1,1,182,110a72.25,72.25,0,0,1-72,72.28m0-134.21A61.93,61.93,0,1,0,171.69,110,61.88,61.88,0,0,0,110,48.07" transform="translate(0 0)"/><path class="cls-4" d="M171,110a61,61,0,1,1-61-61.2A61.09,61.09,0,0,1,171,110" transform="translate(0 0)"/><path class="cls-5" d="M47.54,44.82a2.9,2.9,0,0,1,1,2.31,3.92,3.92,0,0,1-1.19,2.53L44.21,53l-7.9-7.46,2.94-3.12c1.49-1.58,3.32-1.79,4.71-.48a2.59,2.59,0,0,1,.87,2.21,2.66,2.66,0,0,1,2.71.68M40,45.21l1.24,1.18,1-1a.81.81,0,0,0,0-1.23.84.84,0,0,0-1.23.05ZM45.49,48a.92.92,0,1,0-1.33-1.26L43,48l1.33,1.25Z" transform="translate(0 0)"/><path class="cls-5" d="M56.86,41.11l-3.68-1.54-.77.62,2.2,2.73-2.17,1.74-6.8-8.47L49,33.47a3.87,3.87,0,0,1,2.84-.9A3.47,3.47,0,0,1,54.43,34a3.55,3.55,0,0,1,.49,3.56l4.26,1.74Zm-7.45-4.66,1.52,1.9,1.2-1a1.13,1.13,0,0,0,.15-1.68,1.15,1.15,0,0,0-1.68-.22Z" transform="translate(0 0)"/><path class="cls-5" d="M66.41,35a5.54,5.54,0,0,1-4.32.62,5.75,5.75,0,0,1-4-7A5.71,5.71,0,1,1,66.41,35m-1.36-2.35a2.85,2.85,0,0,0,1.06-4A2.94,2.94,0,1,0,61,31.57a2.84,2.84,0,0,0,4,1.08" transform="translate(0 0)"/><polygon class="cls-5" points="76.15 18.2 78.73 17.2 82.64 27.34 80.64 28.11 75.1 24.4 77.07 29.49 74.47 30.49 70.56 20.36 72.57 19.58 78.12 23.3 76.15 18.2"/><polygon class="cls-5" points="89.13 22.81 92.98 21.89 93.61 24.5 86.25 26.26 85.76 24.18 88.08 17.41 84.43 18.29 83.8 15.68 90.96 13.96 91.45 16.05 89.13 22.81"/><polygon class="cls-5" points="99.66 20.93 103.38 20.5 103.69 23.17 97.21 23.92 95.96 13.13 98.72 12.81 99.66 20.93"/><path class="cls-5" d="M114,23.08l-.43-1.58L110,21.43l-.5,1.56-3-.06,3.81-10.79,3.38.06L117,23.14Zm-3.29-4,2.19.05-1-3.72Z" transform="translate(0 0)"/><path class="cls-5" d="M124.8,24.42l-.09.57a1.21,1.21,0,0,1,.7,1.32c-.18,1.15-1.45,1.45-3.82.93l.26-1.67c1,.23,1.46.23,1.49,0s-.23-.31-.76-.44l.16-1a4.11,4.11,0,0,1-3-3.15l2.56-1a2.15,2.15,0,0,0,1.89,1.76c.85.14,1.3,0,1.38-.52,0-.32-.16-.6-.6-.88-.19-.11-.63-.32-1.29-.63-1.87-.87-2.94-2-2.65-3.86a3.06,3.06,0,0,1,1.44-2.24,4,4,0,0,1,2.81-.49,4.24,4.24,0,0,1,3.6,3.08l-2.52,1a1.75,1.75,0,0,0-1.48-1.47c-.66-.1-1,.14-1.11.55s.27.8,1.66,1.46a10.27,10.27,0,0,1,1.19.63,5.72,5.72,0,0,1,1,.75,2.63,2.63,0,0,1,.74,2.52,3.26,3.26,0,0,1-3.49,2.79" transform="translate(0 0)"/><polygon class="cls-5" points="141.1 17.16 140.35 19.73 137.78 18.98 135.49 26.84 132.83 26.07 135.11 18.21 132.53 17.46 133.28 14.88 141.1 17.16"/><rect class="cls-5" x="139.29" y="22.99" width="10.86" height="2.78" transform="translate(67.64 149.26) rotate(-67.88)"/><path class="cls-5" d="M152.83,34.3v-4l-.88-.47-1.66,3.09-2.45-1.32L153,22.05l3.82,2.07a3.88,3.88,0,0,1,1.94,2.26,3.61,3.61,0,0,1-3.38,4.74l.06,4.6Zm1.4-8.68-1.15,2.15,1.35.73A1.12,1.12,0,0,0,156,28a1.16,1.16,0,0,0-.44-1.64Z" transform="translate(0 0)"/><rect class="cls-5" x="157.13" y="32.63" width="10.87" height="2.78" transform="translate(42.13 148.38) rotate(-55.34)"/><path class="cls-5" d="M165.82,41.44a5.55,5.55,0,0,1,1.49-4.1,5.67,5.67,0,0,1,9.58,1.83,5.24,5.24,0,0,1,.24,2.71l-2.72-.55a2.59,2.59,0,0,0-.9-2.46,2.87,2.87,0,0,0-2.13-.77,2.83,2.83,0,0,0-2,1.07,3,3,0,0,0-.83,2.13,2.88,2.88,0,0,0,1,2,2.54,2.54,0,0,0,2.56.58l.88,2.63a5.38,5.38,0,0,1-5.23-1.17,5.58,5.58,0,0,1-2-3.9" transform="translate(0 0)"/><rect class="cls-5" x="173.34" y="46.89" width="10.87" height="2.78" transform="translate(13.5 131.79) rotate(-41.92)"/><path class="cls-5" d="M21.11,144.72l2.22,1.62a2.14,2.14,0,0,0-.45,2.54c.34.78.74,1.07,1.18.87s.42-.46.41-1c0-.22-.07-.7-.17-1.42-.27-2,.1-3.57,1.81-4.33a3.1,3.1,0,0,1,2.66,0,4,4,0,0,1,1.94,2.09,4.22,4.22,0,0,1-.64,4.7l-2.19-1.58a1.75,1.75,0,0,0,.43-2c-.27-.61-.68-.8-1.06-.63s-.53.65-.33,2.18c.07.55.11,1,.12,1.34a6.15,6.15,0,0,1-.12,1.2,2.62,2.62,0,0,1-1.71,2,3,3,0,0,1-2.75,0,4.65,4.65,0,0,1-2-2.37c-.93-2.1-.6-3.93.68-5.16" transform="translate(0 0)"/><polygon class="cls-5" points="28.25 158.82 30.43 162.42 28.2 163.77 24.59 157.79 33.88 152.17 37.46 158.08 35.24 159.43 33.1 155.89 31.82 156.67 33.75 159.87 31.56 161.2 29.62 158 28.25 158.82"/><polygon class="cls-5" points="34.95 168.47 37.26 171.41 35.14 173.07 31.13 167.93 39.68 161.24 41.4 163.43 34.95 168.47"/><polygon class="cls-5" points="48.82 175.59 46.07 172.83 44.82 174.07 47.51 176.78 45.6 178.68 42.91 175.97 40.27 178.59 38.31 176.62 46.02 168.96 50.73 173.7 48.82 175.59"/><rect class="cls-5" x="52.01" y="179.72" width="2.45" height="8.23" transform="translate(-124.98 114.07) rotate(-52.47)"/><polygon class="cls-5" points="69.52 187.03 68.16 189.35 65.84 187.99 61.7 195.05 59.3 193.64 63.44 186.59 61.13 185.22 62.49 182.91 69.52 187.03"/><path class="cls-5" d="M73.7,200.84l.19-1.62-3.33-1.42-1,1.26-2.77-1.19,7.57-8.58,3.11,1.33-1,11.4Zm-1.54-5,2,.86.44-3.83Z" transform="translate(0 0)"/><polygon class="cls-5" points="89.49 194.51 92.17 195.21 89.4 205.72 87.33 205.17 85.01 198.91 83.62 204.2 80.93 203.49 83.7 192.99 85.79 193.53 88.1 199.79 89.49 194.51"/><polygon class="cls-5" points="102.09 196.61 104.84 196.91 103.65 207.71 101.52 207.47 98.31 201.63 97.71 207.06 94.95 206.75 96.13 195.95 98.28 196.19 101.49 202.04 102.09 196.61"/><rect class="cls-5" x="109.07" y="196.95" width="2.78" height="10.87" transform="translate(-1.16 0.64) rotate(-0.33)"/><polygon class="cls-5" points="121.96 196.13 124.7 195.79 126.01 206.58 123.89 206.84 119.42 201.88 120.08 207.3 117.32 207.64 116.01 196.85 118.15 196.59 122.62 201.55 121.96 196.13"/><path class="cls-5" d="M140.29,196.61l.3,1.06a5.21,5.21,0,0,1-.4,4.14,5.26,5.26,0,0,1-3.33,2.47,5.72,5.72,0,0,1-4.48-.43,5.78,5.78,0,0,1-2.18-7.75,5.41,5.41,0,0,1,3.43-2.68,5.8,5.8,0,0,1,2.86-.1,5.11,5.11,0,0,1,2.41,1.21L137,196.47a2.77,2.77,0,0,0-2.59-.45,2.87,2.87,0,0,0-1.8,1.38,3.22,3.22,0,0,0,1.14,4.12,3,3,0,0,0,2.45.21,2.43,2.43,0,0,0,2-2l-2.54.71-.64-2.3Z" transform="translate(0 0)"/><polygon class="cls-5" points="154.38 194.15 157.69 192.4 158.95 194.78 153.18 197.82 148.11 188.21 150.57 186.92 154.38 194.15"/><path class="cls-5" d="M167.11,189.72a5.53,5.53,0,0,1-4.25,1,5.7,5.7,0,1,1,6.58-4.7,5.53,5.53,0,0,1-2.33,3.67m-1.59-2.21a2.83,2.83,0,0,0,.67-4.1,2.78,2.78,0,0,0-1.91-1.23,2.93,2.93,0,0,0-2.86,4.64,2.84,2.84,0,0,0,4.1.69" transform="translate(0 0)"/><polygon class="cls-5" points="172.95 170.13 174.8 172.07 172.86 173.93 178.5 179.85 176.49 181.76 170.85 175.85 168.9 177.7 167.05 175.76 172.95 170.13"/><rect class="cls-5" x="178.93" y="164.49" width="2.78" height="10.86" transform="translate(-65.94 197.17) rotate(-49.61)"/><path class="cls-5" d="M191.93,163.85a5.52,5.52,0,0,1-3.58,2.49,5.76,5.76,0,0,1-6.74-4.42,5.51,5.51,0,0,1,.85-4.29,5.65,5.65,0,0,1,7.87-1.65,5.61,5.61,0,0,1,1.6,7.87m-2.27-1.49a2.83,2.83,0,0,0-.85-4.07,2.93,2.93,0,1,0-3.22,4.9,2.87,2.87,0,0,0,2.23.47,2.9,2.9,0,0,0,1.84-1.3" transform="translate(0 0)"/><polygon class="cls-5" points="189.89 144.36 191.03 141.84 200.93 146.33 200.04 148.28 193.49 149.52 198.46 151.78 197.31 154.31 187.42 149.82 188.31 147.85 194.87 146.62 189.89 144.36"/><path class="cls-5" d="M206.76,110.41a7.17,7.17,0,1,1-7.17-7.16,7.16,7.16,0,0,1,7.17,7.16" transform="translate(0 0)"/><path class="cls-5" d="M27.25,110.41a7.16,7.16,0,1,1-7.16-7.16,7.15,7.15,0,0,1,7.16,7.16" transform="translate(0 0)"/><path class="cls-6" d="M110,84.74A25.28,25.28,0,1,0,135.28,110,25.32,25.32,0,0,0,110,84.74" transform="translate(0 0)"/><path class="cls-3" d="M110,140.89a2.81,2.81,0,0,0-2.77,2.84v5.62c0,3.75,5.62,3.75,5.62,0v-5.62a2.81,2.81,0,0,0-2.85-2.84" transform="translate(0 0)"/><path class="cls-3" d="M110,67.84a2.81,2.81,0,0,0-2.77,2.85v5.62c0,3.74,5.62,3.74,5.62,0V70.69A2.81,2.81,0,0,0,110,67.84" transform="translate(0 0)"/><path class="cls-3" d="M70.67,107.21c-3.75,0-3.75,5.62,0,5.62h5.62c3.74,0,3.74-5.62,0-5.62Z" transform="translate(0 0)"/><path class="cls-3" d="M143.71,107.21c-3.74,0-3.74,5.62,0,5.62h5.62c3.75,0,3.75-5.62,0-5.62Z" transform="translate(0 0)"/><path class="cls-3" d="M86.11,131a2.8,2.8,0,0,0-1.94.85l-4,4c-2.83,2.65,1.32,6.8,4,4l4-4a2.81,2.81,0,0,0-2-4.83" transform="translate(0 0)"/><path class="cls-3" d="M137.76,79.37a2.8,2.8,0,0,0-1.94.85l-4,4c-2.82,2.65,1.32,6.79,4,4l4-4a2.81,2.81,0,0,0-2-4.83" transform="translate(0 0)"/><path class="cls-3" d="M82.16,79.37a2.8,2.8,0,0,0-2,4.83l4,4c2.65,2.66,6.63-1.31,4-4l-4-4a2.79,2.79,0,0,0-2-.85" transform="translate(0 0)"/><path class="cls-3" d="M133.81,131a2.81,2.81,0,0,0-2,4.83l4,4c2.65,2.66,6.63-1.31,4-4l-4-4a2.81,2.81,0,0,0-2-.85" transform="translate(0 0)"/></g></g></g></g></svg>