<svg xmlns="http://www.w3.org/2000/svg" viewBox="0 0 220 220"><defs><style>.cls-1,.cls-4{fill:#8a4414;}.cls-2{fill:#fff;}.cls-3{fill:#f6f6f6;}.cls-4{fill-rule:evenodd;}</style></defs><title>Asset 20</title><g id="Layer_2" data-name="Layer 2"><g id="Layer_1-2" data-name="Layer 1"><path class="cls-1" d="M220,110A110,110,0,1,1,110,0,110,110,0,0,1,220,110"/><path class="cls-2" d="M110,216.18a106.2,106.2,0,0,1-41.33-204,106.2,106.2,0,0,1,82.66,195.66A105.48,105.48,0,0,1,110,216.18ZM110,5.7A104.33,104.33,0,0,0,69.4,206.1,104.32,104.32,0,0,0,150.6,13.9,103.64,103.64,0,0,0,110,5.7Z"/><path class="cls-2" d="M110,182.28A72.28,72.28,0,1,1,182,110,72.25,72.25,0,0,1,110,182.28Zm0-134.21A61.93,61.93,0,1,0,171.69,110,61.88,61.88,0,0,0,110,48.07Z"/><ellipse class="cls-2" cx="110" cy="110" rx="60.98" ry="61.2"/><path class="cls-3" d="M47.54,44.82a2.87,2.87,0,0,1,1,2.31,3.92,3.92,0,0,1-1.19,2.53L44.21,53l-7.9-7.46,2.94-3.12c1.49-1.58,3.32-1.79,4.71-.48a2.58,2.58,0,0,1,.87,2.21A2.65,2.65,0,0,1,47.54,44.82ZM40,45.21l1.24,1.18,1-1a.81.81,0,0,0,0-1.23.83.83,0,0,0-1.23.05ZM45.49,48a.92.92,0,1,0-1.33-1.26L43,48l1.33,1.25Z"/><path class="cls-3" d="M56.86,41.11l-3.68-1.54-.77.62,2.2,2.73-2.17,1.74-6.8-8.47L49,33.47a3.87,3.87,0,0,1,2.84-.9A3.47,3.47,0,0,1,54.43,34a3.55,3.55,0,0,1,.49,3.56l4.26,1.74Zm-7.45-4.66,1.52,1.9,1.2-1a1.13,1.13,0,0,0,.15-1.68,1.15,1.15,0,0,0-1.68-.22Z"/><path class="cls-3" d="M66.41,35a5.54,5.54,0,0,1-4.32.62,5.75,5.75,0,0,1-4-7A5.7,5.7,0,0,1,68.5,27.24,5.64,5.64,0,0,1,66.41,35Zm-1.36-2.35a2.85,2.85,0,0,0,1.06-4A2.94,2.94,0,1,0,61,31.57a2.84,2.84,0,0,0,4,1.08Z"/><path class="cls-3" d="M76.15,18.2l2.58-1,3.91,10.14-2,.77L75.1,24.4l2,5.09-2.6,1L70.56,20.36l2-.78,5.55,3.72Z"/><path class="cls-3" d="M89.13,22.81,93,21.89l.63,2.61-7.36,1.76-.49-2.08,2.32-6.77-3.65.88-.63-2.61L91,14l.5,2.09Z"/><path class="cls-3" d="M99.66,20.93l3.72-.43.31,2.67-6.48.75L96,13.13l2.76-.32Z"/><path class="cls-3" d="M114,23.08l-.43-1.58L110,21.43l-.5,1.56-3-.06,3.81-10.79,3.38.06L117,23.14Zm-3.29-4,2.19.05-1-3.72Z"/><path class="cls-3" d="M124.8,24.42l-.09.57a1.21,1.21,0,0,1,.7,1.32c-.18,1.15-1.45,1.45-3.82.93l.26-1.67c1,.23,1.46.23,1.49,0s-.23-.31-.76-.44l.16-1a4.11,4.11,0,0,1-3-3.15l2.57-1a2.13,2.13,0,0,0,1.88,1.76c.85.14,1.3,0,1.38-.52,0-.32-.16-.6-.6-.88-.19-.11-.63-.32-1.29-.62-1.87-.88-2.94-2-2.65-3.87a3.06,3.06,0,0,1,1.44-2.24,4,4,0,0,1,2.81-.49,4.24,4.24,0,0,1,3.6,3.08l-2.52,1a1.76,1.76,0,0,0-1.48-1.47c-.66-.1-1,.14-1.11.55s.27.8,1.66,1.46a10.27,10.27,0,0,1,1.19.63,5.72,5.72,0,0,1,1,.75,2.66,2.66,0,0,1,.75,2.52A3.27,3.27,0,0,1,124.8,24.42Z"/><path class="cls-3" d="M141.1,17.16l-.75,2.57L137.78,19l-2.29,7.85-2.66-.77,2.28-7.86-2.58-.75.75-2.58Z"/><path class="cls-3" d="M145.48,18.82l2.57,1.05L144,29.93l-2.57-1Z"/><path class="cls-3" d="M152.83,34.3v-4l-.88-.47-1.66,3.09-2.45-1.32L153,22.05l3.82,2.07a3.88,3.88,0,0,1,1.94,2.26,3.61,3.61,0,0,1-3.38,4.74l.06,4.6Zm1.4-8.68-1.16,2.15,1.36.73A1.12,1.12,0,0,0,156,28a1.16,1.16,0,0,0-.44-1.64Z"/><path class="cls-3" d="M164.51,28.76l2.29,1.58-6.18,8.94-2.29-1.58Z"/><path class="cls-3" d="M165.82,41.44a5.55,5.55,0,0,1,1.49-4.1,5.67,5.67,0,0,1,9.58,1.83,5.24,5.24,0,0,1,.24,2.71l-2.72-.56a2.59,2.59,0,0,0-.9-2.45,2.92,2.92,0,0,0-2.13-.78,2.88,2.88,0,0,0-2,1.08,3,3,0,0,0-.83,2.13,2.88,2.88,0,0,0,1,2,2.51,2.51,0,0,0,2.56.57l.88,2.64a5.38,5.38,0,0,1-5.23-1.17A5.58,5.58,0,0,1,165.82,41.44Z"/><path class="cls-3" d="M181.88,43.61l1.86,2.07-8.08,7.26-1.86-2.07Z"/><path class="cls-3" d="M21.11,144.72l2.22,1.62a2.14,2.14,0,0,0-.45,2.54c.34.78.74,1.07,1.18.87s.42-.46.41-1c0-.22-.07-.7-.17-1.42-.27-2,.1-3.57,1.81-4.33a3.1,3.1,0,0,1,2.66,0,4,4,0,0,1,1.95,2.09,4.24,4.24,0,0,1-.65,4.7l-2.19-1.58a1.75,1.75,0,0,0,.43-2c-.27-.61-.68-.8-1.06-.63s-.53.66-.33,2.18c.07.55.11,1,.12,1.34a6.15,6.15,0,0,1-.12,1.2,2.62,2.62,0,0,1-1.71,2,3,3,0,0,1-2.74,0,4.62,4.62,0,0,1-2-2.37C19.5,147.78,19.83,146,21.11,144.72Z"/><path class="cls-3" d="M28.26,158.82l2.17,3.6-2.23,1.35-3.61-6,9.3-5.62,3.57,5.91-2.22,1.34-2.14-3.53-1.28.78,1.93,3.2-2.19,1.33L29.62,158Z"/><path class="cls-3" d="M35,168.47l2.31,2.94-2.12,1.66-4-5.14,8.56-6.69,1.71,2.19Z"/><path class="cls-3" d="M48.82,175.59l-2.75-2.76-1.25,1.24,2.69,2.71-1.91,1.9L42.91,176l-2.64,2.62-2-2L46,169l4.71,4.74Z"/><path class="cls-3" d="M49.23,182.3l1.49-2,6.53,5-1.5,1.95Z"/><path class="cls-3" d="M69.52,187l-1.36,2.31L65.84,188l-4.14,7.06-2.4-1.41,4.14-7-2.31-1.36,1.36-2.32Z"/><path class="cls-3" d="M73.7,200.84l.19-1.62-3.33-1.42-1,1.26-2.77-1.19,7.57-8.58,3.11,1.33-1,11.4Zm-1.54-5,2,.86.44-3.83Z"/><path class="cls-3" d="M89.49,194.51l2.68.7L89.4,205.72l-2.07-.55L85,198.92l-1.39,5.28-2.69-.71L83.7,193l2.09.54,2.31,6.26Z"/><path class="cls-3" d="M102.09,196.61l2.75.3-1.19,10.8-2.13-.23-3.21-5.85-.6,5.43L95,206.75,96.13,196l2.15.24,3.21,5.85Z"/><path class="cls-3" d="M109,197l2.78,0,.06,10.87H109.1Z"/><path class="cls-3" d="M122,196.13l2.74-.34L126,206.58l-2.12.26-4.47-5,.66,5.42-2.76.34L116,196.85l2.14-.26,4.47,5Z"/><path class="cls-3" d="M140.29,196.61l.3,1.06a5.21,5.21,0,0,1-.4,4.14,5.26,5.26,0,0,1-3.33,2.47,5.72,5.72,0,0,1-4.48-.43,5.78,5.78,0,0,1-2.18-7.75,5.38,5.38,0,0,1,3.43-2.68,5.8,5.8,0,0,1,2.86-.1,5.11,5.11,0,0,1,2.41,1.21L137,196.47a2.77,2.77,0,0,0-2.59-.45,2.87,2.87,0,0,0-1.8,1.38,3,3,0,0,0-.22,2.29,3,3,0,0,0,1.36,1.83,3,3,0,0,0,2.45.21,2.43,2.43,0,0,0,2-2l-2.54.71-.64-2.3Z"/><path class="cls-3" d="M154.39,194.15l3.3-1.75,1.26,2.38-5.77,3-5.07-9.61,2.46-1.29Z"/><path class="cls-3" d="M167.11,189.72a5.53,5.53,0,0,1-4.25,1,5.74,5.74,0,0,1-4.69-6.55,5.53,5.53,0,0,1,2.34-3.69,5.65,5.65,0,0,1,7.93,1.29,5.62,5.62,0,0,1-1.33,7.92Zm-1.59-2.21a2.83,2.83,0,0,0,.67-4.1,2.78,2.78,0,0,0-1.91-1.23,2.93,2.93,0,0,0-2.86,4.64,2.84,2.84,0,0,0,4.1.69Z"/><path class="cls-3" d="M173,170.13l1.85,1.94-1.94,1.86,5.64,5.92-2,1.92-5.64-5.92-1.95,1.85-1.85-1.94Z"/><path class="cls-3" d="M175.28,167.46l1.8-2.12,8.27,7-1.8,2.12Z"/><path class="cls-3" d="M191.93,163.85a5.52,5.52,0,0,1-3.58,2.49,5.44,5.44,0,0,1-4.28-.84,5.39,5.39,0,0,1-2.46-3.58,5.51,5.51,0,0,1,.85-4.29,5.45,5.45,0,0,1,3.59-2.47,5.38,5.38,0,0,1,4.27.82,5.6,5.6,0,0,1,1.61,7.87Zm-2.27-1.49a2.83,2.83,0,0,0-.85-4.07,2.93,2.93,0,1,0-3.22,4.9,2.87,2.87,0,0,0,2.23.47A2.9,2.9,0,0,0,189.66,162.36Z"/><path class="cls-3" d="M189.89,144.36l1.14-2.51,9.9,4.48-.89,1.95-6.55,1.24,5,2.26-1.15,2.53-9.89-4.49.89-2,6.56-1.23Z"/><circle class="cls-3" cx="199.59" cy="110.41" r="7.16"/><circle class="cls-3" cx="20.09" cy="110.41" r="7.16"/><path class="cls-4" d="M110,84.74A25.28,25.28,0,1,0,135.28,110,25.32,25.32,0,0,0,110,84.74Z"/><path class="cls-1" d="M110,140.89a2.81,2.81,0,0,0-2.77,2.84v5.62c0,3.75,5.62,3.75,5.62,0v-5.62A2.81,2.81,0,0,0,110,140.89Z"/><path class="cls-1" d="M110,67.84a2.81,2.81,0,0,0-2.77,2.85v5.62c0,3.75,5.62,3.75,5.62,0V70.69A2.81,2.81,0,0,0,110,67.84Z"/><path class="cls-1" d="M70.67,107.21c-3.75,0-3.75,5.62,0,5.62h5.62c3.74,0,3.74-5.62,0-5.62Z"/><path class="cls-1" d="M143.71,107.21c-3.74,0-3.74,5.62,0,5.62h5.62c3.75,0,3.75-5.62,0-5.62Z"/><path class="cls-1" d="M86.11,131a2.84,2.84,0,0,0-1.94.85l-4,4c-2.83,2.65,1.32,6.8,4,4l4-4A2.81,2.81,0,0,0,86.11,131Z"/><path class="cls-1" d="M137.76,79.37a2.8,2.8,0,0,0-1.94.85l-4,4c-2.82,2.65,1.32,6.79,4,4l4-4A2.81,2.81,0,0,0,137.76,79.37Z"/><path class="cls-1" d="M82.16,79.37a2.8,2.8,0,0,0-2,4.83l4,4c2.65,2.66,6.63-1.31,4-4l-4-4A2.79,2.79,0,0,0,82.16,79.37Z"/><path class="cls-1" d="M133.81,131a2.81,2.81,0,0,0-2,4.83l4,4c2.65,2.66,6.63-1.31,4-4l-4-4A2.81,2.81,0,0,0,133.81,131Z"/></g></g></svg>