<svg xmlns="http://www.w3.org/2000/svg" viewBox="0 0 220 220"><defs><style>.cls-1{fill:#22b1e8;}.cls-2{fill:#fff;}.cls-3{fill:#f6f6f6;}</style></defs><title>Asset 12</title><g id="Layer_2" data-name="Layer 2"><g id="Layer_1-2" data-name="Layer 1"><path class="cls-1" d="M220,110A110,110,0,1,1,110,0,110,110,0,0,1,220,110"/><path class="cls-2" d="M110,216.18a106.2,106.2,0,0,1-41.33-204,106.2,106.2,0,0,1,82.66,195.66A105.48,105.48,0,0,1,110,216.18ZM110,5.7A104.33,104.33,0,0,0,69.4,206.1,104.32,104.32,0,0,0,150.6,13.9,103.64,103.64,0,0,0,110,5.7Z"/><path class="cls-2" d="M110,182.28A72.28,72.28,0,1,1,182,110,72.25,72.25,0,0,1,110,182.28Zm0-134.21A61.93,61.93,0,1,0,171.69,110,61.88,61.88,0,0,0,110,48.07Z"/><ellipse class="cls-2" cx="110" cy="110" rx="60.98" ry="61.2"/><path class="cls-3" d="M96.4,13.11a5,5,0,0,1,3.94,1,5.32,5.32,0,0,1,2,3.61,5.33,5.33,0,0,1-1,4.06,5,5,0,0,1-3.5,2.05l-4.39.61L92,13.72Zm1.13,8.1a2.4,2.4,0,0,0,1.72-1,2.75,2.75,0,0,0,.43-2.08,2.68,2.68,0,0,0-1-1.87,2.41,2.41,0,0,0-1.93-.5L95.22,16,96,21.43Z"/><path class="cls-3" d="M106.67,12.11l2.77,0-.06,7c0,.92.5,1.37,1.5,1.38s1.53-.43,1.54-1.35l.07-7,2.77,0-.07,7.29A3.47,3.47,0,0,1,114,22.24a4.53,4.53,0,0,1-3.1,1,4.58,4.58,0,0,1-3.1-1.07,3.5,3.5,0,0,1-1.16-2.77Z"/><path class="cls-3" d="M124,24.29l-.09.57a1.21,1.21,0,0,1,.72,1.31c-.17,1.15-1.44,1.46-3.82,1l.25-1.67c1,.22,1.46.21,1.49,0s-.24-.3-.77-.43l.16-1a4.07,4.07,0,0,1-3-3.12l2.55-1a2.17,2.17,0,0,0,1.9,1.75c.85.12,1.3-.06,1.37-.54,0-.32-.16-.6-.61-.87-.18-.11-.62-.32-1.29-.62-1.88-.86-3-2-2.69-3.84a3.06,3.06,0,0,1,1.42-2.25,4,4,0,0,1,2.81-.52A4.21,4.21,0,0,1,128,16l-2.51,1A1.75,1.75,0,0,0,124,15.59c-.66-.1-1,.14-1.11.56s.28.79,1.67,1.44a10.69,10.69,0,0,1,1.2.62,6.06,6.06,0,0,1,1,.73,2.65,2.65,0,0,1,.77,2.52A3.26,3.26,0,0,1,124,24.29Z"/><path class="cls-3" d="M70.29,196.79l2.72-.38a2.15,2.15,0,0,0,1.44,2.14c.79.32,1.27.25,1.45-.2.12-.3,0-.62-.38-1-.16-.15-.54-.45-1.11-.9-1.63-1.28-2.41-2.64-1.71-4.37a3.05,3.05,0,0,1,1.9-1.85,4.06,4.06,0,0,1,2.86.15,4.22,4.22,0,0,1,2.8,3.82l-2.67.39a1.74,1.74,0,0,0-1.11-1.76c-.62-.25-1-.11-1.2.28s.08.84,1.28,1.8a12.1,12.1,0,0,1,1,.88,6.7,6.7,0,0,1,.75.94,2.65,2.65,0,0,1,.16,2.63,3,3,0,0,1-2,1.89,4.69,4.69,0,0,1-3.12-.3C71.25,200.1,70.22,198.56,70.29,196.79Z"/><path class="cls-3" d="M90.25,194.71l2.68.68-2.66,10.53-2.68-.67,1-4.05-3-.75-1,4.05-2.7-.68,2.66-10.53,2.69.67-1,3.9,3,.75Z"/><path class="cls-3" d="M101.11,207.66a5.59,5.59,0,0,1-5.17-6.15A5.72,5.72,0,0,1,106,198.38a5.39,5.39,0,0,1,1.29,4.15,5.62,5.62,0,0,1-6.18,5.13Zm.24-2.7a2.85,2.85,0,0,0,3.19-2.68,2.79,2.79,0,0,0-.65-2.17,3,3,0,0,0-4.17-.38,2.79,2.79,0,0,0-1,2,2.86,2.86,0,0,0,.64,2.19A2.93,2.93,0,0,0,101.35,205Z"/><path class="cls-3" d="M113.9,207.86l-4-10.56,3-.26,2.28,6.67,1.33-7,2.18-.19,2.54,6.64,1.08-7,3-.27L123.21,207l-2.92.26L118,201.34l-1.19,6.26Z"/><path class="cls-3" d="M133.09,202.36l4.08-1,.64,2.53-6.76,1.73-2.7-10.53,6.69-1.71.65,2.51-4,1,.37,1.46,3.62-.93.64,2.48-3.62.93Z"/><path class="cls-3" d="M148,200.17l-3.06-2.56L144,198l1.3,3.26-2.58,1-4-10.09,4-1.61a3.85,3.85,0,0,1,3,0,3.61,3.61,0,0,1,1.48,5.63l3.57,2.9Zm-5.76-6.64.9,2.26,1.43-.57a1.22,1.22,0,0,0-.9-2.26Z"/><circle class="cls-3" cx="198.35" cy="110" r="7.16"/><circle class="cls-3" cx="21.65" cy="110" r="7.16"/><path class="cls-1" d="M82.49,76a2.84,2.84,0,0,0-3.82,1.31h0l-2.72,5.6A2.85,2.85,0,1,0,81,85.53a.41.41,0,0,0,0-.09l2.73-5.6A2.86,2.86,0,0,0,82.49,76Z"/><path class="cls-1" d="M102.53,76a2.85,2.85,0,0,0-3.82,1.31h0L96,82.93a2.86,2.86,0,1,0,5.09,2.6l.05-.09,2.73-5.6A2.85,2.85,0,0,0,102.56,76Z"/><path class="cls-1" d="M122.58,76a2.84,2.84,0,0,0-3.82,1.31h0L116,82.93a2.86,2.86,0,1,0,5.09,2.6l0-.09,2.73-5.6A2.84,2.84,0,0,0,122.6,76Z"/><path class="cls-1" d="M142.62,76a2.84,2.84,0,0,0-3.81,1.31h0l-2.73,5.6a2.86,2.86,0,1,0,5.09,2.6l.05-.09,2.73-5.6A2.84,2.84,0,0,0,142.65,76Z"/><path class="cls-1" d="M92.51,95.11a2.85,2.85,0,0,0-3.82,1.31h0L86,102a2.86,2.86,0,0,0,5.14,2.51l2.73-5.6a2.87,2.87,0,0,0-1.31-3.82Z"/><path class="cls-1" d="M112.56,95.11a2.85,2.85,0,0,0-3.82,1.31h0L106,102a2.86,2.86,0,0,0,5.14,2.51l2.73-5.6a2.84,2.84,0,0,0-1.29-3.81Z"/><path class="cls-1" d="M132.6,95.11a2.86,2.86,0,0,0-3.82,1.31h0L126.05,102a2.86,2.86,0,0,0,5.09,2.61s0-.07.05-.1l2.73-5.6a2.85,2.85,0,0,0-1.29-3.81Z"/><path class="cls-1" d="M82.49,114.2a2.86,2.86,0,0,0-3.82,1.31h0l-2.72,5.6a2.85,2.85,0,0,0,5.13,2.5L83.8,118A2.88,2.88,0,0,0,82.49,114.2Z"/><path class="cls-1" d="M102.53,114.2a2.87,2.87,0,0,0-3.82,1.31h0L96,121.12a2.86,2.86,0,0,0,5.14,2.5l2.73-5.59a2.85,2.85,0,0,0-1.29-3.81Z"/><path class="cls-1" d="M122.58,114.2a2.86,2.86,0,0,0-3.82,1.31h0l-2.73,5.6a2.85,2.85,0,0,0,5.13,2.5l2.73-5.59a2.84,2.84,0,0,0-1.29-3.81Z"/><path class="cls-1" d="M142.62,114.2a2.85,2.85,0,0,0-3.81,1.31h0l-2.73,5.6a2.86,2.86,0,0,0,5.14,2.5l2.73-5.59a2.84,2.84,0,0,0-1.29-3.81Z"/><path class="cls-1" d="M92.51,133.3a2.84,2.84,0,0,0-3.82,1.31h0L86,140.21a2.86,2.86,0,0,0,5.14,2.51l2.73-5.6a2.86,2.86,0,0,0-1.31-3.82Z"/><path class="cls-1" d="M112.56,133.3a2.84,2.84,0,0,0-3.82,1.31h0l-2.73,5.6a2.86,2.86,0,0,0,5.14,2.51l2.73-5.6a2.84,2.84,0,0,0-1.29-3.81Z"/><path class="cls-1" d="M132.6,133.3a2.85,2.85,0,0,0-3.82,1.31h0l-2.73,5.6a2.86,2.86,0,0,0,5.14,2.51l2.73-5.6a2.85,2.85,0,0,0-1.29-3.81Z"/></g></g></svg>