<svg xmlns="http://www.w3.org/2000/svg" viewBox="0 0 172.07 377.06"><defs><style>.cls-1,.cls-2{fill:#009fe3;}.cls-2{stroke:#f6f6f6;stroke-miterlimit:10;}</style></defs><title>Asset 1</title><g id="Layer_2" data-name="Layer 2"><g id="Layer_1-2" data-name="Layer 1"><path class="cls-1" d="M109.06,68.8C97,67.71,84.85,67.05,72.67,67c-12.18.1-24.36.76-36.39,1.85C12.26,71,0,86.66,0,110.64Q0,155.34.08,200c.05,11.57,3.6,16.21,11.94,16.64,9.85.52,14.92-4.17,15-14.5.14-24.22.05-48.43.09-72.69v-6.06A4.18,4.18,0,0,1,32,119.22c2.33.42,2.94,2.65,2.9,6.06-.19,16.44,0,32.84,0,49.28q0,89.41,0,178.78a38.68,38.68,0,0,0,.66,9.09C37.61,371,44,376.32,52,376.55c8.34.29,15.17-4.88,17.44-13.83a42.84,42.84,0,0,0,1-10.71q.07-62.68,0-125.28v-7.49a3.22,3.22,0,0,1,2.23-3.08h0a3.26,3.26,0,0,1,2.23,3.08v7.49q0,62.61,0,125.28a42.39,42.39,0,0,0,1,10.71c2.32,8.95,9.1,14.12,17.44,13.83,8-.28,14.35-5.54,16.39-14.12a38.84,38.84,0,0,0,.66-9.09q.07-89.41,0-178.78c0-16.44.1-32.84,0-49.28,0-3.41.57-5.64,2.89-6.06a4.18,4.18,0,0,1,4.88,4.17v6.06c0,24.21-.09,48.47.1,72.69,0,10.33,5.12,15,15,14.5,8.34-.43,11.89-5.07,11.94-16.64.14-29.8.09-59.6.05-89.36C145.31,86.66,133.13,71,109.06,68.8Z"/><circle class="cls-1" cx="72.67" cy="29.8" r="29.8"/><path class="cls-2" d="M169.76,282l-27.18-41.41a5.84,5.84,0,0,0-1.75-1.75l-1.5-.75a3.13,3.13,0,0,0-1.49-.25h-7.49c.5-.24,1.25-.74,1.75-1,.25,0,.25-.25.5-.25.5-.25.75-.5,1.25-.75.24-.25.49-.25.74-.5s.75-.5,1-.75.5-.25.75-.5l.75-.75c.25-.24.5-.49.75-.49l.74-.75c.25-.25.5-.5.5-.75l.75-.75c.25-.25.25-.5.5-.75a3.45,3.45,0,0,0,.75-1c.25-.24.25-.49.5-.74a1.9,1.9,0,0,0,.5-1c.25-.25.25-.5.5-.75s.25-.75.49-1,.25-.5.5-.75c.25-.49.25-.74.5-1.24,0-.25.25-.5.25-.75.25-.5.25-1,.5-1.25a.87.87,0,0,1,.25-.5c.25-.75.25-1.24.5-2v-.25a4.25,4.25,0,0,0,.25-1.75v-.75a3.13,3.13,0,0,1,.25-1.49v-2a10.15,10.15,0,0,0-.25-2.74h0a7.4,7.4,0,0,0-.5-2.5.92.92,0,0,0-.25-.75c-.25-.49-.25-1.24-.5-1.74,0-.25-.25-.75-.25-1-.25-.5-.25-1-.5-1.25-.25-.5-.25-.75-.5-1.24-.25-.25-.25-.5-.49-1l-.75-1.5c0-.25-.25-.25-.25-.5a29.62,29.62,0,0,0-7.49-8.23l-.25-.25c-.49-.25-1-.75-1.49-1-.25-.25-.5-.25-.75-.5-.5-.24-.75-.49-1.25-.74s-.75-.5-1.24-.5c-.25-.25-.75-.25-1-.5-.5-.25-1.25-.5-1.75-.75-.25,0-.5-.25-.75-.25a19.33,19.33,0,0,0-5.24-1,8.47,8.47,0,0,1-2.49-.25h-.5a12.09,12.09,0,0,0-3,.25.92.92,0,0,0-.75.25c-.75,0-1.5.25-2,.25-.25,0-.74.25-1,.25-.5.25-1.25.25-1.75.5a1.3,1.3,0,0,0-1,.5,3.56,3.56,0,0,1-1.49.5c-.5.25-.75.25-1,.5l-1.5.75c-.25.24-.75.49-1,.74a5.37,5.37,0,0,0-1.24.75c-.25.25-.75.5-1,.75-.5.25-.75.75-1.25,1-.25.25-.75.5-1,.75-.5.25-.74.74-1,1a3.45,3.45,0,0,0-.75,1c-.25.5-.75.75-1,1.25-.25.25-.5.75-.75,1-.25.5-.5.75-.75,1.24-.25.25-.5.75-.74,1l-.75,1.5c-.25.25-.25.75-.5,1.25a3.47,3.47,0,0,0-.5,1.49c-.25.5-.25.75-.5,1.25a15.93,15.93,0,0,0-.5,1.75c0,.25-.25.74-.25,1a5.5,5.5,0,0,0-.25,2,1.5,1.5,0,0,1-.25,1c0,1-.25,2-.25,3a28.19,28.19,0,0,0,15.72,25.19H97.93a5.52,5.52,0,0,0-5,2.75L65.75,281.78a10.48,10.48,0,0,0-.5,10.47.24.24,0,0,0,.25.25c.25.25.5.75.75,1s.25.5.5.75l.74.75.75.75a2,2,0,0,0,1,.49c.25.25.5.25.75.5s.75.25,1,.5c.25,0,.49.25.74.25a1.5,1.5,0,0,1,1,.25h2.75c.25,0,.74-.25,1-.25s.5-.25.75-.25c.25-.25.75-.25,1-.5s.5-.25.75-.5.75-.49,1-.74l.49-.5a6.63,6.63,0,0,0,1.25-1.5l12.22-18.71v91a10.9,10.9,0,0,0,5.24,9.23.24.24,0,0,1,.25.25c.25.25.75.25,1.25.5.25,0,.5.25.75.25s.5.24,1,.24,1,.25,1.49.25h.25a3.71,3.71,0,0,0,1.75-.25h.25a4.57,4.57,0,0,0,1.74-.49h.25l1.5-.75a.24.24,0,0,0,.25-.25,5.45,5.45,0,0,0,1.25-1l.25-.25a4.52,4.52,0,0,0,1-1.25.24.24,0,0,1,.25-.25l.75-1.49v-.25a3.61,3.61,0,0,0,.5-1.75v-.25c0-.5.25-1.24.25-2V325.18a3.24,3.24,0,0,1,6.48,0v40.16a10.9,10.9,0,0,0,5.24,9.23.24.24,0,0,1,.25.25c.25.25.75.25,1.25.5.25,0,.5.25.75.25s.5.25,1,.25,1,.25,1.49.25h.25a3.71,3.71,0,0,0,1.75-.25h.25a4.59,4.59,0,0,0,1.74-.5h.25l1.5-.75a.24.24,0,0,0,.25-.25,5.45,5.45,0,0,0,1.25-1l.25-.25a4.52,4.52,0,0,0,1-1.25.24.24,0,0,1,.25-.24l.75-1.5v-.25a3.61,3.61,0,0,0,.5-1.75v-.25c0-.5.25-1.24.25-2v-92L153.3,293A10,10,0,0,0,167,296h0A9.78,9.78,0,0,0,169.76,282Z"/></g></g></svg>