<?xml version="1.0" encoding="utf-8"?>
<!-- Generator: Adobe Illustrator 24.0.0, SVG Export Plug-In . SVG Version: 6.00 Build 0)  -->
<svg version="1.1" id="Layer_1" xmlns="http://www.w3.org/2000/svg" xmlns:xlink="http://www.w3.org/1999/xlink" x="0px" y="0px"
	 viewBox="0 0 172.1 377.1" style="enable-background:new 0 0 172.1 377.1;" xml:space="preserve">
<style type="text/css">
	.st0{fill:#62B22F;}
	.st1{fill:#62B22F;stroke:#F6F6F6;stroke-miterlimit:10;}
</style>
<title>Asset 1</title>
<g id="Layer_2_1_">
	<g id="Layer_1-2">
		<path class="st0" d="M109.1,68.8C97,67.7,84.8,67.1,72.7,67c-12.2,0.1-24.4,0.8-36.4,1.8C12.3,71,0,86.7,0,110.6
			c0,29.8,0,59.6,0.1,89.4c0,11.6,3.6,16.2,11.9,16.6c9.8,0.5,14.9-4.2,15-14.5c0.1-24.2,0-48.4,0.1-72.7v-6.1
			c0-2.3,1.8-4.2,4.1-4.2c0.3,0,0.5,0,0.8,0.1c2.3,0.4,2.9,2.7,2.9,6.1c-0.2,16.4,0,32.8,0,49.3c0,59.6,0,119.2,0,178.8
			c-0.1,3,0.1,6.1,0.7,9.1c2,8.6,8.4,13.9,16.4,14.1c8.3,0.3,15.2-4.9,17.4-13.8c0.8-3.5,1.1-7.1,1-10.7c0-41.8,0-83.5,0-125.3v-7.5
			c0-1.4,0.9-2.6,2.2-3.1l0,0c1.3,0.4,2.2,1.7,2.2,3.1v7.5c0,41.7,0,83.5,0,125.3c-0.1,3.6,0.2,7.2,1,10.7c2.3,9,9.1,14.1,17.4,13.8
			c8-0.3,14.3-5.5,16.4-14.1c0.6-3,0.8-6,0.7-9.1c0-59.6,0-119.2,0-178.8c0-16.4,0.1-32.8,0-49.3c0-3.4,0.6-5.6,2.9-6.1
			c2.3-0.4,4.4,1.1,4.8,3.4c0,0.2,0.1,0.5,0.1,0.7v6.1c0,24.2-0.1,48.5,0.1,72.7c0,10.3,5.1,15,15,14.5c8.3-0.4,11.9-5.1,11.9-16.6
			c0.1-29.8,0.1-59.6,0.1-89.4C145.3,86.7,133.1,71,109.1,68.8z"/>
		<circle class="st0" cx="72.7" cy="29.8" r="29.8"/>
		<path class="st1" d="M169.8,282l-27.2-41.4c-0.5-0.7-1-1.3-1.8-1.8l-1.5-0.8c-0.5-0.2-1-0.3-1.5-0.3h-7.5c0.5-0.2,1.3-0.7,1.8-1
			c0.3,0,0.3-0.3,0.5-0.3c0.5-0.3,0.8-0.5,1.3-0.8c0.2-0.3,0.5-0.3,0.7-0.5s0.8-0.5,1-0.8s0.5-0.3,0.8-0.5l0.8-0.8
			c0.3-0.2,0.5-0.5,0.8-0.5l0.7-0.8c0.3-0.3,0.5-0.5,0.5-0.8l0.8-0.8c0.3-0.3,0.3-0.5,0.5-0.8c0.3-0.3,0.6-0.6,0.8-1
			c0.3-0.2,0.3-0.5,0.5-0.7c0.3-0.3,0.4-0.6,0.5-1c0.3-0.3,0.3-0.5,0.5-0.8s0.3-0.8,0.5-1s0.3-0.5,0.5-0.8c0.3-0.5,0.3-0.7,0.5-1.2
			c0-0.3,0.3-0.5,0.3-0.8c0.3-0.5,0.3-1,0.5-1.3c0-0.2,0.1-0.4,0.3-0.5c0.3-0.8,0.3-1.2,0.5-2v-0.3c0.2-0.6,0.3-1.2,0.3-1.8v-0.8
			c0-0.5,0-1,0.3-1.5v-2c0-0.9,0-1.8-0.3-2.7l0,0c0-0.9-0.2-1.7-0.5-2.5c0-0.3-0.1-0.6-0.3-0.8c-0.3-0.5-0.3-1.2-0.5-1.7
			c0-0.3-0.3-0.8-0.3-1c-0.3-0.5-0.3-1-0.5-1.3c-0.3-0.5-0.3-0.8-0.5-1.2c-0.3-0.3-0.3-0.5-0.5-1l-0.8-1.5c0-0.3-0.3-0.3-0.3-0.5
			c-2-3.2-4.5-6-7.5-8.2l-0.3-0.3c-0.5-0.3-1-0.8-1.5-1c-0.3-0.3-0.5-0.3-0.8-0.5c-0.5-0.2-0.8-0.5-1.3-0.7s-0.8-0.5-1.2-0.5
			c-0.3-0.3-0.8-0.3-1-0.5c-0.5-0.3-1.3-0.5-1.8-0.8c-0.3,0-0.5-0.3-0.8-0.3c-1.7-0.6-3.5-0.9-5.2-1c-0.8,0-1.7,0-2.5-0.3h-0.5
			c-1,0-2,0-3,0.3c-0.3,0-0.6,0.1-0.8,0.3c-0.8,0-1.5,0.3-2,0.3c-0.3,0-0.7,0.3-1,0.3c-0.5,0.3-1.3,0.3-1.8,0.5
			c-0.4,0-0.8,0.2-1,0.5c-0.5,0.3-1,0.4-1.5,0.5c-0.5,0.3-0.8,0.3-1,0.5l-1.5,0.8c-0.3,0.2-0.8,0.5-1,0.7c-0.4,0.2-0.9,0.4-1.2,0.8
			c-0.3,0.3-0.8,0.5-1,0.8c-0.5,0.3-0.8,0.8-1.3,1c-0.3,0.3-0.8,0.5-1,0.8c-0.5,0.3-0.7,0.7-1,1c-0.3,0.3-0.6,0.6-0.8,1
			c-0.3,0.5-0.8,0.8-1,1.3c-0.3,0.3-0.5,0.8-0.8,1c-0.3,0.5-0.5,0.8-0.8,1.2c-0.3,0.3-0.5,0.8-0.7,1l-0.8,1.5
			c-0.3,0.3-0.3,0.8-0.5,1.3c-0.3,0.5-0.4,1-0.5,1.5c-0.3,0.5-0.3,0.8-0.5,1.3c-0.2,0.6-0.4,1.2-0.5,1.8c0,0.3-0.3,0.7-0.3,1
			c-0.2,0.6-0.3,1.3-0.3,2c0,0.4-0.1,0.7-0.3,1c0,1-0.3,2-0.3,3c0,10.7,6.1,20.5,15.7,25.2h-7.7c-2-0.1-4,1-5,2.8l-27.2,40.9
			c-2,3.1-2.2,7.1-0.5,10.5c0,0.1,0.1,0.2,0.2,0.3c0,0,0,0,0,0c0.3,0.3,0.5,0.8,0.8,1s0.3,0.5,0.5,0.8l0.7,0.8l0.8,0.8
			c0.3,0.3,0.6,0.4,1,0.5c0.3,0.3,0.5,0.3,0.8,0.5s0.8,0.3,1,0.5c0.3,0,0.5,0.3,0.7,0.3c0.4,0,0.7,0.1,1,0.3h2.8
			c0.3,0,0.7-0.3,1-0.3s0.5-0.3,0.8-0.3c0.3-0.3,0.8-0.3,1-0.5s0.5-0.3,0.8-0.5s0.8-0.5,1-0.7l0.5-0.5c0.5-0.4,0.9-0.9,1.3-1.5
			l12.2-18.7v91c0,3.8,2,7.3,5.2,9.2c0.1,0,0.2,0.1,0.3,0.2c0,0,0,0,0,0c0.3,0.3,0.8,0.3,1.3,0.5c0.3,0,0.5,0.3,0.8,0.3
			s0.5,0.2,1,0.2s1,0.3,1.5,0.3h0.3c0.6,0.1,1.2,0,1.8-0.3h0.3c0.6,0,1.2-0.2,1.7-0.5h0.3l1.5-0.8c0.1,0,0.2-0.1,0.3-0.2
			c0,0,0,0,0,0c0.5-0.3,0.9-0.6,1.3-1l0.3-0.3c0.4-0.4,0.7-0.8,1-1.3c0-0.1,0.1-0.2,0.2-0.3c0,0,0,0,0,0l0.8-1.5v-0.3
			c0.3-0.5,0.5-1.1,0.5-1.8v-0.3c0-0.5,0.3-1.2,0.3-2v-41.1c0-1.8,1.5-3.2,3.2-3.2c1.8,0,3.2,1.5,3.2,3.2v40.2c0,3.8,2,7.3,5.2,9.2
			c0.1,0,0.2,0.1,0.3,0.2c0,0,0,0,0,0c0.3,0.3,0.8,0.3,1.3,0.5c0.3,0,0.5,0.3,0.8,0.3s0.5,0.3,1,0.3s1,0.3,1.5,0.3h0.3
			c0.6,0.1,1.2,0,1.8-0.3h0.3c0.6,0,1.2-0.2,1.7-0.5h0.3l1.5-0.8c0.1,0,0.2-0.1,0.3-0.2c0,0,0,0,0,0c0.5-0.3,0.9-0.6,1.3-1l0.3-0.3
			c0.4-0.4,0.7-0.8,1-1.3c0-0.1,0.1-0.2,0.2-0.2c0,0,0,0,0,0l0.8-1.5v-0.3c0.3-0.5,0.5-1.1,0.5-1.8v-0.3c0-0.5,0.3-1.2,0.3-2v-92
			l12.4,19.2c3,4.6,9.1,5.9,13.7,3l0,0c4.6-2.9,6-8.9,3.1-13.5C170,282.3,169.9,282.2,169.8,282z"/>
	</g>
</g>
</svg>
