<svg xmlns="http://www.w3.org/2000/svg" viewBox="0 0 219.99 67.93"><defs><style>.cls-1{fill:#c21718;}.cls-2{fill:#fff;}</style></defs><title>Asset 4</title><g id="Layer_2" data-name="Layer 2"><g id="Layer_1-2" data-name="Layer 1"><rect class="cls-1" width="219.99" height="67.93" rx="33.97"/><path class="cls-2" d="M116.77,21.49l-5.21,5.21a2.2,2.2,0,0,1-3.13,0l-5.21-5.21a2.22,2.22,0,0,0-3.13,0l-2.57,2.57a2.22,2.22,0,0,0,0,3.13l5.21,5.21a2.2,2.2,0,0,1,0,3.13l-5.21,5.21a2.22,2.22,0,0,0,0,3.13l2.57,2.57a2.22,2.22,0,0,0,3.13,0l5.21-5.21a2.22,2.22,0,0,1,3.13,0l5.21,5.21a2.22,2.22,0,0,0,3.13,0l2.57-2.57a2.22,2.22,0,0,0,0-3.13l-5.21-5.21a2.2,2.2,0,0,1,0-3.13l5.21-5.21a2.22,2.22,0,0,0,0-3.13l-2.57-2.57A2.22,2.22,0,0,0,116.77,21.49Z"/></g></g></svg>