<svg xmlns="http://www.w3.org/2000/svg" viewBox="0 0 186.87 379.51"><defs><style>.cls-1,.cls-2{fill:#e6007e;}.cls-2{stroke:#f6f6f6;stroke-miterlimit:10;}</style></defs><title>Asset 2</title><g id="Layer_2" data-name="Layer 2"><g id="Layer_1-2" data-name="Layer 1"><path class="cls-1" d="M53.48,254.58v10c0,27.3,0,54.61,0,81.92a181.25,181.25,0,0,0,.57,18.36c.86,8.75,5.52,13.13,13.18,13.27,7.9.14,12.65-3.85,14-12.46a103,103,0,0,0,1.33-15.8c.14-28.68,0-57.42.09-86.1A30.69,30.69,0,0,1,83,257.1c.19-1,1.8-2.48,2.57-2.33a.34.34,0,0,1,.19,0s.14,0,.19,0c.76-.15,2.37,1.38,2.57,2.33a31.33,31.33,0,0,1,.33,6.66c0,28.68,0,57.42.09,86.1a110.33,110.33,0,0,0,1.34,15.8c1.33,8.61,6.08,12.6,14,12.46,7.66-.14,12.32-4.47,13.18-13.27a181.25,181.25,0,0,0,.57-18.36c.05-27.31,0-54.62,0-81.92v-10h17.13a15.2,15.2,0,0,0,14.65-19.27c-11.09-40.25-22-79.68-32.92-119.36a4.06,4.06,0,0,1,3.66-5.14c2.9-.09,3.81,3,4.71,6,6.8,22.59,13.46,45.29,20.27,67.88,1.28,4.24,2,9.38,4.94,12.18,3.1,3,8.76,5.76,12.56,4.95,3.33-.67,6.57-6,8-10,1.1-3-.19-7.14-1.19-10.56-7.94-27.21-15.89-54.42-24.21-81.49-6.38-20.74-21.08-31.16-43-31.16H68.9c-22,0-36.73,10.42-43.06,31.16-8.32,27.11-16.27,54.28-24.21,81.49-1,3.42-2.33,7.56-1.19,10.56,1.47,3.95,4.71,9.32,8,10,3.8.76,9.47-1.95,12.56-4.95,2.85-2.8,3.66-7.94,4.95-12.18,6.8-22.59,13.46-45.29,20.26-67.88.9-3,1.81-6.09,4.71-6A4.06,4.06,0,0,1,54.62,116C43.68,155.63,32.84,195.06,21.7,235.31a15.22,15.22,0,0,0,14.66,19.27Z"/><circle class="cls-1" cx="85.78" cy="30.26" r="30.25"/><path class="cls-2" d="M184.56,285.21l-27.19-41.66a4.39,4.39,0,0,0-1-1.25,5.2,5.2,0,0,0-2.49-1.5c-.5,0-1-.25-1.5-.25h-7a6,6,0,0,0,1.75-1c.25,0,.25-.25.5-.25.25-.25.75-.5,1-.75s.5-.25.75-.5.74-.5,1-.75.5-.25.75-.5l.75-.75.5-.49.75-.75c.25-.25.5-.5.5-.75l.75-.75c.25-.25.25-.5.49-.75l.75-.75c.25-.25.25-.5.5-.75a1.26,1.26,0,0,0,.5-1c.25-.25.25-.5.5-.75s.25-.5.5-1c.25-.25.25-.5.5-.75s.25-.75.5-1a.9.9,0,0,0,.25-.74c.25-.25.25-.75.5-1,0-.25.24-.5.24-1,0-.25.25-.75.25-1s.25-.5.25-1c0-.25.25-.74.25-1a1.5,1.5,0,0,1,.25-1,1.5,1.5,0,0,1,.25-1v-6.74a2.24,2.24,0,0,0-.25-1.24c0-.5-.25-1.25-.25-1.75v-.25a29,29,0,0,0-20.45-21,.92.92,0,0,1-.75-.25c-.5,0-1-.25-1.5-.25s-.75-.25-1.25-.25h-5.73a3.17,3.17,0,0,0-1.5.25,1.87,1.87,0,0,0-1.25.25c-.5,0-1,.25-1.5.25a11.44,11.44,0,0,0-1.24.24c-.5.25-1,.25-1.5.5s-.75.25-1.25.5a4.3,4.3,0,0,1-1.24.5c-.5.25-.75.25-1.25.5s-.75.5-1.25.75a3.45,3.45,0,0,0-1,.75c-.5.25-.75.5-1.24.75-.25.25-.75.49-1,.74-.5.25-.75.75-1,1s-.75.5-1,.75l-1,1a3.28,3.28,0,0,0-.74,1,4.36,4.36,0,0,1-1,1.24c-.25.25-.5.75-.75,1-.25.5-.5.75-.75,1.25-.25.25-.5.75-.75,1l-.75,1.49a1.9,1.9,0,0,0-.5,1,3.68,3.68,0,0,0-.49,1.5c-.25.5-.25.75-.5,1.25a15.68,15.68,0,0,0-.5,1.74c0,.25-.25.75-.25,1a4.87,4.87,0,0,0-.25,2,1.48,1.48,0,0,1-.25,1c0,1-.25,2-.25,3a28.2,28.2,0,0,0,15.72,25.19h-7.74a3.13,3.13,0,0,0-1.49.25,5.19,5.19,0,0,0-2.5,1.5,5.45,5.45,0,0,0-1,1.25L80.53,284.71a10.52,10.52,0,0,0-.5,10.48.24.24,0,0,0,.25.25c.25.25.5.75.75,1s.25.5.5.75l.75.74.75.75a1.84,1.84,0,0,0,1,.5c.25.25.5.25.75.5s.75.25,1,.5c.25,0,.5.25.75.25a1.5,1.5,0,0,1,1,.25h2.74c.25,0,.75-.25,1-.25s.5-.25.75-.25c.25-.25.75-.25,1-.5s.5-.25.75-.5.75-.5,1-.75l.5-.5a6.38,6.38,0,0,0,1.25-1.49l12.22-18.71V288l-12,36.92h12v43.66a10.9,10.9,0,0,0,5.24,9.23.24.24,0,0,1,.25.25c.25.25.75.25,1.25.5.25,0,.5.25.75.25s.49.24,1,.24h3.25c.25,0,.75-.24,1-.24s.49-.25.74-.25c.25-.25.75-.25,1-.5s.5-.25.75-.5a3.45,3.45,0,0,1,1-.75c.25-.25.5-.25.75-.5l.74-.75c.25-.25.25-.5.5-.75a1.87,1.87,0,0,0,.5-1c.25-.25.25-.5.5-.75.25-.5.25-.75.5-1.25,0-.25.25-.5.25-.75a6.89,6.89,0,0,0,.25-2.24V328.12a3.25,3.25,0,0,1,6.49,0v40.17a10.89,10.89,0,0,0,5.23,9.23.24.24,0,0,1,.25.25c.25.25.75.25,1.25.5.25,0,.5.25.75.25s.5.25,1,.25h3.24c.25,0,.75-.25,1-.25s.5-.25.75-.25c.25-.25.75-.25,1-.5s.49-.25.74-.5a3.45,3.45,0,0,1,1-.75c.25-.25.5-.25.75-.5l.75-.75c.25-.25.25-.5.5-.75a1.87,1.87,0,0,0,.5-1c.25-.25.25-.5.5-.75.24-.5.24-.75.49-1.25,0-.25.25-.5.25-.75a5.48,5.48,0,0,0,.25-2V324.63h12l-12-36.67V276.73l12.48,19.21a10,10,0,0,0,13.72,3h0A9.55,9.55,0,0,0,184.56,285.21Z"/></g></g></svg>