<?xml version="1.0" encoding="utf-8"?>
<!-- Generator: Adobe Illustrator 24.0.0, SVG Export Plug-In . SVG Version: 6.00 Build 0)  -->
<svg version="1.1" id="Layer_1" xmlns="http://www.w3.org/2000/svg" xmlns:xlink="http://www.w3.org/1999/xlink" x="0px" y="0px"
	 viewBox="0 0 186.9 379.5" style="enable-background:new 0 0 186.9 379.5;" xml:space="preserve">
<style type="text/css">
	.st0{fill:#62B22F;}
	.st1{fill:#62B22F;stroke:#F6F6F6;stroke-miterlimit:10;}
</style>
<title>Asset 2</title>
<g id="Layer_2_1_">
	<g id="Layer_1-2">
		<path class="st0" d="M53.5,254.6v10c0,27.3,0,54.6,0,81.9c-0.1,6.1,0.1,12.3,0.6,18.4c0.9,8.8,5.5,13.1,13.2,13.3
			c7.9,0.1,12.7-3.9,14-12.5c0.8-5.2,1.3-10.5,1.3-15.8c0.1-28.7,0-57.4,0.1-86.1c-0.1-2.2,0-4.5,0.4-6.7c0.2-1,1.8-2.5,2.6-2.3
			c0.1,0,0.1,0,0.2,0c0,0,0.1,0,0.2,0c0.8-0.1,2.4,1.4,2.6,2.3c0.3,2.2,0.5,4.4,0.3,6.7c0,28.7,0,57.4,0.1,86.1
			c0.1,5.3,0.5,10.6,1.3,15.8c1.3,8.6,6.1,12.6,14,12.5c7.7-0.1,12.3-4.5,13.2-13.3c0.5-6.1,0.7-12.2,0.6-18.4
			c0.1-27.3,0-54.6,0-81.9v-10h17.1c8.4,0,15.2-6.8,15.2-15.2c0-1.4-0.2-2.7-0.6-4.1c-11.1-40.3-22-79.7-32.9-119.4
			c-0.6-2.2,0.7-4.4,2.8-5c0.3-0.1,0.6-0.1,0.8-0.1c2.9-0.1,3.8,3,4.7,6c6.8,22.6,13.5,45.3,20.3,67.9c1.3,4.2,2,9.4,4.9,12.2
			c3.1,3,8.8,5.8,12.6,4.9c3.3-0.7,6.6-6,8-10c1.1-3-0.2-7.1-1.2-10.6c-7.9-27.2-15.9-54.4-24.2-81.5c-6.4-20.7-21.1-31.2-43-31.2
			H68.9c-22,0-36.7,10.4-43.1,31.2C17.5,126.9,9.6,154,1.6,181.3c-1,3.4-2.3,7.6-1.2,10.6c1.5,3.9,4.7,9.3,8,10
			c3.8,0.8,9.5-1.9,12.6-4.9c2.9-2.8,3.7-7.9,5-12.2c6.8-22.6,13.5-45.3,20.3-67.9c0.9-3,1.8-6.1,4.7-6c2.2,0.1,4,2,3.9,4.3
			c0,0.3-0.1,0.6-0.2,0.9c-10.9,39.6-21.8,79.1-32.9,119.3c-2.2,8.1,2.5,16.5,10.6,18.7c1.3,0.4,2.7,0.5,4,0.5H53.5z"/>
		<circle class="st0" cx="85.8" cy="30.3" r="30.3"/>
		<path class="st1" d="M184.6,285.2l-27.2-41.7c-0.3-0.5-0.6-0.9-1-1.3c-0.7-0.7-1.5-1.2-2.5-1.5c-0.5,0-1-0.3-1.5-0.3h-7
			c0.6-0.2,1.2-0.6,1.8-1c0.3,0,0.3-0.3,0.5-0.3c0.3-0.3,0.8-0.5,1-0.8s0.5-0.3,0.8-0.5s0.7-0.5,1-0.8s0.5-0.3,0.8-0.5l0.8-0.8
			l0.5-0.5l0.8-0.8c0.3-0.3,0.5-0.5,0.5-0.8l0.8-0.8c0.3-0.3,0.3-0.5,0.5-0.8l0.8-0.8c0.3-0.3,0.3-0.5,0.5-0.8
			c0.3-0.2,0.5-0.6,0.5-1c0.3-0.3,0.3-0.5,0.5-0.8s0.3-0.5,0.5-1c0.3-0.3,0.3-0.5,0.5-0.8s0.3-0.8,0.5-1c0.2-0.2,0.3-0.5,0.3-0.7
			c0.3-0.3,0.3-0.8,0.5-1c0-0.3,0.2-0.5,0.2-1c0-0.3,0.3-0.8,0.3-1s0.3-0.5,0.3-1c0-0.3,0.3-0.7,0.3-1c0-0.4,0.1-0.7,0.3-1
			c0-0.4,0.1-0.7,0.3-1v-6.7c0-0.4,0-0.9-0.3-1.2c0-0.5-0.3-1.3-0.3-1.8v-0.3c-2.5-10.2-10.3-18.2-20.4-21c-0.3,0-0.6-0.1-0.8-0.3
			c-0.5,0-1-0.3-1.5-0.3s-0.8-0.3-1.3-0.3h-5.7c-0.5,0-1,0-1.5,0.3c-0.4-0.1-0.9,0-1.3,0.3c-0.5,0-1,0.3-1.5,0.3
			c-0.4,0.1-0.8,0.1-1.2,0.2c-0.5,0.3-1,0.3-1.5,0.5s-0.8,0.3-1.3,0.5c-0.4,0.2-0.8,0.4-1.2,0.5c-0.5,0.3-0.8,0.3-1.3,0.5
			s-0.8,0.5-1.3,0.8c-0.4,0.2-0.7,0.4-1,0.8c-0.5,0.3-0.8,0.5-1.2,0.8c-0.3,0.3-0.8,0.5-1,0.7c-0.5,0.3-0.8,0.8-1,1s-0.8,0.5-1,0.8
			l-1,1c-0.3,0.3-0.6,0.6-0.7,1c-0.3,0.5-0.6,0.9-1,1.2c-0.3,0.3-0.5,0.8-0.8,1c-0.3,0.5-0.5,0.8-0.8,1.3c-0.3,0.3-0.5,0.8-0.8,1
			l-0.8,1.5c-0.3,0.3-0.4,0.6-0.5,1c-0.3,0.5-0.4,1-0.5,1.5c-0.3,0.5-0.3,0.8-0.5,1.3c-0.2,0.6-0.4,1.2-0.5,1.7c0,0.3-0.3,0.8-0.3,1
			c-0.2,0.6-0.3,1.3-0.3,2c0,0.4,0,0.7-0.3,1c0,1-0.3,2-0.3,3c0,10.7,6.1,20.5,15.7,25.2h-7.7c-0.5,0-1,0-1.5,0.3
			c-1,0.3-1.8,0.8-2.5,1.5c-0.4,0.4-0.7,0.8-1,1.3l-27.2,41.2c-2,3.2-2.2,7.1-0.5,10.5c0,0.1,0.1,0.2,0.2,0.3c0,0,0,0,0,0
			c0.3,0.3,0.5,0.8,0.8,1s0.3,0.5,0.5,0.8l0.8,0.7l0.8,0.8c0.3,0.3,0.6,0.4,1,0.5c0.3,0.3,0.5,0.3,0.8,0.5s0.8,0.3,1,0.5
			c0.3,0,0.5,0.3,0.8,0.3c0.4,0,0.7,0.1,1,0.3h2.7c0.3,0,0.8-0.3,1-0.3s0.5-0.3,0.8-0.3c0.3-0.3,0.8-0.3,1-0.5s0.5-0.3,0.8-0.5
			s0.8-0.5,1-0.8l0.5-0.5c0.5-0.4,0.9-0.9,1.3-1.5l12.2-18.7V288l-12,36.9h12v43.7c0,3.8,2,7.3,5.2,9.2c0.1,0,0.2,0.1,0.3,0.2
			c0,0,0,0,0,0c0.3,0.3,0.8,0.3,1.3,0.5c0.3,0,0.5,0.3,0.8,0.3s0.5,0.2,1,0.2h3.3c0.3,0,0.8-0.2,1-0.2s0.5-0.3,0.7-0.3
			c0.3-0.3,0.8-0.3,1-0.5s0.5-0.3,0.8-0.5c0.3-0.3,0.6-0.6,1-0.8c0.3-0.3,0.5-0.3,0.8-0.5l0.7-0.8c0.3-0.3,0.3-0.5,0.5-0.8
			c0.3-0.3,0.4-0.6,0.5-1c0.3-0.3,0.3-0.5,0.5-0.8c0.3-0.5,0.3-0.8,0.5-1.3c0-0.3,0.3-0.5,0.3-0.8c0.2-0.7,0.3-1.5,0.3-2.2v-40.7
			c0.1-1.8,1.6-3.2,3.4-3.1c1.7,0.1,3,1.4,3.1,3.1v40.2c0,3.8,2,7.3,5.2,9.2c0.1,0,0.2,0.1,0.3,0.2c0,0,0,0,0,0
			c0.3,0.3,0.8,0.3,1.3,0.5c0.3,0,0.5,0.3,0.8,0.3s0.5,0.3,1,0.3h3.2c0.3,0,0.8-0.3,1-0.3s0.5-0.3,0.8-0.3c0.3-0.3,0.8-0.3,1-0.5
			s0.5-0.3,0.7-0.5c0.3-0.3,0.6-0.6,1-0.8c0.3-0.3,0.5-0.3,0.8-0.5l0.8-0.8c0.3-0.3,0.3-0.5,0.5-0.8c0.3-0.3,0.4-0.6,0.5-1
			c0.3-0.3,0.3-0.5,0.5-0.8c0.2-0.5,0.2-0.8,0.5-1.3c0-0.3,0.3-0.5,0.3-0.8c0.2-0.6,0.3-1.3,0.3-2v-44.1h12l-12-36.7v-11.2
			l12.5,19.2c3,4.6,9.1,5.9,13.7,3l0,0c4.5-2.8,5.9-8.7,3.1-13.1C184.8,285.6,184.7,285.4,184.6,285.2z"/>
	</g>
</g>
</svg>
