<?xml version="1.0" encoding="utf-8"?>
<!-- Generator: Adobe Illustrator 24.0.0, SVG Export Plug-In . SVG Version: 6.00 Build 0)  -->
<svg version="1.1" id="Layer_1" xmlns="http://www.w3.org/2000/svg" xmlns:xlink="http://www.w3.org/1999/xlink" x="0px" y="0px"
	 viewBox="0 0 220 220" style="enable-background:new 0 0 220 220;" xml:space="preserve">
<style type="text/css">
	.st0{fill:#C21718;}
	.st1{fill:#FFFFFF;}
</style>
<title>Kırmızı buton</title>
<g id="Layer_2_1_">
	<g id="Layer_1-2">
		<path class="st0" d="M220,110c0,60.8-49.2,110-110,110S0,170.8,0,110S49.2,0,110,0S220,49.2,220,110"/>
		<path class="st1" d="M110,216.2c-58.7,0-106.2-47.6-106.1-106.3c0-42.6,25.5-81.1,64.8-97.7c54-22.8,116.3,2.5,139.2,56.5
			s-2.5,116.3-56.5,139.2C138.3,213.4,124.2,216.2,110,216.2z M110,5.7C52.4,5.7,5.7,52.5,5.8,110.1c0,41.9,25.1,79.7,63.6,96
			c53.1,22.4,114.3-2.4,136.7-55.5s-2.4-114.3-55.5-136.7C137.8,8.5,123.9,5.7,110,5.7z"/>
		<path class="st1" d="M110,182.3c-39.9,0.2-72.4-32.1-72.6-72s32.1-72.4,72-72.6s72.4,32.1,72.6,72c0,0.1,0,0.2,0,0.3
			C182,149.8,149.8,182.1,110,182.3z M110,48.1c-34.2-0.1-62,27.5-62.2,61.7c-0.1,34.2,27.5,62,61.7,62.2s62-27.5,62.2-61.7
			c0-0.1,0-0.2,0-0.2C171.7,75.9,144.1,48.2,110,48.1z"/>
		<ellipse class="st0" cx="110" cy="110" rx="61" ry="61.2"/>
	</g>
</g>
<circle class="st1" cx="21.7" cy="110" r="7.2"/>
<circle class="st1" cx="198.3" cy="110" r="7.2"/>
</svg>
