<svg xmlns="http://www.w3.org/2000/svg" viewBox="0 0 220 220"><defs><style>.cls-1{fill:#60b230;}.cls-2{fill:#fff;}.cls-3{fill:#f6f6f6;}</style></defs><title>Asset 11</title><g id="Layer_2" data-name="Layer 2"><g id="Layer_1-2" data-name="Layer 1"><path class="cls-1" d="M220,110A110,110,0,1,1,110,0,110,110,0,0,1,220,110"/><path class="cls-2" d="M110,216.18a106.13,106.13,0,1,1,41.33-8.34A106.2,106.2,0,0,1,110,216.18ZM110,5.7a104.27,104.27,0,1,0,40.6,8.2A104.33,104.33,0,0,0,110,5.7Z"/><path class="cls-2" d="M110,182.28a72.28,72.28,0,1,1,72-72.56V110A72.25,72.25,0,0,1,110,182.28Zm0-134.21a61.93,61.93,0,1,0,61.69,62.17V110A61.88,61.88,0,0,0,110,48.07Z"/><ellipse class="cls-2" cx="110" cy="110" rx="60.98" ry="61.2"/><path class="cls-3" d="M49.33,33.21l2.14-1.75,6.88,8.41-1.66,1.35-6.42-1.8,3.45,4.23-2.15,1.76L44.69,37l1.67-1.37,6.43,1.81Z"/><path class="cls-3" d="M62.75,33.88l3.59-2.2,1.36,2.23-6,3.64L56,28.29l6-3.61,1.35,2.21-3.52,2.16.79,1.28,3.19-1.95,1.34,2.18-3.2,2Z"/><path class="cls-3" d="M76.83,17.8l4.24,10-2.55,1.08-2.28-5.39-.73,5.05-.25.11-4.11-3L73.42,31l-2.56,1.09-4.23-10L69.18,21l4.36,3.19.75-5.35Z"/><path class="cls-3" d="M87,23.36l3.62-1,.69,2.6L85,26.67,82.19,16.16l2.69-.71Z"/><path class="cls-3" d="M97.07,21.35l4.17-.58.36,2.58-6.91,1L93.17,13.57l6.84-1,.36,2.57-4.09.57.21,1.5,3.7-.53.36,2.54-3.7.52Z"/><path class="cls-3" d="M111.23,12.14H114V23h-2.15L108,17.56V23h-2.78V12.16h2.16l3.86,5.45Z"/><path class="cls-3" d="M124,13.16a5,5,0,0,1,3.49,2.1,5.27,5.27,0,0,1,.94,4,5.33,5.33,0,0,1-2.07,3.61,5,5,0,0,1-3.94,1L118,23.22l1.59-10.75Zm-1.19,8.09a2.39,2.39,0,0,0,1.93-.46,2.79,2.79,0,0,0,1-1.88,2.75,2.75,0,0,0-.41-2.07,2.39,2.39,0,0,0-1.72-1l-1.55-.23-.8,5.43Z"/><path class="cls-3" d="M134.13,15.17l2.68.73L134,26.39l-2.68-.73Zm.53-2a1.39,1.39,0,1,1,2.71.62l0,.11a1.39,1.39,0,0,1-1.69,1,1.41,1.41,0,0,1-1-1.71Z"/><path class="cls-3" d="M143.3,29.65l-.48-4-.93-.36-1.28,3.26-2.59-1,4-10.12L146,19a3.85,3.85,0,0,1,2.19,2,3.43,3.43,0,0,1,.08,2.92,3.54,3.54,0,0,1-2.85,2.2l.61,4.56Zm.34-8.79-.89,2.27,1.43.56a1.13,1.13,0,0,0,1.48-.56.78.78,0,0,0,.05-.14,1.14,1.14,0,0,0-.53-1.52l-.11,0Z"/><path class="cls-3" d="M154.22,22.73,156.68,24l-5.05,9.62-2.46-1.29Zm.95-1.81a1.39,1.39,0,1,1,.6,1.87h0A1.41,1.41,0,0,1,155.17,20.92Z"/><path class="cls-3" d="M157.06,35.16a5.56,5.56,0,0,1,1-4.25,5.68,5.68,0,0,1,9.74.65,5.25,5.25,0,0,1,.56,2.67L165.57,34a2.59,2.59,0,0,0-1.2-2.32,2.83,2.83,0,0,0-2.2-.51,2.89,2.89,0,0,0-1.86,1.3,3,3,0,0,0-.56,2.22A2.91,2.91,0,0,0,161,36.55a2.54,2.54,0,0,0,2.6.26l1.2,2.51a5.41,5.41,0,0,1-5.34-.53A5.53,5.53,0,0,1,157.06,35.16Z"/><path class="cls-3" d="M173.27,35.37l2.09,1.82-7.14,8.19-2.09-1.82Zm1.34-1.55a1.39,1.39,0,1,1,.15,2,1.41,1.41,0,0,1-.16-2Z"/><path class="cls-3" d="M35.38,150.17l-9.8,4.7-1.2-2.5,5.28-2.52-5.07-.5-.12-.25,2.79-4.24L22,147.38l-1.2-2.51,9.8-4.69,1.2,2.51-3,4.49,5.38.5Z"/><path class="cls-3" d="M31.36,164.26a5.52,5.52,0,0,1-1-4.25,5.75,5.75,0,0,1,6.58-4.64A5.82,5.82,0,0,1,41.62,162,5.72,5.72,0,0,1,35,166.62,5.48,5.48,0,0,1,31.36,164.26Zm2.22-1.56a2.84,2.84,0,0,0,3.93.82l.17-.12a2.87,2.87,0,0,0,.79-4,.41.41,0,0,0-.07-.11,2.87,2.87,0,0,0-4.1-.7,2.75,2.75,0,0,0-.72,4.1Z"/><path class="cls-3" d="M46.26,165.28l1.86,2.05-8,7.31-1.87-2.06Z"/><path class="cls-3" d="M44.93,176.18l2.69.55a2.17,2.17,0,0,0,.64,2.5c.64.57,1.12.66,1.44.3s.19-.59,0-1.06c-.1-.19-.36-.61-.74-1.22-1.11-1.75-1.39-3.3-.16-4.69a3.1,3.1,0,0,1,2.42-1.11,4.13,4.13,0,0,1,2.64,1.1,4.22,4.22,0,0,1,1.36,4.54l-2.64-.53a1.74,1.74,0,0,0-.46-2c-.5-.45-1-.45-1.23-.14s-.21.81.61,2.12q.36.57.66,1.17a6.71,6.71,0,0,1,.4,1.14,2.67,2.67,0,0,1-.74,2.53,3,3,0,0,1-2.5,1.11,4.62,4.62,0,0,1-2.84-1.32C44.73,179.62,44.28,177.83,44.93,176.18Z"/><path class="cls-3" d="M65.61,181.75,64.09,184l-2.21-1.52-4.63,6.75L55,187.62l4.63-6.75-2.22-1.52,1.52-2.21Z"/><path class="cls-3" d="M68.43,183.43l2.48,1.25L67.75,191c-.41.82-.16,1.45.74,1.9s1.57.29,2-.53l3.16-6.28,2.48,1.25-3.28,6.51a3.49,3.49,0,0,1-2.32,1.93,4.54,4.54,0,0,1-3.23-.46A4.64,4.64,0,0,1,65,193a3.47,3.47,0,0,1,.18-3Z"/><path class="cls-3" d="M81.64,200.91,81,197l-.94-.32L78.91,200l-2.63-.9,3.49-10.28,4.11,1.39a3.88,3.88,0,0,1,2.29,1.91A3.6,3.6,0,0,1,84.68,197a3.89,3.89,0,0,1-1,.36l.83,4.53Zm-.07-8.79-.78,2.31,1.46.49a1.12,1.12,0,0,0,1.45-.64.65.65,0,0,0,0-.13,1.14,1.14,0,0,0-.61-1.49l-.1,0Z"/><path class="cls-3" d="M91.37,192.34l2.71.6-2.34,10.61L89,203Z"/><path class="cls-3" d="M96.58,202l2.51-1.11a2.17,2.17,0,0,0,2,1.68c.85.1,1.29-.1,1.35-.58s-.19-.6-.64-.86c-.19-.1-.64-.29-1.31-.57-1.91-.79-3-1.89-2.83-3.74a3.06,3.06,0,0,1,1.34-2.3,4,4,0,0,1,2.79-.62,4.22,4.22,0,0,1,3.73,2.92l-2.47,1.1a1.75,1.75,0,0,0-1.54-1.4c-.67-.07-1,.18-1.09.6s.31.78,1.72,1.38a11.33,11.33,0,0,1,1.22.58,5.79,5.79,0,0,1,1,.7,2.64,2.64,0,0,1,.86,2.49,3,3,0,0,1-1.41,2.35,4.6,4.6,0,0,1-3.08.56C98.4,204.93,97,203.73,96.58,202Z"/><path class="cls-3" d="M109.59,194.69h2.78l-.07,10.87h-2.78Z"/><path class="cls-3" d="M122.51,194l2.75-.3,1.17,10.8-2.13.23-4.4-5,.59,5.44-2.77.3-1.17-10.81,2.15-.23,4.4,5Z"/><path class="cls-3" d="M140.82,194.71l.29,1.06a5.17,5.17,0,0,1-.44,4.14,5.26,5.26,0,0,1-3.36,2.44,5.72,5.72,0,0,1-4.47-.48,5.43,5.43,0,0,1-2.62-3.46,5.57,5.57,0,0,1,3.74-6.93l.26-.07a5.89,5.89,0,0,1,2.86-.07,5.09,5.09,0,0,1,2.39,1.24l-1.92,1.92A2.75,2.75,0,0,0,135,194a2.86,2.86,0,0,0-1.82,1.36,3.22,3.22,0,0,0,1.1,4.13,3,3,0,0,0,2.45.24,2.47,2.47,0,0,0,2-2l-2.55.69-.63-2.3Z"/><path class="cls-3" d="M155,192l3.28-1.81,1.29,2.35-5.7,3.15-5.25-9.51,2.43-1.34Z"/><path class="cls-3" d="M167.62,187.33a5.52,5.52,0,0,1-4.22,1.1,5.74,5.74,0,0,1-4.81-6.46,5.8,5.8,0,0,1,6.5-4.82,5.7,5.7,0,0,1,4.8,6.46A5.56,5.56,0,0,1,167.62,187.33ZM166,185.15a2.85,2.85,0,0,0,.71-4l-.11-.15a3,3,0,0,0-4.21-.49,3,3,0,0,0-1.09,1.79,2.86,2.86,0,0,0,.59,2.2,2.83,2.83,0,0,0,4.11.62Z"/><path class="cls-3" d="M173.14,167.65l1.88,1.91-1.91,1.89,5.74,5.83-2,1.95-5.74-5.83-1.91,1.88-1.89-1.91Z"/><path class="cls-3" d="M175.44,164.93l1.77-2.14,8.38,6.91-1.76,2.14Z"/><path class="cls-3" d="M192,161.07a5.57,5.57,0,0,1-3.55,2.55,5.46,5.46,0,0,1-4.29-.78,5.4,5.4,0,0,1-2.51-3.54A5.71,5.71,0,1,1,192,161.07Zm-2.3-1.46a2.83,2.83,0,0,0-.73-3.94l-.18-.11a2.85,2.85,0,0,0-4,.74,1.3,1.3,0,0,0-.1.15,3,3,0,1,0,5,3.16Z"/><path class="cls-3" d="M189.68,141.62l1.09-2.53,10,4.31-.85,2-6.54,1.35,5,2.17-1.1,2.55-10-4.32.85-2,6.54-1.35Z"/><circle class="cls-3" cx="199.84" cy="110.28" r="7.16"/><circle class="cls-3" cx="20.79" cy="110.18" r="7.16"/><path class="cls-1" d="M109.76,72a2.6,2.6,0,0,0-1.9,1.16c-4.64,7.33-10.52,14.31-10.52,21.63a12.67,12.67,0,0,0,3.67,8.57,11.94,11.94,0,0,0,16.85,1.15,11.35,11.35,0,0,0,1.15-1.15,12.67,12.67,0,0,0,3.67-8.57c0-7.32-5.88-14.3-10.52-21.63A2.54,2.54,0,0,0,109.76,72Zm.24,7.31c4,6.2,7.6,12,7.6,15.48a8,8,0,0,1-2.27,5.09,6.93,6.93,0,0,1-9.76.9,6.38,6.38,0,0,1-.9-.9,8,8,0,0,1-2.27-5.09C102.4,91.31,106,85.51,110,79.31Zm-16.27,33.2a2.52,2.52,0,0,0-1.9,1.16C87.18,121,81.31,128,81.31,135.32A12.62,12.62,0,0,0,85,143.89,11.94,11.94,0,0,0,101.85,145a11.35,11.35,0,0,0,1.15-1.15,12.61,12.61,0,0,0,3.66-8.57c0-7.32-5.87-14.3-10.52-21.62a2.52,2.52,0,0,0-2.37-1.16Zm32.07,0a2.52,2.52,0,0,0-1.9,1.16c-4.65,7.32-10.52,14.3-10.52,21.62a12.61,12.61,0,0,0,3.66,8.57A11.94,11.94,0,0,0,133.89,145a11.35,11.35,0,0,0,1.15-1.15,12.61,12.61,0,0,0,3.66-8.57c0-7.32-5.87-14.3-10.52-21.62a2.52,2.52,0,0,0-2.37-1.16ZM94,119.84c4,6.2,7.59,12,7.59,15.48a8,8,0,0,1-2.27,5.09,6.92,6.92,0,0,1-9.74.91,7.11,7.11,0,0,1-.91-.91,8,8,0,0,1-2.27-5.09C86.37,131.84,90,126,94,119.84Zm32.06,0c4,6.2,7.6,12,7.6,15.48a8,8,0,0,1-2.27,5.09,6.92,6.92,0,0,1-9.74.91,7.11,7.11,0,0,1-.91-.91,8,8,0,0,1-2.27-5.09c0-3.48,3.6-9.32,7.53-15.48Z"/></g></g></svg>