<svg xmlns="http://www.w3.org/2000/svg" viewBox="0 0 219.99 67.92"><defs><style>.cls-1{fill:#62b22f;}.cls-2{fill:#fff;}</style></defs><title>Asset 14</title><g id="Layer_2" data-name="Layer 2"><g id="Layer_1-2" data-name="Layer 1"><rect class="cls-1" width="219.99" height="67.92" rx="33.96"/><path class="cls-2" d="M104.68,35.57l-6.05-6.05a1.47,1.47,0,0,0-2.07,0l-3.63,3.63a1.47,1.47,0,0,0,0,2.07L100,42.3,104.68,47a1.47,1.47,0,0,0,2.07,0l4.66-4.67,15.65-15.64a1.47,1.47,0,0,0,0-2.07L123.43,21a1.47,1.47,0,0,0-2.07,0L106.75,35.57A1.47,1.47,0,0,1,104.68,35.57Z"/></g></g></svg>