<?xml version="1.0" encoding="utf-8"?>
<!-- Generator: Adobe Illustrator 24.0.0, SVG Export Plug-In . SVG Version: 6.00 Build 0)  -->
<svg version="1.1" id="Layer_1" xmlns="http://www.w3.org/2000/svg" xmlns:xlink="http://www.w3.org/1999/xlink" x="0px" y="0px"
	 viewBox="0 0 220 220" style="enable-background:new 0 0 220 220;" xml:space="preserve">
<style type="text/css">
	.st0{fill:#3552A0;}
	.st1{fill:#FFFFFF;}
	.st2{fill:#F6F6F6;}
</style>
<title>Asset 13</title>
<g id="Layer_2_1_">
	<g id="Layer_1-2">
		<path class="st0" d="M220,110c0,60.8-49.2,110-110,110S0,170.8,0,110S49.2,0,110,0S220,49.2,220,110"/>
		<path class="st1" d="M110,216.2c-58.7,0-106.2-47.6-106.1-106.3c0-42.6,25.5-81.1,64.8-97.7c54-22.8,116.3,2.5,139.2,56.5
			s-2.5,116.3-56.5,139.2C138.3,213.4,124.2,216.2,110,216.2z M110,5.7C52.4,5.7,5.7,52.5,5.8,110.1c0,41.9,25.1,79.7,63.6,96
			c53.1,22.4,114.3-2.4,136.7-55.5s-2.4-114.3-55.5-136.7C137.8,8.5,123.9,5.7,110,5.7z"/>
		<path class="st1" d="M110,182.3c-39.9,0.2-72.4-32.1-72.6-72s32.1-72.4,72-72.6s72.4,32.1,72.6,72c0,0.1,0,0.2,0,0.3
			C182,149.8,149.8,182.1,110,182.3z M110,48.1c-34.2-0.1-62,27.5-62.2,61.7c-0.1,34.2,27.5,62,61.7,62.2s62-27.5,62.2-61.7
			c0-0.1,0-0.2,0-0.2C171.7,75.9,144.1,48.2,110,48.1z"/>
		<ellipse class="st1" cx="110" cy="110" rx="61" ry="61.2"/>
		<path class="st2" d="M39.6,54.7l0.5-2.7c0.9,0.4,1.9,0.1,2.5-0.7c0.6-0.6,0.7-1.1,0.3-1.4s-0.6-0.2-1.1,0
			c-0.2,0.1-0.6,0.4-1.2,0.8c-1.7,1.1-3.3,1.4-4.7,0.2c-0.7-0.6-1.1-1.5-1.1-2.4c0-1,0.4-1.9,1.1-2.7c1.1-1.4,2.9-1.9,4.5-1.4
			L39.9,47c-0.7-0.3-1.5-0.1-2,0.5c-0.4,0.5-0.4,1-0.1,1.2s0.8,0.2,2.1-0.6c0.4-0.2,0.7-0.4,1.1-0.6c0.4-0.2,0.8-0.3,1.2-0.4
			c0.9-0.2,1.9,0,2.5,0.7c0.8,0.6,1.2,1.5,1.2,2.5c-0.1,1.1-0.5,2.1-1.3,2.9C43.1,54.8,41.3,55.3,39.6,54.7z"/>
		<path class="st2" d="M53.6,44.2c-1.1,1-2.6,1.5-4.1,1.4c-1.5-0.1-2.9-0.8-3.9-2c-1-1.1-1.5-2.6-1.4-4.1c0.1-1.5,0.8-2.9,2-3.9
			c2.4-2,6-1.8,8,0.6c1,1.1,1.5,2.6,1.4,4.2C55.4,41.8,54.7,43.2,53.6,44.2z M51.8,42.1c0.6-0.5,1-1.2,1.1-2
			c0.1-0.8-0.2-1.6-0.8-2.2c-1-1.3-2.9-1.4-4.1-0.4c-1.3,1-1.4,2.9-0.4,4.1c0,0,0.1,0.1,0.1,0.1c1,1.2,2.8,1.4,4,0.5
			C51.7,42.2,51.7,42.1,51.8,42.1L51.8,42.1z"/>
		<path class="st2" d="M62,24.6l0.5,7.6l2.2,3.5l-2.3,1.5l-2.2-3.5L53.5,30l2.6-1.7l3.8,2.4l-0.5-4.4L62,24.6z"/>
		<path class="st2" d="M66,22.6l2.5-1.1l2.9,6.4c0.4,0.8,1,1,1.9,0.6s1.2-1,0.8-1.9l-2.9-6.4l2.5-1.1l3,6.6c0.5,0.9,0.5,2.1,0,3
			c-0.5,1-1.3,1.8-2.4,2.2c-1,0.5-2.2,0.6-3.3,0.3c-1-0.3-1.8-1-2.2-2L66,22.6z"/>
		<path class="st2" d="M84.7,15.5l2.7-0.8l3,10.4l-2.1,0.6l-5.2-4.2l1.5,5.3l-2.7,0.8L79,17.2l2.1-0.6l5.2,4.2L84.7,15.5z"/>
		<path class="st2" d="M104,12.2l1.2,10.8l-2.7,0.3l-0.7-5.8l-2.1,4.6h-0.3l-3.1-4L97,24l-2.8,0.3L93,13.5l2.8-0.3l3.2,4.3l2.2-4.9
			L104,12.2z"/>
		<path class="st2" d="M115.8,23.2l-0.4-1.6l-3.6-0.1l-0.5,1.5l-3-0.1l4-10.7l3.4,0.1l3.1,11L115.8,23.2z M112.6,19.1l2.2,0.1
			l-1-3.7L112.6,19.1z"/>
		<path class="st2" d="M136.8,27.1l-3-0.8l-1.8-5.5l-1.2,4.7l-2.7-0.7l2.8-10.5l2.7,0.7l-1.1,4.4l4-3.7l3,0.8l-4.7,4.2L136.8,27.1z"
			/>
		<path class="st2" d="M146.2,30.9l0.2-1.6l-3.3-1.4l-1,1.3l-2.8-1.1l7.6-8.6l3.1,1.3l-1,11.4L146.2,30.9z M144.6,25.9l2,0.9
			l0.4-3.8L144.6,25.9z"/>
		<path class="st2" d="M160.4,35.2c-0.4,0.8-1.1,1.3-2,1.5c-1,0.1-1.9-0.1-2.7-0.6l-3.9-2.4l5.6-9.3l3.6,2.2
			c1.9,1.1,2.5,2.9,1.5,4.5c-0.4,0.7-1.2,1.2-2,1.3C161,33.2,160.9,34.3,160.4,35.2z M156.8,33.8c0.4,0.3,1,0.2,1.3-0.2
			c0.3-0.4,0.2-1-0.2-1.3c-0.1,0-0.1-0.1-0.2-0.1l-1.5-0.9l-0.9,1.6L156.8,33.8z M158.4,27.9l-0.9,1.5l1.2,0.7
			c0.4,0.3,0.9,0.2,1.2-0.2c0,0,0,0,0-0.1c0.2-0.4,0.1-0.9-0.3-1.2c0,0,0,0-0.1,0L158.4,27.9z"/>
		<path class="st2" d="M168.3,31.4l2.2,1.7l-6.6,8.6l-2.2-1.7L168.3,31.4z M169.5,29.8c0.5-0.6,1.3-0.7,1.9-0.3
			c0.6,0.5,0.7,1.3,0.3,1.9c-0.5,0.6-1.3,0.7-1.9,0.3c0,0,0,0,0,0C169.2,31.3,169,30.4,169.5,29.8z"/>
		<path class="st2" d="M179,40.7l2,1.9l-7.5,7.8l-1.6-1.5l1-6.6l-3.8,3.9l-2-1.9l7.5-7.8l1.6,1.5l-1,6.6L179,40.7z"/>
		<path class="st2" d="M184.6,46.7l1.8,2.1l-8.4,6.9l-1.8-2.1L184.6,46.7z M186.2,45.4c0.6-0.5,1.5-0.4,2,0.1s0.4,1.5-0.1,2
			c0,0,0,0-0.1,0.1c-0.6,0.5-1.5,0.4-1.9-0.3C185.5,46.7,185.6,45.9,186.2,45.4z"/>
		<path class="st2" d="M34.3,169.9c0.3-3.1,3-5.5,6.2-5.2c2.5,0.2,4.6,2,5.1,4.5c0.2,0.9,0.2,1.8-0.1,2.7l-2.6-0.9
			c0.3-0.9,0.1-1.9-0.5-2.6c-0.9-1.2-2.7-1.4-3.9-0.5c-0.1,0.1-0.2,0.1-0.2,0.2c-0.6,0.5-1,1.2-1.1,2c-0.1,0.8,0.2,1.6,0.8,2.1
			c0.6,0.7,1.5,1.1,2.5,0.9l0.5,2.7c-1.9,0.3-3.8-0.4-5-1.9C34.8,172.9,34.2,171.4,34.3,169.9z"/>
		<path class="st2" d="M54,176.6l2.1,1.8l-7.1,8.2l-2.1-1.8l2.7-3.1l-2.3-2l-2.7,3.1l-2.1-1.8l7.1-8.2l2.1,1.8l-2.6,3l2.3,2
			L54,176.6z"/>
		<path class="st2" d="M59.1,193.5l0.5-1.6l-3-2l-1.2,1.1l-2.5-1.6l8.9-7.2l2.8,1.8l-2.8,11.1L59.1,193.5z M58.4,188.4l1.8,1.2
			l1.1-3.7L58.4,188.4z"/>
		<path class="st2" d="M75.7,189.9l2.5,1.1l-4.5,9.9l-2-0.9l-1.2-6.6l-2.3,5l-2.5-1.1l4.5-9.9l2,0.9l1.2,6.6L75.7,189.9z"/>
		<path class="st2" d="M91.1,199.8l-0.3,1.1c-0.3,1.4-1.2,2.6-2.5,3.3c-1.3,0.7-2.8,0.8-4.1,0.4c-1.5-0.4-2.8-1.3-3.6-2.7
			c-0.8-1.3-0.9-2.9-0.5-4.3c0.4-1.5,1.3-2.7,2.7-3.5c1.3-0.8,2.9-1,4.3-0.5c0.9,0.2,1.8,0.7,2.5,1.4c0.7,0.6,1.2,1.4,1.4,2.3
			l-2.6,0.7c-0.3-0.9-1.1-1.5-2-1.7c-0.8-0.2-1.6-0.1-2.3,0.3c-0.7,0.4-1.2,1.1-1.4,1.9c-0.2,0.8-0.2,1.6,0.2,2.3
			c0.4,0.7,1.2,1.3,2,1.4c1,0.4,2.1,0.1,2.8-0.7l-2.5-0.7l0.6-2.3L91.1,199.8z"/>
		<path class="st2" d="M96.1,195.8l2.8,0.4L97.2,207l-2.8-0.4L96.1,195.8z"/>
		<path class="st2" d="M108.9,197l2.8,0.1l-0.3,10.9l-2.1-0.1l-3.7-5.6l-0.2,5.5l-2.8-0.1l0.3-10.9l2.2,0.1l3.7,5.6L108.9,197z"/>
		<path class="st2" d="M127,200.2l0.1,1.1c0.2,1.4-0.1,2.9-1,4c-0.9,1.1-2.2,1.8-3.7,1.9c-1.5,0.2-3.1-0.1-4.4-1.1
			c-2.5-1.9-2.9-5.5-1-8c0.9-1.2,2.3-2,3.8-2.1c1-0.1,1.9,0,2.8,0.3c0.9,0.3,1.6,0.8,2.2,1.6l-2.2,1.6c-0.6-0.7-1.6-1-2.5-0.8
			c-0.8,0.1-1.5,0.5-2,1.1c-0.5,0.6-0.7,1.4-0.6,2.2c0.1,1.6,1.5,2.8,3.1,2.6c0.1,0,0.2,0,0.4-0.1c1.1,0,2-0.7,2.3-1.7l-2.6,0.3
			l-0.3-2.4L127,200.2z"/>
		<path class="st2" d="M140.3,201.6c-1.4-0.6-2.4-1.8-2.9-3.3c-1.1-2.8,0.2-6,3.1-7.2c0.1,0,0.2-0.1,0.3-0.1
			c0.9-0.3,1.9-0.4,2.8-0.3c0.9,0.1,1.8,0.5,2.5,1.1l-1.8,2.1c-0.7-0.6-1.7-0.7-2.6-0.4c-0.7,0.2-1.4,0.8-1.7,1.5
			c-0.3,0.7-0.3,1.5,0,2.3c0.2,0.8,0.8,1.4,1.5,1.7c0.7,0.3,1.5,0.3,2.3,0c0.9-0.3,1.6-1.1,1.7-2l2.8,0.5c-0.4,1.9-1.7,3.4-3.5,4.1
			C143.3,202.2,141.7,202.2,140.3,201.6z"/>
		<path class="st2" d="M159.3,194.6l-1.2-1.1l-3.2,1.7l0.4,1.6l-2.6,1.4l-2.1-11.2l3-1.6l8.4,7.8L159.3,194.6z M154.4,192.7l1.9-1.1
			l-2.8-2.7L154.4,192.7z"/>
		<path class="st2" d="M170.4,183c0.6,0.7,0.8,1.6,0.6,2.4c-0.2,0.9-0.8,1.7-1.6,2.3l-3.7,2.8l-6.5-8.7l3.4-2.6
			c1.7-1.3,3.6-1.2,4.7,0.3c0.5,0.7,0.7,1.5,0.5,2.3C168.8,181.7,169.8,182.2,170.4,183z M162.9,182.1l1,1.4l1.1-0.9
			c0.4-0.2,0.6-0.7,0.4-1.2c-0.2-0.4-0.7-0.6-1.2-0.4c-0.1,0-0.2,0.1-0.2,0.2L162.9,182.1z M167.9,185.8c0.4-0.3,0.5-0.9,0.2-1.3
			c-0.3-0.4-0.9-0.5-1.3-0.2l0,0l-1.4,1l1.1,1.5L167.9,185.8z"/>
		<path class="st2" d="M168.5,174.4l2-1.9l7.4,7.9l-2,1.9L168.5,174.4z"/>
		<path class="st2" d="M177.4,165l1.8-2.1l8.3,7l-1.4,1.6l-6.6-0.6l4.2,3.5l-1.8,2.1l-8.3-7l1.4-1.6l6.6,0.6L177.4,165z"/>
		<circle class="st2" cx="198.4" cy="110" r="7.2"/>
		<circle class="st2" cx="21.6" cy="110" r="7.2"/>
		<path class="st0" d="M98.1,80.7c0,2.2,1.8,4,4,4c1.1,0,2.1-0.4,2.9-1.2c0.7-0.8,1.2-1.8,1.2-2.9c0-0.4,0-0.7,0.1-1.1
			c0,0.4-0.1,0.7-0.1,1.1c0.1-0.7,0.3-1.3,0.5-1.9c-0.1,0.3-0.3,0.6-0.4,1c0.3-0.6,0.6-1.2,1-1.7l-0.6,0.8c0.4-0.5,0.9-1,1.5-1.5
			l-0.8,0.6c0.5-0.4,1.1-0.7,1.7-1l-1,0.4c0.7-0.3,1.3-0.5,2.1-0.6l-1.1,0.2c0.7-0.1,1.4-0.1,2.1,0l-1.1-0.1c0.7,0.1,1.3,0.3,2,0.6
			l-1-0.4c0.6,0.3,1.2,0.6,1.7,1l-0.8-0.6c0.6,0.4,1.1,0.9,1.5,1.5l-0.6-0.8c0.4,0.5,0.7,1.1,1,1.7l-0.4-1c0.3,0.6,0.4,1.3,0.6,2
			l-0.2-1.1c0.1,0.7,0.1,1.4,0,2.1l0.2-1.1c-0.1,0.7-0.3,1.4-0.6,2l0.4-1c-0.3,0.6-0.6,1.2-1,1.8l0.6-0.8c-0.4,0.5-0.9,1-1.4,1.4
			l0.8-0.6c-0.5,0.4-1.1,0.8-1.8,1l1-0.4c-0.5,0.2-1,0.3-1.5,0.5c-2.7,0.8-4.6,3.4-4.6,6.3v1.6c0,1.1-0.1,2.2,0,3.3
			c0.1,2.1,1.3,4.1,3.1,5.2l0.1,0.1l0.9,0.6l9.3,6.2l14.2,9.4l13,8.6c1.9,1.3,3.9,2.5,5.8,3.9l-0.8-0.6c0.3,0.2,0.5,0.4,0.7,0.7
			l-0.6-0.8c0.2,0.2,0.3,0.5,0.4,0.7c-0.1-0.3-0.3-0.7-0.4-1c0.1,0.3,0.2,0.6,0.3,1l-0.2-1.1c0,0.3,0,0.6,0,0.9l0.2-1.1
			c-0.1,0.4-0.2,0.7-0.3,1.1c0.1-0.3,0.3-0.6,0.4-1c-0.1,0.3-0.3,0.5-0.5,0.8l0.6-0.8c-0.2,0.2-0.4,0.5-0.7,0.6l0.8-0.6
			c-0.2,0.2-0.5,0.4-0.8,0.5l1-0.4c-0.3,0.1-0.6,0.2-1,0.3l1.1-0.1c-0.2,0-0.4,0-0.6,0H70c-0.9,0-1.8,0-2.6,0l1.1,0.1
			c-0.3,0-0.7-0.1-1-0.3l1,0.4c-0.3-0.1-0.6-0.3-0.8-0.5l0.8,0.6c-0.2-0.2-0.5-0.4-0.6-0.6l0.6,0.8c-0.2-0.2-0.3-0.5-0.5-0.8l0.4,1
			c-0.1-0.3-0.3-0.7-0.3-1.1l0.2,1.1c0-0.3,0-0.6,0-0.9l-0.2,1.1c0.1-0.3,0.1-0.7,0.3-1c-0.1,0.3-0.3,0.6-0.4,1
			c0.1-0.3,0.3-0.5,0.4-0.7l-0.6,0.8c0.2-0.3,0.5-0.5,0.7-0.7l-0.8,0.6l0.2-0.2c1.4-1,2.9-1.9,4.3-2.9l8.9-5.9l10.3-6.9l8.6-5.7
			l3.6-2.4c1.9-1.1,2.6-3.6,1.4-5.5c-0.5-0.9-1.4-1.6-2.4-1.8c-1-0.3-2.2-0.1-3.1,0.4l-1.1,0.7l-7.7,5.2l-11.3,7.5l-10.4,7
			c-1.7,1.1-3.4,2.3-5.1,3.4c-0.4,0.3-0.9,0.6-1.3,0.9c-1,0.9-1.7,2-2.1,3.2c-0.3,0.9-0.5,1.8-0.4,2.7c0,1.2,0.4,2.4,1,3.5
			c1.4,2.5,4,4,6.9,4h83.9c2.1,0.1,4.2-0.8,5.7-2.3c1.3-1.3,2.1-3.1,2.2-5c0-0.3,0-0.6,0-0.9c-0.1-1.2-0.4-2.5-1.1-3.5
			c-0.7-1-1.5-1.9-2.6-2.5l-1.1-0.7l-6.9-4.6l-10.8-7.1l-11.5-7.6l-9.1-6c-1.3-0.9-2.5-1.7-3.8-2.5l0.8,0.6
			c-0.2-0.1-0.4-0.3-0.5-0.5L114,95c-0.1-0.2-0.2-0.3-0.3-0.5l0.4,1c-0.1-0.2-0.2-0.4-0.2-0.7c0,0.4,0.1,0.7,0.1,1.1
			c-0.1-0.9,0-1.8,0-2.6s0-1.8,0-2.6c0,0.4-0.1,0.7-0.1,1.1c0-0.2,0.1-0.4,0.2-0.7l-0.4,1c0.1-0.2,0.2-0.4,0.3-0.6l-0.6,0.8
			c0.1-0.2,0.3-0.3,0.5-0.5l-0.8,0.6c0.1-0.1,0.3-0.2,0.5-0.3l-1,0.4c0.4-0.1,0.7-0.2,1.1-0.3c0.6-0.2,1.3-0.5,1.9-0.8
			c0.9-0.4,1.7-1,2.4-1.7c1.5-1.3,2.6-3,3.3-4.8c0.2-0.6,0.4-1.2,0.5-1.9c0.2-0.9,0.2-1.9,0.2-2.9c-0.1-1.8-0.6-3.6-1.6-5.3
			c-0.9-1.6-2.2-2.9-3.8-4c-0.5-0.4-1-0.6-1.6-0.9c-0.8-0.4-1.7-0.7-2.7-0.9c-1.8-0.4-3.8-0.3-5.6,0.2c-1.7,0.5-3.4,1.4-4.7,2.6
			C99.5,74.2,98.1,77.4,98.1,80.7L98.1,80.7z"/>
	</g>
</g>
</svg>
