<svg xmlns="http://www.w3.org/2000/svg" viewBox="0 0 220 220"><defs><style>.cls-1{fill:#60b230;}.cls-2{fill:#fff;}.cls-3{fill:#f6f6f6;}</style></defs><title>Asset 10</title><g id="Layer_2" data-name="Layer 2"><g id="Layer_1-2" data-name="Layer 1"><path class="cls-1" d="M220,110A110,110,0,1,1,110,0,109.94,109.94,0,0,1,220,110"/><path class="cls-2" d="M110,216.2A106.19,106.19,0,1,1,207.9,68.7c22.9,54-2.5,116.3-56.5,139.2A107,107,0,0,1,110,216.2ZM110,5.7a104.27,104.27,0,1,0,40.6,8.2A104.24,104.24,0,0,0,110,5.7Z"/><path class="cls-2" d="M110,182.3a72.3,72.3,0,1,1,72-72.6v.3A72.34,72.34,0,0,1,110,182.3Zm0-134.2a62,62,0,1,0,61.7,62.2v-.2A61.93,61.93,0,0,0,110,48.1Z"/><ellipse class="cls-2" cx="110" cy="110" rx="61" ry="61.2"/><path class="cls-3" d="M39.6,54.7l.5-2.7a2,2,0,0,0,2.5-.7c.6-.6.7-1.1.3-1.4s-.6-.2-1.1,0c-.2.1-.6.4-1.2.8-1.7,1.1-3.3,1.4-4.7.2a3.19,3.19,0,0,1-1.1-2.4,4,4,0,0,1,1.1-2.7,4.14,4.14,0,0,1,4.5-1.4L39.9,47a1.71,1.71,0,0,0-2,.5c-.4.5-.4,1-.1,1.2s.8.2,2.1-.6c.4-.2.7-.4,1.1-.6a5.64,5.64,0,0,1,1.2-.4,2.55,2.55,0,0,1,2.5.7,3,3,0,0,1,1.2,2.5,5.08,5.08,0,0,1-6.3,4.4Z"/><path class="cls-3" d="M53.6,44.2a5.67,5.67,0,1,1-7.4-8.6,5.72,5.72,0,0,1,9.4,4.8A6.44,6.44,0,0,1,53.6,44.2Zm-1.8-2.1a3.09,3.09,0,0,0,1.1-2,2.65,2.65,0,0,0-.8-2.2,2.91,2.91,0,0,0-4.5,3.7l.1.1a3,3,0,0,0,4,.5.1.1,0,0,1,.1-.1Z"/><path class="cls-3" d="M62,24.6l.5,7.6,2.2,3.5-2.3,1.5-2.2-3.5L53.5,30l2.6-1.7,3.8,2.4-.5-4.4Z"/><path class="cls-3" d="M66,22.6l2.5-1.1,2.9,6.4a1.26,1.26,0,0,0,1.9.6,1.28,1.28,0,0,0,.8-1.9l-2.9-6.4,2.5-1.1,3,6.6a3.19,3.19,0,0,1,0,3,4.33,4.33,0,0,1-2.4,2.2,4.69,4.69,0,0,1-3.3.3,3.37,3.37,0,0,1-2.2-2Z"/><path class="cls-3" d="M84.7,15.5l2.7-.8,3,10.4-2.1.6-5.2-4.2,1.5,5.3-2.7.8L79,17.2l2.1-.6,5.2,4.2Z"/><path class="cls-3" d="M104,12.2,105.2,23l-2.7.3-.7-5.8-2.1,4.6h-.3l-3.1-4L97,24l-2.8.3L93,13.5l2.8-.3L99,17.5l2.2-4.9Z"/><path class="cls-3" d="M115.8,23.2l-.4-1.6-3.6-.1-.5,1.5-3-.1,4-10.7,3.4.1,3.1,11Zm-3.2-4.1,2.2.1-1-3.7Z"/><path class="cls-3" d="M136.8,27.1l-3-.8L132,20.8l-1.2,4.7-2.7-.7,2.8-10.5,2.7.7-1.1,4.4,4-3.7,3,.8-4.7,4.2Z"/><path class="cls-3" d="M146.2,30.9l.2-1.6-3.3-1.4-1,1.3-2.8-1.1,7.6-8.6,3.1,1.3-1,11.4Zm-1.6-5,2,.9L147,23Z"/><path class="cls-3" d="M160.4,35.2a2.82,2.82,0,0,1-2,1.5,4.17,4.17,0,0,1-2.7-.6l-3.9-2.4,5.6-9.3,3.6,2.2c1.9,1.1,2.5,2.9,1.5,4.5a2.77,2.77,0,0,1-2,1.3A2.81,2.81,0,0,1,160.4,35.2Zm-3.6-1.4a.93.93,0,1,0,1.1-1.5c-.1,0-.1-.1-.2-.1l-1.5-.9-.9,1.6Zm1.6-5.9-.9,1.5,1.2.7a.83.83,0,0,0,1.2-.2v-.1a1,1,0,0,0-.3-1.2h-.1Z"/><path class="cls-3" d="M168.3,31.4l2.2,1.7-6.6,8.6L161.7,40Zm1.2-1.6a1.36,1.36,0,1,1,.3,1.9h0A1.31,1.31,0,0,1,169.5,29.8Z"/><path class="cls-3" d="M179,40.7l2,1.9-7.5,7.8-1.6-1.5,1-6.6-3.8,3.9-2-1.9,7.5-7.8,1.6,1.5-1,6.6Z"/><path class="cls-3" d="M184.6,46.7l1.8,2.1L178,55.7l-1.8-2.1Zm1.6-1.3a1.42,1.42,0,1,1,1.9,2.1l-.1.1a1.24,1.24,0,0,1-1.9-.3A1.23,1.23,0,0,1,186.2,45.4Z"/><path class="cls-3" d="M34.3,169.9a5.72,5.72,0,0,1,6.2-5.2,5.63,5.63,0,0,1,5.1,4.5,5,5,0,0,1-.1,2.7l-2.6-.9a2.71,2.71,0,0,0-.5-2.6,2.83,2.83,0,0,0-3.9-.5c-.1.1-.2.1-.2.2a3.09,3.09,0,0,0-1.1,2,2.35,2.35,0,0,0,.8,2.1,2.58,2.58,0,0,0,2.5.9l.5,2.7a5.3,5.3,0,0,1-5-1.9A4.78,4.78,0,0,1,34.3,169.9Z"/><path class="cls-3" d="M54,176.6l2.1,1.8L49,186.6l-2.1-1.8,2.7-3.1-2.3-2-2.7,3.1L42.5,181l7.1-8.2,2.1,1.8-2.6,3,2.3,2Z"/><path class="cls-3" d="M59.1,193.5l.5-1.6-3-2L55.4,191l-2.5-1.6,8.9-7.2,2.8,1.8-2.8,11.1Zm-.7-5.1,1.8,1.2,1.1-3.7Z"/><path class="cls-3" d="M75.7,189.9l2.5,1.1-4.5,9.9-2-.9-1.2-6.6-2.3,5-2.5-1.1,4.5-9.9,2,.9,1.2,6.6Z"/><path class="cls-3" d="M91.1,199.8l-.3,1.1a4.91,4.91,0,0,1-2.5,3.3,5.37,5.37,0,0,1-4.1.4,5.76,5.76,0,0,1-3.6-2.7,5.42,5.42,0,0,1-.5-4.3,5.57,5.57,0,0,1,2.7-3.5,5,5,0,0,1,4.3-.5,5.22,5.22,0,0,1,2.5,1.4,4.25,4.25,0,0,1,1.4,2.3l-2.6.7a2.66,2.66,0,0,0-2-1.7,3.06,3.06,0,0,0-2.3.3,3.31,3.31,0,0,0-1.2,4.2,2.89,2.89,0,0,0,2,1.4,2.48,2.48,0,0,0,2.8-.7l-2.5-.7.6-2.3Z"/><path class="cls-3" d="M96.1,195.8l2.8.4L97.2,207l-2.8-.4Z"/><path class="cls-3" d="M108.9,197l2.8.1-.3,10.9-2.1-.1-3.7-5.6-.2,5.5-2.8-.1.3-10.9,2.2.1,3.7,5.6Z"/><path class="cls-3" d="M127,200.2l.1,1.1a5,5,0,0,1-4.7,5.9,5.88,5.88,0,0,1-4.4-1.1,5.71,5.71,0,0,1-1-8,5.25,5.25,0,0,1,3.8-2.1,6.55,6.55,0,0,1,2.8.3,4.35,4.35,0,0,1,2.2,1.6l-2.2,1.6a2.6,2.6,0,0,0-2.5-.8,3.09,3.09,0,0,0-2,1.1,2.86,2.86,0,0,0-.6,2.2,2.77,2.77,0,0,0,3.1,2.6.76.76,0,0,0,.4-.1,2.37,2.37,0,0,0,2.3-1.7l-2.6.3-.3-2.4Z"/><path class="cls-3" d="M140.3,201.6a5.3,5.3,0,0,1-2.9-3.3,5.56,5.56,0,0,1,3.1-7.2c.1,0,.2-.1.3-.1a6.72,6.72,0,0,1,2.8-.3,4.72,4.72,0,0,1,2.5,1.1l-1.8,2.1a2.68,2.68,0,0,0-2.6-.4A2.8,2.8,0,0,0,140,195a3,3,0,0,0,0,2.3,2.56,2.56,0,0,0,1.5,1.7,3,3,0,0,0,2.3,0,2.49,2.49,0,0,0,1.7-2l2.8.5a5.6,5.6,0,0,1-3.5,4.1A5.85,5.85,0,0,1,140.3,201.6Z"/><path class="cls-3" d="M159.3,194.6l-1.2-1.1-3.2,1.7.4,1.6-2.6,1.4L150.6,187l3-1.6,8.4,7.8Zm-4.9-1.9,1.9-1.1-2.8-2.7Z"/><path class="cls-3" d="M170.4,183a2.7,2.7,0,0,1,.6,2.4,4.06,4.06,0,0,1-1.6,2.3l-3.7,2.8-6.5-8.7,3.4-2.6c1.7-1.3,3.6-1.2,4.7.3a2.75,2.75,0,0,1,.5,2.3A3,3,0,0,1,170.4,183Zm-7.5-.9,1,1.4,1.1-.9a.89.89,0,0,0-.8-1.6.22.22,0,0,0-.2.2Zm5,3.7a.93.93,0,1,0-1.1-1.5h0l-1.4,1,1.1,1.5Z"/><path class="cls-3" d="M168.5,174.4l2-1.9,7.4,7.9-2,1.9Z"/><path class="cls-3" d="M177.4,165l1.8-2.1,8.3,7-1.4,1.6-6.6-.6,4.2,3.5-1.8,2.1-8.3-7,1.4-1.6,6.6.6Z"/><circle class="cls-3" cx="198.4" cy="110" r="7.2"/><circle class="cls-3" cx="21.6" cy="110" r="7.2"/><path class="cls-1" d="M98.1,80.7a4,4,0,0,0,6.9,2.8,4.45,4.45,0,0,0,1.2-2.9,4.1,4.1,0,0,1,.1-1.1c0,.4-.1.7-.1,1.1a10.55,10.55,0,0,1,.5-1.9,10.37,10.37,0,0,0-.4,1,9.5,9.5,0,0,1,1-1.7l-.6.8a10.61,10.61,0,0,1,1.5-1.5l-.8.6a9.5,9.5,0,0,1,1.7-1l-1,.4a7.27,7.27,0,0,1,2.1-.6l-1.1.2a7.39,7.39,0,0,1,2.1,0l-1.1-.1a7.62,7.62,0,0,1,2,.6l-1-.4a9.5,9.5,0,0,1,1.7,1l-.8-.6a5.36,5.36,0,0,1,1.5,1.5l-.6-.8a9.5,9.5,0,0,1,1,1.7l-.4-1a11.69,11.69,0,0,1,.6,2l-.2-1.1a7.39,7.39,0,0,1,0,2.1l.2-1.1a6.64,6.64,0,0,1-.6,2l.4-1a16.18,16.18,0,0,1-1,1.8l.6-.8a9.27,9.27,0,0,1-1.4,1.4l.8-.6a5.24,5.24,0,0,1-1.8,1l1-.4c-.5.2-1,.3-1.5.5a6.57,6.57,0,0,0-4.6,6.3v1.6c0,1.1-.1,2.2,0,3.3a6.56,6.56,0,0,0,3.1,5.2l.1.1.9.6,9.3,6.2,14.2,9.4,13,8.6c1.9,1.3,3.9,2.5,5.8,3.9l-.8-.6a2.34,2.34,0,0,1,.7.7l-.6-.8a2.51,2.51,0,0,1,.4.7c-.1-.3-.3-.7-.4-1,.1.3.2.6.3,1l-.2-1.1v.9l.2-1.1c-.1.4-.2.7-.3,1.1a10.37,10.37,0,0,0,.4-1,3.51,3.51,0,0,1-.5.8l.6-.8c-.2.2-.4.5-.7.6l.8-.6a2.18,2.18,0,0,1-.8.5l1-.4c-.3.1-.6.2-1,.3l1.1-.1H67.4l1.1.1a1.93,1.93,0,0,1-1-.3l1,.4a2.18,2.18,0,0,1-.8-.5l.8.6c-.2-.2-.5-.4-.6-.6l.6.8a5.58,5.58,0,0,1-.5-.8l.4,1a3.54,3.54,0,0,1-.3-1.1l.2,1.1v-.9l-.2,1.1a3.81,3.81,0,0,1,.3-1,10.37,10.37,0,0,0-.4,1,4.35,4.35,0,0,1,.4-.7l-.6.8a4.62,4.62,0,0,1,.7-.7l-.8.6.2-.2c1.4-1,2.9-1.9,4.3-2.9l8.9-5.9,10.3-6.9,8.6-5.7,3.6-2.4a4,4,0,0,0,1.4-5.5,3.65,3.65,0,0,0-2.4-1.8,4.19,4.19,0,0,0-3.1.4l-1.1.7-7.7,5.2-11.3,7.5-10.4,7c-1.7,1.1-3.4,2.3-5.1,3.4-.4.3-.9.6-1.3.9a7.45,7.45,0,0,0-2.1,3.2,6.35,6.35,0,0,0-.4,2.7,7.42,7.42,0,0,0,1,3.5,7.82,7.82,0,0,0,6.9,4h83.9a7.7,7.7,0,0,0,7.9-7.3v-.9a7.21,7.21,0,0,0-1.1-3.5,7.77,7.77,0,0,0-2.6-2.5l-1.1-.7-6.9-4.6-10.8-7.1-11.5-7.6-9.1-6c-1.3-.9-2.5-1.7-3.8-2.5l.8.6a1.21,1.21,0,0,1-.5-.5l.8.6c-.1-.2-.2-.3-.3-.5l.4,1a1.45,1.45,0,0,1-.2-.7c0,.4.1.7.1,1.1a22.53,22.53,0,0,1,0-2.6V90.7c0,.4-.1.7-.1,1.1a2.54,2.54,0,0,1,.2-.7l-.4,1,.3-.6-.6.8c.1-.2.3-.3.5-.5l-.8.6a2.19,2.19,0,0,1,.5-.3l-1,.4,1.1-.3a15.39,15.39,0,0,0,1.9-.8,8.07,8.07,0,0,0,2.4-1.7,12.18,12.18,0,0,0,3.3-4.8,10.55,10.55,0,0,0,.5-1.9,13.68,13.68,0,0,0,.2-2.9,11.63,11.63,0,0,0-1.6-5.3,12.07,12.07,0,0,0-3.8-4,8.27,8.27,0,0,0-1.6-.9,10.71,10.71,0,0,0-2.7-.9,11.81,11.81,0,0,0-5.6.2,12.08,12.08,0,0,0-4.7,2.6,12.37,12.37,0,0,0-3.9,8.9Z"/></g></g></svg>