<svg xmlns="http://www.w3.org/2000/svg" viewBox="0 0 220 220"><defs><style>.cls-1{fill:#f0a3b7;}.cls-2{fill:#fff;}.cls-3{fill:#f6f6f6;}</style></defs><title>Asset 10</title><g id="Layer_2" data-name="Layer 2"><g id="Layer_1-2" data-name="Layer 1"><path class="cls-1" d="M220,110A110,110,0,1,1,110,0,110,110,0,0,1,220,110"/><path class="cls-2" d="M110,216.18a106.2,106.2,0,0,1-41.33-204,106.2,106.2,0,0,1,82.66,195.66A105.48,105.48,0,0,1,110,216.18ZM110,5.7A104.33,104.33,0,0,0,69.4,206.1,104.32,104.32,0,0,0,150.6,13.9,103.64,103.64,0,0,0,110,5.7Z"/><path class="cls-2" d="M110,182.28A72.28,72.28,0,1,1,182,110,72.25,72.25,0,0,1,110,182.28Zm0-134.21A61.93,61.93,0,1,0,171.69,110,61.88,61.88,0,0,0,110,48.07Z"/><ellipse class="cls-2" cx="110" cy="110" rx="60.98" ry="61.2"/><path class="cls-3" d="M42.06,39.4l2.39,7.24,3,2.86-1.9,2-3-2.83-7.41-1.92,2.13-2.28,4.25,1.34-1.61-4.16Z"/><path class="cls-3" d="M45.48,34a1.23,1.23,0,1,1,1.75.19A1.24,1.24,0,0,1,45.48,34Zm-.09,2.37,2.16-1.74L52,40.13c.57.71,1.25.74,2,.11s.91-1.3.33-2l-4.4-5.48L52.09,31l4.57,5.69a3.47,3.47,0,0,1,.79,2.91,4.54,4.54,0,0,1-1.76,2.75,4.6,4.6,0,0,1-3.07,1.13A3.52,3.52,0,0,1,50,42.08Zm2.45-4.26a1.23,1.23,0,1,1,1.73.2A1.25,1.25,0,0,1,47.84,32.13Z"/><path class="cls-3" d="M69.89,32.66l-2.67,1.58-5.16-2.59,2.48,4.18-2.39,1.42L56.61,27.9,59,26.48l2.33,3.93L61.55,25l2.67-1.58L64,29.69Z"/><path class="cls-3" d="M70.8,29.49l1.64-2.2a2.17,2.17,0,0,0,2.54.48c.78-.33,1.07-.73.88-1.17s-.45-.43-1-.43c-.22,0-.7.07-1.42.16-2.06.25-3.58-.15-4.31-1.86a3,3,0,0,1,0-2.66,4,4,0,0,1,2.11-1.92,4.23,4.23,0,0,1,4.69.7l-1.6,2.17a1.74,1.74,0,0,0-2-.45c-.62.26-.82.67-.65,1.05s.65.54,2.17.35a13.19,13.19,0,0,1,1.35-.1,6.24,6.24,0,0,1,1.2.13,2.64,2.64,0,0,1,2,1.74,3,3,0,0,1-.05,2.74,4.68,4.68,0,0,1-2.41,2C73.83,31.13,72,30.78,70.8,29.49Z"/><path class="cls-3" d="M84.86,24l4-1.15.71,2.51L82.9,27.3l-3-10.46L86.58,15l.7,2.49-4,1.13L83.72,20l3.6-1,.7,2.46-3.6,1Z"/><path class="cls-3" d="M102.16,23.23l-3.07.46-3.8-4.34.72,4.8-2.75.41L91.65,13.82l2.75-.42.68,4.52,2.25-5,3.08-.46-2.63,5.73Z"/><path class="cls-3" d="M120.53,23.51l-3.1-.2-2.8-5-.31,4.85-2.78-.18.7-10.84,2.77.18-.29,4.55L118,12.46l3.1.2-3.78,5Z"/><path class="cls-3" d="M127.89,25.12a5.54,5.54,0,0,1-3.62-2.43,5.48,5.48,0,0,1-.77-4.29,5.38,5.38,0,0,1,2.44-3.59,5.79,5.79,0,0,1,7.91,1.67,5.45,5.45,0,0,1,.79,4.28,5.42,5.42,0,0,1-2.46,3.6A5.5,5.5,0,0,1,127.89,25.12Zm.57-2.66a2.85,2.85,0,0,0,2.22-.37,2.9,2.9,0,0,0,1.26-1.9A2.93,2.93,0,1,0,126.2,19a2.83,2.83,0,0,0,2.26,3.49Z"/><path class="cls-3" d="M142.22,29.21l-.53-3.95-.93-.35-1.24,3.28-2.6-1L140.76,17l4.06,1.54a3.85,3.85,0,0,1,2.22,2,3.47,3.47,0,0,1,.12,2.91,3.53,3.53,0,0,1-2.82,2.24l.67,4.55Zm.23-8.79-.86,2.28,1.44.54a1.12,1.12,0,0,0,1.52-.72,1.15,1.15,0,0,0-.66-1.56Z"/><path class="cls-3" d="M153.07,22.06l2.44,1.33-3.37,6.18c-.44.8-.2,1.44.68,1.92s1.55.34,2-.47l3.37-6.17,2.44,1.33-3.49,6.41a3.45,3.45,0,0,1-2.39,1.84,4.48,4.48,0,0,1-3.21-.56,4.61,4.61,0,0,1-2.23-2.4,3.54,3.54,0,0,1,.27-3Z"/><path class="cls-3" d="M174.12,35.9l-6.63,8.61-2.19-1.69,3.57-4.63L164.12,40l-.22-.17.57-5-3.56,4.62-2.2-1.69,6.62-8.61,2.21,1.69-.65,5.37,5-2Z"/><path class="cls-3" d="M174.92,52.08l.82-1.42L173.26,48l-1.46.74-2.06-2.2,10.37-4.83,2.32,2.46L177,54.26Zm.57-5.17L177,48.5l1.94-3.33Z"/><path class="cls-3" d="M42.44,164.76l1.7,2.18-8.55,6.7-1.71-2.18,3.29-2.58-1.88-2.4L32,169.05l-1.71-2.19,8.55-6.7,1.72,2.19-3.17,2.48,1.88,2.41Z"/><path class="cls-3" d="M47.05,170l2,2-7.74,7.63-1.95-2Z"/><path class="cls-3" d="M57.51,185.24l-.69.86a5.16,5.16,0,0,1-3.58,2.11,5.3,5.3,0,0,1-4-1.25A5.71,5.71,0,0,1,47,183.08a5.41,5.41,0,0,1,1.22-4.16,5.58,5.58,0,0,1,8-.94,5.72,5.72,0,0,1,1.75,2.26,5,5,0,0,1,.43,2.65l-2.68-.4a2.78,2.78,0,0,0-1.16-2.36,2.85,2.85,0,0,0-2.18-.66,3,3,0,0,0-2,1.17,3,3,0,0,0-.68,2.17A3,3,0,0,0,51,184.92a2.45,2.45,0,0,0,2.85.43l-2.07-1.64,1.48-1.87Z"/><path class="cls-3" d="M68.49,186.39l2.4,1.36-5.35,9.46-2.41-1.36,2.06-3.64-2.66-1.5-2.06,3.63L58.06,193l5.35-9.46,2.42,1.37-2,3.5,2.66,1.51Z"/><path class="cls-3" d="M84.4,193.09a3.82,3.82,0,0,1,2.31,1.85,3.89,3.89,0,0,1-1.64,5.21,3.83,3.83,0,0,1-3,.19l-1.37-.43-1,3.11-2.65-.84,3.26-10.36Zm-1.49,4.74a1.11,1.11,0,0,0,1.4-.78,1.09,1.09,0,0,0-.71-1.43l-1.37-.43-.7,2.2Z"/><path class="cls-3" d="M95.23,206.71,94,202.94l-1-.17-.59,3.46-2.74-.47,1.83-10.71,4.29.73a3.92,3.92,0,0,1,2.56,1.53,3.48,3.48,0,0,1,.66,2.83,3.54,3.54,0,0,1-2.34,2.74l1.52,4.34ZM93.79,198l-.41,2.4,1.51.26a1.13,1.13,0,0,0,1.36-1,1.15,1.15,0,0,0-.94-1.4Z"/><path class="cls-3" d="M108.18,208a5.59,5.59,0,0,1-5.59-5.76,5.39,5.39,0,0,1,1.72-4,5.78,5.78,0,0,1,8.08.15,5.41,5.41,0,0,1,1.59,4,5.62,5.62,0,0,1-5.8,5.56Zm0-2.71a2.84,2.84,0,1,0-2.08-.86A2.92,2.92,0,0,0,108.23,205.32Z"/><path class="cls-3" d="M124.56,195.81l.32,2.66-2.66.33,1,8.12-2.76.34-1-8.12-2.67.33-.32-2.67Z"/><path class="cls-3" d="M132.63,202.46l4.08-1,.63,2.54-6.78,1.67L128,195.11l6.7-1.65.62,2.51-4,1,.36,1.46,3.63-.89.61,2.48-3.63.9Z"/><path class="cls-3" d="M142.81,200.74a5.54,5.54,0,0,1-3-3.16,5.52,5.52,0,0,1,3.14-7.37,5.49,5.49,0,0,1,2.8-.37,5.22,5.22,0,0,1,2.52,1L146.57,193a2.57,2.57,0,0,0-2.6-.29,2.84,2.84,0,0,0-1.65,1.55,2.9,2.9,0,0,0,.06,2.27,3,3,0,0,0,1.53,1.69,2.87,2.87,0,0,0,2.26,0,2.53,2.53,0,0,0,1.67-2l2.75.4a5.4,5.4,0,0,1-3.4,4.14A5.55,5.55,0,0,1,142.81,200.74Z"/><path class="cls-3" d="M156.89,183.35l1.34,2.33L155.9,187l4.07,7.09-2.41,1.39-4.07-7.1-2.33,1.34-1.34-2.33Z"/><path class="cls-3" d="M159.8,181.31l2.25-1.63,6.36,8.81-2.25,1.63Z"/><path class="cls-3" d="M176.82,181.76a5.51,5.51,0,0,1-4.07,1.57,5.45,5.45,0,0,1-4-1.83,5.36,5.36,0,0,1-1.53-4.06,5.79,5.79,0,0,1,5.91-5.51,5.71,5.71,0,0,1,5.49,5.89A5.48,5.48,0,0,1,176.82,181.76Zm-1.85-2a2.85,2.85,0,0,0,.14-4.16,2.88,2.88,0,0,0-4.16-.16,2.89,2.89,0,0,0-1,2,2.82,2.82,0,0,0,.82,2.11,2.9,2.9,0,0,0,2.07,1A2.86,2.86,0,0,0,175,179.78Z"/><path class="cls-3" d="M179.44,162.35l1.71-2.18,8.55,6.7-1.32,1.68-6.66-.34,4.3,3.36-1.71,2.19-8.56-6.69,1.33-1.7,6.67.34Z"/><path class="cls-3" d="M108.33,194.26l-2.66-.21-2.35-4.38-.33,4.17-2.38-.18.72-9.33,2.39.19-.31,3.92,2.85-3.72,2.66.21-3.31,4.29Z"/><path class="cls-3" d="M111.88,184.83l2.39-.08.32,9.34-2.39.08Z"/><path class="cls-3" d="M121.63,184a4.35,4.35,0,0,1,3.4.85,4.56,4.56,0,0,1,1.8,3.09,4.64,4.64,0,0,1-.79,3.5,4.37,4.37,0,0,1-3,1.81l-3.76.57-1.41-9.24Zm1.07,7a2.12,2.12,0,0,0,1.47-.87,2.47,2.47,0,0,0,.35-1.8,2.35,2.35,0,0,0-.87-1.6,2.06,2.06,0,0,0-1.67-.4l-1.33.2.71,4.68Z"/><path class="cls-3" d="M89.55,33.69l2.34.53a4.58,4.58,0,0,1-2.31,3l.15.48a1.05,1.05,0,0,1,1,.75c.3,1-.57,1.68-2.59,2.18l-.44-1.38c.82-.19,1.21-.38,1.16-.56s-.3-.15-.76,0l-.27-.86a4.56,4.56,0,0,1-3.27-.66,4.85,4.85,0,0,1-2-2.72,4.77,4.77,0,0,1,3.19-6.11,4.78,4.78,0,0,1,2.43-.13,4.48,4.48,0,0,1,2.1,1L88.68,30.9a2.21,2.21,0,0,0-2.21-.43A2.45,2.45,0,0,0,85,31.69a2.81,2.81,0,0,0,1.1,3.5,2.4,2.4,0,0,0,1.94.12A2.15,2.15,0,0,0,89.55,33.69Z"/><path class="cls-3" d="M99.54,35.07a4.74,4.74,0,0,1-3.65-.86,5,5,0,0,1-1-6.86,5,5,0,0,1,6.88-1,4.87,4.87,0,0,1-2.19,8.76Zm-.35-2.31a2.45,2.45,0,0,0,2.12-2.89,2.52,2.52,0,1,0-5,.76,2.43,2.43,0,0,0,2.87,2.13Z"/><path class="cls-3" d="M108.43,32.81a4.78,4.78,0,0,1-1.34-3.5,4.87,4.87,0,0,1,7.27-4.19A4.32,4.32,0,0,1,116,26.75L114,27.92a2.21,2.21,0,0,0-2-1.09,2.42,2.42,0,0,0-1.82.69,2.82,2.82,0,0,0,0,3.67,2.46,2.46,0,0,0,1.81.71,2.16,2.16,0,0,0,2-1.06L116,32.07a4.67,4.67,0,0,1-4.08,2.17A4.78,4.78,0,0,1,108.43,32.81Z"/><path class="cls-3" d="M120.2,25.14l2.36.38-1,6c-.13.78.25,1.23,1.1,1.37s1.36-.17,1.48-.95l1-6,2.36.38-1,6.2a3,3,0,0,1-1.41,2.18,3.86,3.86,0,0,1-2.76.47,4,4,0,0,1-2.5-1.31,3,3,0,0,1-.64-2.51Z"/><path class="cls-3" d="M136.74,38.62l-2.56-.79L132.85,33l-1.23,4-2.28-.71,2.76-8.93,2.28.7-1.16,3.75,3.6-3,2.55.79-4.17,3.46Z"/><circle class="cls-3" cx="198.35" cy="110" r="7.16"/><circle class="cls-3" cx="21.65" cy="110" r="7.16"/><path class="cls-1" d="M87.07,147H83.62v1.57H87v2.37H83.62v3.29H81.17v-9.6h5.9Z"/><path class="cls-1" d="M96.46,154.2l-.41-1.38h-3.2l-.41,1.38H89.78L93,144.6h3l3.17,9.6Zm-3-3.5h1.93l-1-3.26Z"/><path class="cls-1" d="M110.51,154.2h-2.74L105,149.91v4.29h-2.46v-9.6H105v4l2.62-4h2.74l-3,4.66Z"/><path class="cls-1" d="M120.54,144.6V147h-2.38v7.23h-2.45V147h-2.37V144.6Z"/><path class="cls-1" d="M128.36,154.41a4.89,4.89,0,0,1-3.58-1.44,4.84,4.84,0,0,1-1.46-3.57,4.76,4.76,0,0,1,1.46-3.55,5.09,5.09,0,0,1,7.14,0,4.77,4.77,0,0,1,1.47,3.55,5,5,0,0,1-5,5Zm0-2.4a2.65,2.65,0,0,0,1.85-4.48,2.63,2.63,0,0,0-3.7,3.75A2.55,2.55,0,0,0,128.36,152Zm-2.43-9.13A1.09,1.09,0,1,1,127,144,1.09,1.09,0,0,1,125.93,142.88Zm2.67,0a1.1,1.1,0,1,1,1.09,1.1A1.1,1.1,0,0,1,128.6,142.88Z"/><path class="cls-1" d="M142.28,154.2l-1.67-3.1h-.88v3.1h-2.46v-9.6h3.85a3.38,3.38,0,0,1,2.45,1,3.07,3.07,0,0,1,1,2.37,3.12,3.12,0,0,1-1.63,2.73l2,3.55Zm-2.55-7.34V149h1.36a1,1,0,0,0,1-1.07,1,1,0,0,0-1-1.09Z"/><path class="cls-1" d="M98.63,68.34l2.1-1.22a1.91,1.91,0,0,0,1.89,1.28c.76,0,1.13-.22,1.13-.65s-.22-.51-.65-.68c-.18-.07-.59-.2-1.21-.38-1.75-.5-2.85-1.35-2.85-3a2.7,2.7,0,0,1,.95-2.15,3.54,3.54,0,0,1,2.38-.83,3.74,3.74,0,0,1,3.57,2.2l-2.06,1.21a1.52,1.52,0,0,0-1.49-1.07c-.59,0-.89.26-.89.63s.34.65,1.64,1c.47.14.84.26,1.13.38a6,6,0,0,1,.93.52,2.35,2.35,0,0,1,1,2.1,2.65,2.65,0,0,1-1,2.21,4.09,4.09,0,0,1-2.65.8A3.81,3.81,0,0,1,98.63,68.34Z"/><path class="cls-1" d="M113.57,60.92a3.36,3.36,0,0,1,2.44.95,3.43,3.43,0,0,1,0,4.82,3.36,3.36,0,0,1-2.44,1h-1.28v2.88h-2.45v-9.6Zm0,4.39a1,1,0,0,0,0-2.05h-1.28v2.05Z"/><path class="cls-1" d="M126.6,63.29h-3.44v1.57h3.37v2.37h-3.37v3.29H120.7v-9.6h5.9Z"/><path class="cls-1" d="M68.05,124.25l7-8.35c4,3.61,7.89,5.71,12.55,5.71,5.42,0,8.8-2.63,8.8-7.29v-.15c0-4.51-3.83-7.14-9.32-7.14a22.65,22.65,0,0,0-8.8,2l-6.69-4.43,1.5-25.95h32.33V88.76H83l-.6,9.09a25.93,25.93,0,0,1,6.91-.9c10.23,0,18.42,5,18.42,16.84v.15c0,11.13-7.89,18.2-20,18.2A27.11,27.11,0,0,1,68.05,124.25Z"/><path class="cls-1" d="M110.61,105.07v-.15c0-15.26,9.47-27.22,23.46-27.22s23.31,11.81,23.31,27.07v.15c0,15.27-9.4,27.22-23.46,27.22S110.61,120.34,110.61,105.07Zm34.89,0v-.15c0-9.55-4.66-16.77-11.58-16.77s-11.43,7-11.43,16.62v.15c0,9.63,4.59,16.77,11.58,16.77S145.5,114.62,145.5,105.07Z"/></g></g></svg>