<svg xmlns="http://www.w3.org/2000/svg" xmlns:xlink="http://www.w3.org/1999/xlink" viewBox="0 0 220 220"><defs><style>.cls-1{fill:none;}.cls-2{clip-path:url(#clip-path);}.cls-3{fill:#62b22f;}.cls-4{fill:#fff;}.cls-5{fill:#f6f6f6;}</style><clipPath id="clip-path" transform="translate(0 0)"><rect class="cls-1" width="220" height="220"/></clipPath></defs><title>Asset 7</title><g id="Layer_2" data-name="Layer 2"><g id="Layer_1-2" data-name="Layer 1"><g class="cls-2"><g class="cls-2"><path class="cls-3" d="M220,110A110,110,0,1,1,110,0,110,110,0,0,1,220,110" transform="translate(0 0)"/><path class="cls-4" d="M110,216.18a106.2,106.2,0,0,1-41.33-204,106.2,106.2,0,0,1,82.66,195.66A105.48,105.48,0,0,1,110,216.18M110,5.7A104.33,104.33,0,0,0,69.4,206.1,104.32,104.32,0,0,0,150.6,13.9,103.64,103.64,0,0,0,110,5.7" transform="translate(0 0)"/><path class="cls-4" d="M110,182.28A72.28,72.28,0,1,1,182,110a72.25,72.25,0,0,1-72,72.28m0-134.21A61.93,61.93,0,1,0,171.69,110,61.88,61.88,0,0,0,110,48.07" transform="translate(0 0)"/><path class="cls-4" d="M171,110a61,61,0,1,1-61-61.2A61.09,61.09,0,0,1,171,110" transform="translate(0 0)"/><polygon class="cls-5" points="42.06 39.4 44.45 46.64 47.5 49.5 45.6 51.52 42.57 48.7 35.16 46.78 37.29 44.5 41.54 45.84 39.93 41.68 42.06 39.4"/><path class="cls-5" d="M45.48,34a1.23,1.23,0,1,1,1.75.19A1.24,1.24,0,0,1,45.48,34m-.09,2.37,2.16-1.74L52,40.13a1.28,1.28,0,0,0,2,.11c.79-.63.91-1.3.33-2l-4.4-5.48L52.09,31l4.57,5.69a3.47,3.47,0,0,1,.79,2.91,4.54,4.54,0,0,1-1.76,2.75,4.6,4.6,0,0,1-3.07,1.13A3.52,3.52,0,0,1,50,42.08Zm2.45-4.26a1.23,1.23,0,1,1,1.73.2,1.25,1.25,0,0,1-1.73-.2" transform="translate(0 0)"/><polygon class="cls-5" points="69.89 32.66 67.22 34.24 62.06 31.65 64.54 35.83 62.15 37.25 56.61 27.9 59 26.48 61.33 30.41 61.55 24.97 64.22 23.39 63.95 29.69 69.89 32.66"/><path class="cls-5" d="M70.8,29.49l1.64-2.2a2.17,2.17,0,0,0,2.54.48c.78-.33,1.07-.73.88-1.17s-.45-.43-1-.43c-.22,0-.7.07-1.42.15-2.06.26-3.58-.14-4.31-1.85a3,3,0,0,1,0-2.66,4,4,0,0,1,2.11-1.92,4.23,4.23,0,0,1,4.69.7l-1.6,2.17a1.74,1.74,0,0,0-2-.45c-.62.26-.82.67-.65,1.05s.65.53,2.17.35a13.19,13.19,0,0,1,1.35-.1,6.24,6.24,0,0,1,1.2.13,2.64,2.64,0,0,1,2,1.74,3,3,0,0,1-.05,2.74,4.69,4.69,0,0,1-2.4,2c-2.12.9-3.94.55-5.15-.74" transform="translate(0 0)"/><polygon class="cls-5" points="84.86 24.03 88.91 22.88 89.62 25.39 82.9 27.3 79.93 16.84 86.58 14.96 87.28 17.45 83.31 18.58 83.72 20.03 87.32 19 88.02 21.47 84.42 22.49 84.86 24.03"/><polygon class="cls-5" points="102.16 23.23 99.09 23.69 95.29 19.35 96.01 24.15 93.26 24.56 91.66 13.81 94.4 13.4 95.08 17.92 97.33 12.97 100.41 12.51 97.78 18.24 102.16 23.23"/><polygon class="cls-5" points="120.53 23.51 117.43 23.31 114.63 18.26 114.31 23.11 111.54 22.93 112.24 12.09 115.01 12.27 114.72 16.82 117.97 12.46 121.07 12.66 117.29 17.7 120.53 23.51"/><path class="cls-5" d="M127.89,25.12a5.54,5.54,0,0,1-3.62-2.43,5.48,5.48,0,0,1-.77-4.29,5.38,5.38,0,0,1,2.44-3.59,5.7,5.7,0,0,1,8.7,6,5.62,5.62,0,0,1-6.75,4.36m.57-2.66a2.85,2.85,0,0,0,2.22-.37,2.9,2.9,0,0,0,1.26-1.9,2.83,2.83,0,0,0-.38-2.24,2.89,2.89,0,0,0-1.88-1.26A2.88,2.88,0,0,0,126.2,19a2.83,2.83,0,0,0,2.26,3.49" transform="translate(0 0)"/><path class="cls-5" d="M142.22,29.21l-.53-3.95-.93-.35-1.24,3.28-2.6-1L140.76,17l4.06,1.54a3.9,3.9,0,0,1,2.23,2,3.61,3.61,0,0,1-2.71,5.15l.67,4.55Zm.23-8.79-.86,2.28,1.44.54a1.12,1.12,0,0,0,1.52-.72,1.15,1.15,0,0,0-.66-1.56Z" transform="translate(0 0)"/><path class="cls-5" d="M153.07,22.06l2.44,1.33-3.37,6.18c-.44.8-.2,1.44.68,1.92s1.55.34,2-.47l3.37-6.17,2.44,1.33-3.49,6.41a3.45,3.45,0,0,1-2.39,1.84,4.48,4.48,0,0,1-3.21-.56,4.57,4.57,0,0,1-2.23-2.4,3.51,3.51,0,0,1,.28-3Z" transform="translate(0 0)"/><polygon class="cls-5" points="174.12 35.9 167.49 44.51 165.3 42.82 168.87 38.19 164.12 40.03 163.9 39.86 164.47 34.82 160.91 39.44 158.71 37.75 165.34 29.14 167.54 30.83 166.89 36.2 171.93 34.21 174.12 35.9"/><path class="cls-5" d="M174.92,52.08l.82-1.42L173.26,48l-1.46.74-2.06-2.2,10.37-4.83,2.32,2.46L177,54.26Zm.57-5.17L177,48.5l1.94-3.33Z" transform="translate(0 0)"/><polygon class="cls-5" points="42.44 164.76 44.14 166.94 35.59 173.63 33.88 171.46 37.17 168.88 35.29 166.48 32 169.05 30.29 166.86 38.84 160.16 40.55 162.35 37.39 164.83 39.27 167.24 42.44 164.76"/><rect class="cls-5" x="38.72" y="173.4" width="10.86" height="2.78" transform="translate(-109.98 81.28) rotate(-44.58)"/><path class="cls-5" d="M57.51,185.24l-.69.86a5.16,5.16,0,0,1-3.58,2.11,5.3,5.3,0,0,1-4-1.25A5.71,5.71,0,0,1,47,183.08a5.4,5.4,0,0,1,1.22-4.16,5.58,5.58,0,0,1,8-.94,5.72,5.72,0,0,1,1.75,2.26,5,5,0,0,1,.43,2.65l-2.69-.4a2.74,2.74,0,0,0-1.15-2.36,2.85,2.85,0,0,0-2.18-.66,3,3,0,0,0-1.4,5.45,2.45,2.45,0,0,0,2.85.43l-2.07-1.64,1.48-1.87Z" transform="translate(0 0)"/><polygon class="cls-5" points="68.49 186.39 70.89 187.75 65.54 197.21 63.13 195.84 65.19 192.21 62.53 190.7 60.47 194.34 58.06 192.97 63.41 183.51 65.83 184.88 63.85 188.38 66.51 189.89 68.49 186.39"/><path class="cls-5" d="M84.4,193.09a3.82,3.82,0,0,1,2.31,1.85,3.89,3.89,0,0,1-1.64,5.21,3.83,3.83,0,0,1-3,.19l-1.37-.43-1,3.11-2.65-.84,3.26-10.36Zm-1.49,4.74a1.11,1.11,0,0,0,1.4-.78,1.09,1.09,0,0,0-.71-1.43l-1.37-.43-.7,2.2Z" transform="translate(0 0)"/><path class="cls-5" d="M95.23,206.71,94,202.94l-1-.17-.59,3.46-2.74-.47,1.83-10.71,4.29.73a3.92,3.92,0,0,1,2.56,1.53,3.48,3.48,0,0,1,.66,2.83,3.54,3.54,0,0,1-2.34,2.74l1.52,4.34ZM93.79,198l-.41,2.4,1.51.26a1.13,1.13,0,0,0,1.36-1,1.15,1.15,0,0,0-.94-1.41Z" transform="translate(0 0)"/><path class="cls-5" d="M108.18,208a5.54,5.54,0,0,1-4-1.71,5.45,5.45,0,0,1-1.57-4.06,5.39,5.39,0,0,1,1.72-4,5.7,5.7,0,1,1,3.87,9.76m0-2.72a2.92,2.92,0,0,0,2.11-.78,2.87,2.87,0,0,0,.87-2.12,2.83,2.83,0,0,0-.79-2.12,2.88,2.88,0,0,0-2.08-.88,2.84,2.84,0,0,0-2.11.8,3.1,3.1,0,0,0-.08,4.24,2.92,2.92,0,0,0,2.08.86" transform="translate(0 0)"/><polygon class="cls-5" points="124.56 195.8 124.89 198.47 122.22 198.8 123.22 206.92 120.46 207.26 119.46 199.14 116.8 199.47 116.47 196.8 124.56 195.8"/><polygon class="cls-5" points="132.63 202.46 136.72 201.45 137.34 203.99 130.56 205.66 127.96 195.11 134.66 193.45 135.28 195.97 131.28 196.96 131.64 198.42 135.27 197.53 135.88 200.01 132.25 200.91 132.63 202.46"/><path class="cls-5" d="M142.81,200.74a5.71,5.71,0,0,1,2.95-10.9,5.3,5.3,0,0,1,2.53,1L146.57,193a2.57,2.57,0,0,0-2.6-.29,2.84,2.84,0,0,0-1.65,1.55,2.9,2.9,0,0,0,.06,2.27,3,3,0,0,0,1.53,1.69,2.83,2.83,0,0,0,2.26,0,2.53,2.53,0,0,0,1.67-2l2.75.4a5.4,5.4,0,0,1-3.4,4.14,5.55,5.55,0,0,1-4.38,0" transform="translate(0 0)"/><polygon class="cls-5" points="156.89 183.35 158.23 185.68 155.9 187.02 159.97 194.11 157.56 195.5 153.49 188.4 151.16 189.74 149.82 187.41 156.89 183.35"/><rect class="cls-5" x="162.72" y="179.47" width="2.78" height="10.87" transform="translate(-77.18 131.06) rotate(-35.83)"/><path class="cls-5" d="M176.82,181.76a5.51,5.51,0,0,1-4.07,1.57,5.45,5.45,0,0,1-4-1.83,5.36,5.36,0,0,1-1.53-4.06,5.79,5.79,0,0,1,5.91-5.51,5.71,5.71,0,0,1,5.49,5.89,5.48,5.48,0,0,1-1.84,3.94m-1.85-2a2.85,2.85,0,0,0,.14-4.16,2.88,2.88,0,0,0-4.16-.16,2.89,2.89,0,0,0-1,2,2.82,2.82,0,0,0,.82,2.11,2.86,2.86,0,0,0,4.16.16" transform="translate(0 0)"/><polygon class="cls-5" points="179.44 162.35 181.15 160.17 189.7 166.87 188.38 168.55 181.72 168.21 186.02 171.57 184.31 173.76 175.75 167.07 177.08 165.37 183.75 165.71 179.44 162.35"/><polygon class="cls-5" points="108.33 194.26 105.67 194.05 103.32 189.67 102.99 193.84 100.61 193.65 101.33 184.33 103.72 184.52 103.41 188.44 106.26 184.72 108.92 184.93 105.61 189.22 108.33 194.26"/><rect class="cls-5" x="112.04" y="184.79" width="2.39" height="9.35" transform="matrix(1, -0.03, 0.03, 1, -6.35, 3.95)"/><path class="cls-5" d="M121.63,184a4.34,4.34,0,0,1,3.4.85,4.56,4.56,0,0,1,1.8,3.09,4.64,4.64,0,0,1-.79,3.5,4.35,4.35,0,0,1-3,1.81l-3.76.57-1.41-9.24Zm1.07,7a2.12,2.12,0,0,0,1.47-.87,2.47,2.47,0,0,0,.35-1.8,2.35,2.35,0,0,0-.87-1.6,2.06,2.06,0,0,0-1.67-.4l-1.33.2.71,4.67Z" transform="translate(0 0)"/><path class="cls-5" d="M89.55,33.69l2.34.53a4.58,4.58,0,0,1-2.31,3l.15.48a1.05,1.05,0,0,1,1,.75c.3,1-.57,1.68-2.59,2.18l-.44-1.38c.82-.19,1.21-.38,1.16-.56s-.3-.15-.76,0l-.27-.86a4.56,4.56,0,0,1-3.27-.66,4.81,4.81,0,0,1-2-2.72,4.75,4.75,0,0,1,3.19-6.11,4.78,4.78,0,0,1,2.43-.13,4.48,4.48,0,0,1,2.1,1L88.68,30.9a2.21,2.21,0,0,0-2.21-.43A2.45,2.45,0,0,0,85,31.69a2.81,2.81,0,0,0,1.1,3.5,2.4,2.4,0,0,0,1.94.12,2.15,2.15,0,0,0,1.56-1.62" transform="translate(0 0)"/><path class="cls-5" d="M99.54,35.07a4.74,4.74,0,0,1-3.65-.86,5,5,0,0,1-1-6.86,5,5,0,0,1,6.88-1,4.87,4.87,0,0,1-2.19,8.76m-.35-2.31a2.45,2.45,0,0,0,2.12-2.89,2.52,2.52,0,1,0-5,.76,2.43,2.43,0,0,0,2.87,2.13" transform="translate(0 0)"/><path class="cls-5" d="M108.43,32.81a4.78,4.78,0,0,1-1.34-3.5,4.87,4.87,0,0,1,7.27-4.19A4.32,4.32,0,0,1,116,26.75L114,27.92a2.21,2.21,0,0,0-2-1.09,2.42,2.42,0,0,0-1.82.69,2.82,2.82,0,0,0,0,3.67,2.46,2.46,0,0,0,1.81.71,2.16,2.16,0,0,0,2-1.06L116,32.07a4.67,4.67,0,0,1-4.08,2.17,4.78,4.78,0,0,1-3.48-1.43" transform="translate(0 0)"/><path class="cls-5" d="M120.2,25.14l2.36.38-1,6c-.13.77.25,1.23,1.1,1.36s1.36-.18,1.48-.95l1-6,2.37.38-1,6.2a3,3,0,0,1-1.41,2.18,3.84,3.84,0,0,1-2.76.47,4,4,0,0,1-2.5-1.31,3,3,0,0,1-.64-2.51Z" transform="translate(0 0)"/><polygon class="cls-5" points="136.74 38.62 134.18 37.83 132.85 33.04 131.62 37.03 129.34 36.33 132.1 27.4 134.38 28.1 133.22 31.85 136.82 28.86 139.37 29.65 135.2 33.11 136.74 38.62"/><path class="cls-5" d="M205.52,110a7.17,7.17,0,1,1-7.17-7.16,7.16,7.16,0,0,1,7.17,7.16" transform="translate(0 0)"/><path class="cls-5" d="M28.81,110a7.16,7.16,0,1,1-7.16-7.16A7.16,7.16,0,0,1,28.81,110" transform="translate(0 0)"/><polygon class="cls-3" points="87.06 146.97 83.62 146.97 83.62 148.53 87 148.53 87 150.91 83.62 150.91 83.62 154.2 81.17 154.2 81.17 144.6 87.06 144.6 87.06 146.97"/><path class="cls-3" d="M96.46,154.2l-.41-1.38h-3.2l-.41,1.38H89.78L93,144.6h3l3.17,9.6Zm-3-3.5h1.93l-1-3.26Z" transform="translate(0 0)"/><polygon class="cls-3" points="110.51 154.2 107.77 154.2 105.01 149.91 105.01 154.2 102.55 154.2 102.55 144.6 105.01 144.6 105.01 148.63 107.63 144.6 110.37 144.6 107.33 149.26 110.51 154.2"/><polygon class="cls-3" points="120.54 144.6 120.54 146.97 118.16 146.97 118.16 154.2 115.71 154.2 115.71 146.97 113.33 146.97 113.33 144.6 120.54 144.6"/><path class="cls-3" d="M128.36,154.41a4.89,4.89,0,0,1-3.58-1.44,4.84,4.84,0,0,1-1.46-3.57,4.76,4.76,0,0,1,1.46-3.55,5.09,5.09,0,0,1,7.14,0,4.77,4.77,0,0,1,1.47,3.55,5,5,0,0,1-5,5m0-2.4a2.65,2.65,0,0,0,1.85-4.48,2.63,2.63,0,0,0-3.7,3.75,2.55,2.55,0,0,0,1.85.73m-2.43-9.13A1.09,1.09,0,1,1,127,144a1.09,1.09,0,0,1-1.1-1.1m2.67,0a1.1,1.1,0,1,1,1.09,1.1,1.1,1.1,0,0,1-1.09-1.1" transform="translate(0 0)"/><path class="cls-3" d="M142.28,154.2l-1.67-3.1h-.88v3.1h-2.46v-9.6h3.85a3.38,3.38,0,0,1,2.45,1,3.07,3.07,0,0,1,1,2.37,3.12,3.12,0,0,1-1.63,2.73l2,3.55Zm-2.55-7.34V149h1.36a1,1,0,0,0,1-1.07,1,1,0,0,0-1-1.09Z" transform="translate(0 0)"/><path class="cls-3" d="M98.63,68.34l2.1-1.22a1.91,1.91,0,0,0,1.89,1.28c.76,0,1.13-.22,1.13-.65s-.22-.51-.65-.68c-.18-.07-.59-.2-1.21-.38-1.75-.5-2.85-1.35-2.85-3a2.7,2.7,0,0,1,.95-2.15,3.54,3.54,0,0,1,2.38-.83,3.74,3.74,0,0,1,3.57,2.2l-2.06,1.2a1.53,1.53,0,0,0-1.49-1.06c-.59,0-.89.26-.89.63s.34.65,1.64,1c.47.14.84.26,1.13.38a6,6,0,0,1,.93.52,2.35,2.35,0,0,1,1,2.1,2.65,2.65,0,0,1-1,2.21,4.09,4.09,0,0,1-2.65.8,3.81,3.81,0,0,1-3.92-2.39" transform="translate(0 0)"/><path class="cls-3" d="M113.57,60.92a3.36,3.36,0,0,1,2.44.95,3.2,3.2,0,0,1,1,2.41,3.23,3.23,0,0,1-1,2.42,3.39,3.39,0,0,1-2.44.94h-1.28v2.88h-2.45v-9.6Zm0,4.39a1,1,0,0,0,1-1,1,1,0,0,0-1-1h-1.28v2Z" transform="translate(0 0)"/><polygon class="cls-3" points="126.6 63.29 123.16 63.29 123.16 64.86 126.53 64.86 126.53 67.23 123.16 67.23 123.16 70.52 120.7 70.52 120.7 60.92 126.6 60.92 126.6 63.29"/><path class="cls-3" d="M68.05,124.25l7-8.35c4,3.61,7.89,5.71,12.55,5.71,5.42,0,8.8-2.63,8.8-7.29v-.15c0-4.51-3.83-7.14-9.32-7.14a22.65,22.65,0,0,0-8.8,2l-6.69-4.43,1.5-25.95h32.33V88.76H83l-.6,9.09a25.93,25.93,0,0,1,6.91-.9c10.23,0,18.42,5,18.42,16.84v.15c0,11.13-7.89,18.2-20,18.2a27.11,27.11,0,0,1-19.7-7.89" transform="translate(0 0)"/><path class="cls-3" d="M110.61,105.07v-.15c0-15.26,9.47-27.22,23.46-27.22s23.31,11.81,23.31,27.07v.15c0,15.27-9.4,27.22-23.46,27.22s-23.31-11.8-23.31-27.07m34.89,0v-.15c0-9.55-4.66-16.77-11.58-16.77s-11.43,7-11.43,16.62v.15c0,9.63,4.59,16.77,11.58,16.77s11.43-7.07,11.43-16.62" transform="translate(0 0)"/></g></g></g></g></svg>